%TF.GenerationSoftware,KiCad,Pcbnew,9.0.4*%
%TF.CreationDate,2025-10-18T22:12:50-05:00*%
%TF.ProjectId,Black Body,426c6163-6b20-4426-9f64-792e6b696361,rev?*%
%TF.SameCoordinates,Original*%
%TF.FileFunction,Soldermask,Top*%
%TF.FilePolarity,Negative*%
%FSLAX46Y46*%
G04 Gerber Fmt 4.6, Leading zero omitted, Abs format (unit mm)*
G04 Created by KiCad (PCBNEW 9.0.4) date 2025-10-18 22:12:50*
%MOMM*%
%LPD*%
G01*
G04 APERTURE LIST*
G04 Aperture macros list*
%AMRoundRect*
0 Rectangle with rounded corners*
0 $1 Rounding radius*
0 $2 $3 $4 $5 $6 $7 $8 $9 X,Y pos of 4 corners*
0 Add a 4 corners polygon primitive as box body*
4,1,4,$2,$3,$4,$5,$6,$7,$8,$9,$2,$3,0*
0 Add four circle primitives for the rounded corners*
1,1,$1+$1,$2,$3*
1,1,$1+$1,$4,$5*
1,1,$1+$1,$6,$7*
1,1,$1+$1,$8,$9*
0 Add four rect primitives between the rounded corners*
20,1,$1+$1,$2,$3,$4,$5,0*
20,1,$1+$1,$4,$5,$6,$7,0*
20,1,$1+$1,$6,$7,$8,$9,0*
20,1,$1+$1,$8,$9,$2,$3,0*%
G04 Aperture macros list end*
%ADD10R,1.000000X1.000000*%
%ADD11R,1.700000X1.700000*%
%ADD12RoundRect,0.250000X-0.262500X-0.450000X0.262500X-0.450000X0.262500X0.450000X-0.262500X0.450000X0*%
%ADD13RoundRect,0.237500X0.250000X0.237500X-0.250000X0.237500X-0.250000X-0.237500X0.250000X-0.237500X0*%
%ADD14R,0.350000X0.850000*%
%ADD15R,0.850000X0.350000*%
%ADD16R,3.350000X3.350000*%
%ADD17RoundRect,0.250000X0.337500X0.475000X-0.337500X0.475000X-0.337500X-0.475000X0.337500X-0.475000X0*%
%ADD18RoundRect,0.237500X0.237500X-0.250000X0.237500X0.250000X-0.237500X0.250000X-0.237500X-0.250000X0*%
%ADD19RoundRect,0.237500X-0.237500X0.287500X-0.237500X-0.287500X0.237500X-0.287500X0.237500X0.287500X0*%
%ADD20RoundRect,0.237500X0.287500X0.237500X-0.287500X0.237500X-0.287500X-0.237500X0.287500X-0.237500X0*%
%ADD21RoundRect,0.250000X-0.450000X0.262500X-0.450000X-0.262500X0.450000X-0.262500X0.450000X0.262500X0*%
%ADD22C,1.700000*%
%ADD23C,2.780000*%
%ADD24RoundRect,0.237500X-0.250000X-0.237500X0.250000X-0.237500X0.250000X0.237500X-0.250000X0.237500X0*%
%ADD25RoundRect,0.250000X-0.475000X0.337500X-0.475000X-0.337500X0.475000X-0.337500X0.475000X0.337500X0*%
%ADD26C,3.600000*%
%ADD27C,6.400000*%
%ADD28C,1.905000*%
G04 APERTURE END LIST*
D10*
%TO.C,TP_TC_F_1*%
X103000000Y-99300000D03*
%TD*%
D11*
%TO.C,I2C_SDA*%
X112250000Y-92750000D03*
%TD*%
%TO.C,INT*%
X117000000Y-101750000D03*
%TD*%
%TO.C,I2C_SCL*%
X116400000Y-92800000D03*
%TD*%
D10*
%TO.C,VCC*%
X110500000Y-88900000D03*
%TD*%
%TO.C,GND*%
X124100000Y-103100000D03*
%TD*%
D12*
%TO.C,R11*%
X114000000Y-103750000D03*
X112175000Y-103750000D03*
%TD*%
D13*
%TO.C,Rb1*%
X113162500Y-110500000D03*
X111337500Y-110500000D03*
%TD*%
D14*
%TO.C,IC2*%
X107875000Y-106150000D03*
X107225000Y-106150000D03*
X106575000Y-106150000D03*
X105925000Y-106150000D03*
X105275000Y-106150000D03*
D15*
X104125000Y-107300000D03*
X104125000Y-107950000D03*
X104125000Y-108600000D03*
X104125000Y-109250000D03*
X104125000Y-109900000D03*
D14*
X105275000Y-111050000D03*
X105925000Y-111050000D03*
X106575000Y-111050000D03*
X107225000Y-111050000D03*
X107875000Y-111050000D03*
D15*
X109025000Y-109900000D03*
X109025000Y-109250000D03*
X109025000Y-108600000D03*
X109025000Y-107950000D03*
X109025000Y-107300000D03*
D16*
X106575000Y-108600000D03*
%TD*%
D10*
%TO.C,TP_TC_1*%
X105300000Y-91500000D03*
%TD*%
D17*
%TO.C,C3*%
X107500000Y-102750000D03*
X105425000Y-102750000D03*
%TD*%
D18*
%TO.C,R9*%
X109250000Y-103712500D03*
X109250000Y-101887500D03*
%TD*%
D13*
%TO.C,R7*%
X117912500Y-112250000D03*
X116087500Y-112250000D03*
%TD*%
D18*
%TO.C,R6*%
X107500000Y-99325000D03*
X107500000Y-97500000D03*
%TD*%
D19*
%TO.C,FB1*%
X105500000Y-93625000D03*
X105500000Y-95375000D03*
%TD*%
D20*
%TO.C,Heartbeat1*%
X121375000Y-110500000D03*
X119625000Y-110500000D03*
%TD*%
D10*
%TO.C,TP_TC_F_2*%
X103000000Y-96500000D03*
%TD*%
D13*
%TO.C,R4*%
X117912500Y-107000000D03*
X116087500Y-107000000D03*
%TD*%
D21*
%TO.C,R3*%
X110500000Y-96925000D03*
X110500000Y-98750000D03*
%TD*%
D20*
%TO.C,DB_2*%
X121375000Y-112250000D03*
X119625000Y-112250000D03*
%TD*%
D11*
%TO.C,J3*%
X88885000Y-114310000D03*
D22*
X88885000Y-111770000D03*
X88885000Y-109230000D03*
X88885000Y-106690000D03*
%TD*%
D13*
%TO.C,R10*%
X117912500Y-108750000D03*
X116087500Y-108750000D03*
%TD*%
D21*
%TO.C,R1*%
X117000000Y-96987500D03*
X117000000Y-98812500D03*
%TD*%
D13*
%TO.C,R8*%
X117912500Y-110500000D03*
X116087500Y-110500000D03*
%TD*%
D10*
%TO.C,TP_TC_2*%
X107700000Y-91500000D03*
%TD*%
D20*
%TO.C,DB_1*%
X121375000Y-107000000D03*
X119625000Y-107000000D03*
%TD*%
D23*
%TO.C,F1*%
X81040000Y-98050000D03*
X81040000Y-101450000D03*
X90960000Y-98050000D03*
X90960000Y-101450000D03*
%TD*%
D18*
%TO.C,R5*%
X105500000Y-99325000D03*
X105500000Y-97500000D03*
%TD*%
D24*
%TO.C,Ra1*%
X111287500Y-108800000D03*
X113112500Y-108800000D03*
%TD*%
D21*
%TO.C,R2*%
X113000000Y-97087500D03*
X113000000Y-98912500D03*
%TD*%
D12*
%TO.C,R12*%
X112175000Y-106250000D03*
X114000000Y-106250000D03*
%TD*%
D20*
%TO.C,DB_3*%
X121375000Y-108750000D03*
X119625000Y-108750000D03*
%TD*%
D25*
%TO.C,C2*%
X102400000Y-104762500D03*
X102400000Y-106837500D03*
%TD*%
D19*
%TO.C,FB2*%
X107500000Y-93625000D03*
X107500000Y-95375000D03*
%TD*%
D26*
%TO.C,J1*%
X95280000Y-116950000D03*
D27*
X95280000Y-116950000D03*
D26*
X126030000Y-116950000D03*
D27*
X126030000Y-116950000D03*
D26*
X126030000Y-70480000D03*
D27*
X126030000Y-70480000D03*
D26*
X95290000Y-70480000D03*
D27*
X95290000Y-70480000D03*
%TD*%
D28*
%TO.C,J4*%
X87750000Y-94000001D03*
X87750000Y-90500000D03*
X87750000Y-86999999D03*
X87750000Y-83499999D03*
X87750000Y-79999998D03*
X87750000Y-76499997D03*
X87750000Y-72999997D03*
X87750000Y-69499996D03*
X81749997Y-94000001D03*
X81749997Y-90500000D03*
X81749997Y-86999999D03*
X81749997Y-83499999D03*
X81749997Y-79999998D03*
X81749997Y-76499997D03*
X81749997Y-72999997D03*
X81749997Y-69499996D03*
%TD*%
M02*
