%TF.GenerationSoftware,KiCad,Pcbnew,9.0.4*%
%TF.CreationDate,2025-10-18T21:08:44-05:00*%
%TF.ProjectId,Black Body,426c6163-6b20-4426-9f64-792e6b696361,rev?*%
%TF.SameCoordinates,Original*%
%TF.FileFunction,Legend,Bot*%
%TF.FilePolarity,Positive*%
%FSLAX46Y46*%
G04 Gerber Fmt 4.6, Leading zero omitted, Abs format (unit mm)*
G04 Created by KiCad (PCBNEW 9.0.4) date 2025-10-18 21:08:44*
%MOMM*%
%LPD*%
G01*
G04 APERTURE LIST*
%ADD10C,0.150000*%
%ADD11C,0.152400*%
%ADD12C,0.508000*%
G04 APERTURE END LIST*
D10*
X117304819Y-115946666D02*
X118019104Y-115946666D01*
X118019104Y-115946666D02*
X118161961Y-115899047D01*
X118161961Y-115899047D02*
X118257200Y-115803809D01*
X118257200Y-115803809D02*
X118304819Y-115660952D01*
X118304819Y-115660952D02*
X118304819Y-115565714D01*
X118304819Y-116946666D02*
X118304819Y-116375238D01*
X118304819Y-116660952D02*
X117304819Y-116660952D01*
X117304819Y-116660952D02*
X117447676Y-116565714D01*
X117447676Y-116565714D02*
X117542914Y-116470476D01*
X117542914Y-116470476D02*
X117590533Y-116375238D01*
G36*
X104518617Y-116626882D02*
G01*
X104590561Y-116698825D01*
X104624819Y-116767341D01*
X104624819Y-116922407D01*
X104590561Y-116990922D01*
X104518617Y-117062865D01*
X104357251Y-117103207D01*
X104042386Y-117103207D01*
X103881019Y-117062865D01*
X103809077Y-116990923D01*
X103774819Y-116922407D01*
X103774819Y-116767341D01*
X103809077Y-116698825D01*
X103881019Y-116626882D01*
X104042386Y-116586541D01*
X104357251Y-116586541D01*
X104518617Y-116626882D01*
G37*
G36*
X104885930Y-118459556D02*
G01*
X103513708Y-118459556D01*
X103513708Y-117618167D01*
X103625689Y-117618167D01*
X103626260Y-117619737D01*
X103626260Y-117621411D01*
X103631241Y-117633437D01*
X103635689Y-117645668D01*
X103636818Y-117646901D01*
X103637459Y-117648447D01*
X103646664Y-117657652D01*
X103655453Y-117667249D01*
X103657435Y-117668423D01*
X103658151Y-117669139D01*
X103659787Y-117669817D01*
X103668103Y-117674743D01*
X104236750Y-117940112D01*
X103668103Y-118205481D01*
X103659787Y-118210406D01*
X103658151Y-118211085D01*
X103657435Y-118211800D01*
X103655453Y-118212975D01*
X103646664Y-118222571D01*
X103637459Y-118231777D01*
X103636818Y-118233322D01*
X103635689Y-118234556D01*
X103631241Y-118246786D01*
X103626260Y-118258813D01*
X103626260Y-118260486D01*
X103625689Y-118262057D01*
X103626260Y-118275058D01*
X103626260Y-118288077D01*
X103626899Y-118289621D01*
X103626973Y-118291293D01*
X103632479Y-118303091D01*
X103637459Y-118315113D01*
X103638641Y-118316295D01*
X103639349Y-118317811D01*
X103648945Y-118326599D01*
X103658151Y-118335805D01*
X103659696Y-118336445D01*
X103660930Y-118337575D01*
X103673160Y-118342022D01*
X103685187Y-118347004D01*
X103687482Y-118347230D01*
X103688431Y-118347575D01*
X103690197Y-118347497D01*
X103699819Y-118348445D01*
X104699819Y-118348445D01*
X104714451Y-118347004D01*
X104741487Y-118335805D01*
X104762179Y-118315113D01*
X104773378Y-118288077D01*
X104773378Y-118258813D01*
X104762179Y-118231777D01*
X104741487Y-118211085D01*
X104714451Y-118199886D01*
X104699819Y-118198445D01*
X104037887Y-118198445D01*
X104445821Y-118008076D01*
X104451180Y-118004901D01*
X104452993Y-118004242D01*
X104454275Y-118003067D01*
X104458471Y-118000582D01*
X104466168Y-117992176D01*
X104474575Y-117984478D01*
X104475984Y-117981457D01*
X104478234Y-117979001D01*
X104482128Y-117968291D01*
X104486950Y-117957960D01*
X104487096Y-117954631D01*
X104488235Y-117951500D01*
X104487734Y-117940112D01*
X104488235Y-117928724D01*
X104487096Y-117925592D01*
X104486950Y-117922264D01*
X104482128Y-117911932D01*
X104478234Y-117901223D01*
X104475984Y-117898766D01*
X104474575Y-117895746D01*
X104466168Y-117888047D01*
X104458471Y-117879642D01*
X104454275Y-117877156D01*
X104452993Y-117875982D01*
X104451180Y-117875322D01*
X104445821Y-117872148D01*
X104037887Y-117681779D01*
X104699819Y-117681779D01*
X104714451Y-117680338D01*
X104741487Y-117669139D01*
X104762179Y-117648447D01*
X104773378Y-117621411D01*
X104773378Y-117592147D01*
X104762179Y-117565111D01*
X104741487Y-117544419D01*
X104714451Y-117533220D01*
X104699819Y-117531779D01*
X103699819Y-117531779D01*
X103690197Y-117532726D01*
X103688431Y-117532649D01*
X103687482Y-117532993D01*
X103685187Y-117533220D01*
X103673160Y-117538201D01*
X103660930Y-117542649D01*
X103659696Y-117543778D01*
X103658151Y-117544419D01*
X103648945Y-117553624D01*
X103639349Y-117562413D01*
X103638641Y-117563928D01*
X103637459Y-117565111D01*
X103632479Y-117577132D01*
X103626973Y-117588931D01*
X103626899Y-117590602D01*
X103626260Y-117592147D01*
X103626260Y-117605165D01*
X103625689Y-117618167D01*
X103513708Y-117618167D01*
X103513708Y-116749636D01*
X103624819Y-116749636D01*
X103624819Y-116940112D01*
X103626260Y-116954744D01*
X103627291Y-116957233D01*
X103627482Y-116959921D01*
X103632737Y-116973653D01*
X103680356Y-117068891D01*
X103684320Y-117075190D01*
X103685078Y-117077018D01*
X103686766Y-117079074D01*
X103688188Y-117081334D01*
X103689686Y-117082633D01*
X103694405Y-117088383D01*
X103789643Y-117183621D01*
X103801008Y-117192949D01*
X103806161Y-117195083D01*
X103810640Y-117198402D01*
X103824486Y-117203349D01*
X104014962Y-117250968D01*
X104017498Y-117251343D01*
X104018520Y-117251766D01*
X104024032Y-117252308D01*
X104029506Y-117253118D01*
X104030598Y-117252955D01*
X104033152Y-117253207D01*
X104366485Y-117253207D01*
X104369038Y-117252955D01*
X104370131Y-117253118D01*
X104375604Y-117252308D01*
X104381117Y-117251766D01*
X104382138Y-117251343D01*
X104384675Y-117250968D01*
X104575151Y-117203349D01*
X104588997Y-117198402D01*
X104593476Y-117195082D01*
X104598628Y-117192949D01*
X104609994Y-117183621D01*
X104705233Y-117088383D01*
X104709953Y-117082632D01*
X104711450Y-117081334D01*
X104712869Y-117079079D01*
X104714561Y-117077018D01*
X104715319Y-117075185D01*
X104719282Y-117068891D01*
X104766901Y-116973653D01*
X104772156Y-116959922D01*
X104772347Y-116957232D01*
X104773378Y-116954744D01*
X104774819Y-116940112D01*
X104774819Y-116749636D01*
X104773378Y-116735004D01*
X104772347Y-116732515D01*
X104772156Y-116729826D01*
X104766901Y-116716095D01*
X104719282Y-116620857D01*
X104715319Y-116614562D01*
X104714561Y-116612730D01*
X104712869Y-116610668D01*
X104711450Y-116608414D01*
X104709953Y-116607115D01*
X104705233Y-116601365D01*
X104609994Y-116506127D01*
X104598628Y-116496799D01*
X104593476Y-116494665D01*
X104588997Y-116491346D01*
X104575151Y-116486399D01*
X104384675Y-116438780D01*
X104382138Y-116438404D01*
X104381117Y-116437982D01*
X104375604Y-116437439D01*
X104370131Y-116436630D01*
X104369038Y-116436792D01*
X104366485Y-116436541D01*
X104033152Y-116436541D01*
X104030598Y-116436792D01*
X104029506Y-116436630D01*
X104024032Y-116437439D01*
X104018520Y-116437982D01*
X104017498Y-116438404D01*
X104014962Y-116438780D01*
X103824486Y-116486399D01*
X103810640Y-116491346D01*
X103806161Y-116494664D01*
X103801008Y-116496799D01*
X103789643Y-116506127D01*
X103694405Y-116601365D01*
X103689686Y-116607114D01*
X103688188Y-116608414D01*
X103686766Y-116610673D01*
X103685078Y-116612730D01*
X103684320Y-116614557D01*
X103680356Y-116620857D01*
X103632737Y-116716095D01*
X103627482Y-116729827D01*
X103627291Y-116732514D01*
X103626260Y-116735004D01*
X103624819Y-116749636D01*
X103513708Y-116749636D01*
X103513708Y-115749636D01*
X103624819Y-115749636D01*
X103624819Y-115987731D01*
X103625548Y-115995136D01*
X103625408Y-115997111D01*
X103625998Y-115999708D01*
X103626260Y-116002363D01*
X103627018Y-116004194D01*
X103628668Y-116011448D01*
X103676287Y-116154305D01*
X103682281Y-116167730D01*
X103701455Y-116189837D01*
X103727628Y-116202924D01*
X103756818Y-116204999D01*
X103784580Y-116195745D01*
X103806688Y-116176571D01*
X103819774Y-116150397D01*
X103821849Y-116121207D01*
X103818589Y-116106870D01*
X103774819Y-115975560D01*
X103774819Y-115767341D01*
X103809077Y-115698825D01*
X103839484Y-115668418D01*
X103908000Y-115634160D01*
X103967828Y-115634160D01*
X104036344Y-115668418D01*
X104066751Y-115698825D01*
X104105244Y-115775812D01*
X104150867Y-115958302D01*
X104151252Y-115959381D01*
X104151291Y-115959921D01*
X104153618Y-115966002D01*
X104155814Y-115972148D01*
X104156136Y-115972583D01*
X104156546Y-115973653D01*
X104204165Y-116068891D01*
X104208129Y-116075190D01*
X104208887Y-116077018D01*
X104210575Y-116079074D01*
X104211997Y-116081334D01*
X104213495Y-116082633D01*
X104218214Y-116088383D01*
X104265833Y-116136002D01*
X104271582Y-116140720D01*
X104272882Y-116142219D01*
X104275141Y-116143640D01*
X104277198Y-116145329D01*
X104279025Y-116146086D01*
X104285325Y-116150051D01*
X104380563Y-116197670D01*
X104394294Y-116202925D01*
X104396983Y-116203116D01*
X104399472Y-116204147D01*
X104414104Y-116205588D01*
X104509342Y-116205588D01*
X104523974Y-116204147D01*
X104526463Y-116203115D01*
X104529151Y-116202925D01*
X104542883Y-116197670D01*
X104638121Y-116150051D01*
X104644417Y-116146087D01*
X104646247Y-116145330D01*
X104648305Y-116143640D01*
X104650564Y-116142219D01*
X104651863Y-116140720D01*
X104657612Y-116136003D01*
X104705232Y-116088384D01*
X104709950Y-116082634D01*
X104711450Y-116081334D01*
X104712872Y-116079074D01*
X104714560Y-116077018D01*
X104715317Y-116075190D01*
X104719282Y-116068891D01*
X104766901Y-115973653D01*
X104772156Y-115959922D01*
X104772347Y-115957232D01*
X104773378Y-115954744D01*
X104774819Y-115940112D01*
X104774819Y-115702017D01*
X104774089Y-115694610D01*
X104774230Y-115692636D01*
X104773639Y-115690038D01*
X104773378Y-115687385D01*
X104772619Y-115685554D01*
X104770970Y-115678299D01*
X104723351Y-115535443D01*
X104717357Y-115522017D01*
X104698183Y-115499910D01*
X104672010Y-115486824D01*
X104642820Y-115484749D01*
X104615057Y-115494003D01*
X104592950Y-115513177D01*
X104579864Y-115539350D01*
X104577789Y-115568540D01*
X104581049Y-115582877D01*
X104624819Y-115714187D01*
X104624819Y-115922407D01*
X104590561Y-115990922D01*
X104560153Y-116021329D01*
X104491637Y-116055588D01*
X104431809Y-116055588D01*
X104363293Y-116021330D01*
X104332886Y-115990923D01*
X104294392Y-115913936D01*
X104248770Y-115731446D01*
X104248384Y-115730366D01*
X104248346Y-115729826D01*
X104246015Y-115723736D01*
X104243823Y-115717600D01*
X104243500Y-115717164D01*
X104243091Y-115716095D01*
X104195472Y-115620857D01*
X104191507Y-115614557D01*
X104190750Y-115612730D01*
X104189061Y-115610673D01*
X104187640Y-115608414D01*
X104186141Y-115607114D01*
X104181423Y-115601365D01*
X104133804Y-115553746D01*
X104128054Y-115549027D01*
X104126755Y-115547529D01*
X104124495Y-115546107D01*
X104122439Y-115544419D01*
X104120611Y-115543661D01*
X104114312Y-115539697D01*
X104019074Y-115492078D01*
X104005342Y-115486823D01*
X104002654Y-115486632D01*
X104000165Y-115485601D01*
X103985533Y-115484160D01*
X103890295Y-115484160D01*
X103875663Y-115485601D01*
X103873174Y-115486631D01*
X103870485Y-115486823D01*
X103856754Y-115492078D01*
X103761516Y-115539697D01*
X103755216Y-115543661D01*
X103753389Y-115544419D01*
X103751332Y-115546107D01*
X103749073Y-115547529D01*
X103747773Y-115549027D01*
X103742024Y-115553746D01*
X103694405Y-115601365D01*
X103689686Y-115607114D01*
X103688188Y-115608414D01*
X103686766Y-115610673D01*
X103685078Y-115612730D01*
X103684320Y-115614557D01*
X103680356Y-115620857D01*
X103632737Y-115716095D01*
X103627482Y-115729827D01*
X103627291Y-115732514D01*
X103626260Y-115735004D01*
X103624819Y-115749636D01*
X103513708Y-115749636D01*
X103513708Y-115373049D01*
X104885930Y-115373049D01*
X104885930Y-118459556D01*
G37*
D11*
%TO.C,J1*%
X105360400Y-114892600D02*
X105360400Y-119007400D01*
X105360400Y-119007400D02*
X106046200Y-119007400D01*
X106046200Y-114892600D02*
X105360400Y-114892600D01*
X116206200Y-119007400D02*
X116739600Y-118499400D01*
X116739600Y-114892600D02*
X116053800Y-114892600D01*
X116739600Y-118499400D02*
X116739600Y-114892600D01*
X116993600Y-119109000D02*
X118263600Y-119744000D01*
X118263600Y-118474000D02*
X116993600Y-119109000D01*
X118263600Y-119744000D02*
X118263600Y-118474000D01*
D12*
%TO.C,J4*%
X88131000Y-96999996D02*
G75*
G02*
X87369000Y-96999996I-381000J0D01*
G01*
X87369000Y-96999996D02*
G75*
G02*
X88131000Y-96999996I381000J0D01*
G01*
%TD*%
M02*
