%TF.GenerationSoftware,KiCad,Pcbnew,9.0.4*%
%TF.CreationDate,2025-10-18T21:08:44-05:00*%
%TF.ProjectId,Black Body,426c6163-6b20-4426-9f64-792e6b696361,rev?*%
%TF.SameCoordinates,Original*%
%TF.FileFunction,Legend,Top*%
%TF.FilePolarity,Positive*%
%FSLAX46Y46*%
G04 Gerber Fmt 4.6, Leading zero omitted, Abs format (unit mm)*
G04 Created by KiCad (PCBNEW 9.0.4) date 2025-10-18 21:08:44*
%MOMM*%
%LPD*%
G01*
G04 APERTURE LIST*
%ADD10C,0.100000*%
%ADD11C,0.150000*%
%ADD12C,0.254000*%
%ADD13C,0.120000*%
%ADD14C,0.325000*%
%ADD15C,0.152400*%
%ADD16C,0.508000*%
G04 APERTURE END LIST*
D10*
X104422931Y-88755405D02*
X104765789Y-88755405D01*
X104594360Y-89355405D02*
X104594360Y-88755405D01*
X105308646Y-89298262D02*
X105280074Y-89326834D01*
X105280074Y-89326834D02*
X105194360Y-89355405D01*
X105194360Y-89355405D02*
X105137217Y-89355405D01*
X105137217Y-89355405D02*
X105051503Y-89326834D01*
X105051503Y-89326834D02*
X104994360Y-89269691D01*
X104994360Y-89269691D02*
X104965789Y-89212548D01*
X104965789Y-89212548D02*
X104937217Y-89098262D01*
X104937217Y-89098262D02*
X104937217Y-89012548D01*
X104937217Y-89012548D02*
X104965789Y-88898262D01*
X104965789Y-88898262D02*
X104994360Y-88841119D01*
X104994360Y-88841119D02*
X105051503Y-88783976D01*
X105051503Y-88783976D02*
X105137217Y-88755405D01*
X105137217Y-88755405D02*
X105194360Y-88755405D01*
X105194360Y-88755405D02*
X105280074Y-88783976D01*
X105280074Y-88783976D02*
X105308646Y-88812548D01*
X104851503Y-90321371D02*
X104651503Y-90035657D01*
X104508646Y-90321371D02*
X104508646Y-89721371D01*
X104508646Y-89721371D02*
X104737217Y-89721371D01*
X104737217Y-89721371D02*
X104794360Y-89749942D01*
X104794360Y-89749942D02*
X104822931Y-89778514D01*
X104822931Y-89778514D02*
X104851503Y-89835657D01*
X104851503Y-89835657D02*
X104851503Y-89921371D01*
X104851503Y-89921371D02*
X104822931Y-89978514D01*
X104822931Y-89978514D02*
X104794360Y-90007085D01*
X104794360Y-90007085D02*
X104737217Y-90035657D01*
X104737217Y-90035657D02*
X104508646Y-90035657D01*
X105365789Y-90321371D02*
X105365789Y-90007085D01*
X105365789Y-90007085D02*
X105337217Y-89949942D01*
X105337217Y-89949942D02*
X105280074Y-89921371D01*
X105280074Y-89921371D02*
X105165789Y-89921371D01*
X105165789Y-89921371D02*
X105108646Y-89949942D01*
X105365789Y-90292800D02*
X105308646Y-90321371D01*
X105308646Y-90321371D02*
X105165789Y-90321371D01*
X105165789Y-90321371D02*
X105108646Y-90292800D01*
X105108646Y-90292800D02*
X105080074Y-90235657D01*
X105080074Y-90235657D02*
X105080074Y-90178514D01*
X105080074Y-90178514D02*
X105108646Y-90121371D01*
X105108646Y-90121371D02*
X105165789Y-90092800D01*
X105165789Y-90092800D02*
X105308646Y-90092800D01*
X105308646Y-90092800D02*
X105365789Y-90064228D01*
X105594360Y-89921371D02*
X105708646Y-90321371D01*
X105708646Y-90321371D02*
X105822931Y-90035657D01*
X105822931Y-90035657D02*
X105937217Y-90321371D01*
X105937217Y-90321371D02*
X106051503Y-89921371D01*
X106280074Y-90092800D02*
X106737217Y-90092800D01*
X106508645Y-90321371D02*
X106508645Y-89864228D01*
X106922931Y-88755405D02*
X107265789Y-88755405D01*
X107094360Y-89355405D02*
X107094360Y-88755405D01*
X107808646Y-89298262D02*
X107780074Y-89326834D01*
X107780074Y-89326834D02*
X107694360Y-89355405D01*
X107694360Y-89355405D02*
X107637217Y-89355405D01*
X107637217Y-89355405D02*
X107551503Y-89326834D01*
X107551503Y-89326834D02*
X107494360Y-89269691D01*
X107494360Y-89269691D02*
X107465789Y-89212548D01*
X107465789Y-89212548D02*
X107437217Y-89098262D01*
X107437217Y-89098262D02*
X107437217Y-89012548D01*
X107437217Y-89012548D02*
X107465789Y-88898262D01*
X107465789Y-88898262D02*
X107494360Y-88841119D01*
X107494360Y-88841119D02*
X107551503Y-88783976D01*
X107551503Y-88783976D02*
X107637217Y-88755405D01*
X107637217Y-88755405D02*
X107694360Y-88755405D01*
X107694360Y-88755405D02*
X107780074Y-88783976D01*
X107780074Y-88783976D02*
X107808646Y-88812548D01*
X107351503Y-90321371D02*
X107151503Y-90035657D01*
X107008646Y-90321371D02*
X107008646Y-89721371D01*
X107008646Y-89721371D02*
X107237217Y-89721371D01*
X107237217Y-89721371D02*
X107294360Y-89749942D01*
X107294360Y-89749942D02*
X107322931Y-89778514D01*
X107322931Y-89778514D02*
X107351503Y-89835657D01*
X107351503Y-89835657D02*
X107351503Y-89921371D01*
X107351503Y-89921371D02*
X107322931Y-89978514D01*
X107322931Y-89978514D02*
X107294360Y-90007085D01*
X107294360Y-90007085D02*
X107237217Y-90035657D01*
X107237217Y-90035657D02*
X107008646Y-90035657D01*
X107865789Y-90321371D02*
X107865789Y-90007085D01*
X107865789Y-90007085D02*
X107837217Y-89949942D01*
X107837217Y-89949942D02*
X107780074Y-89921371D01*
X107780074Y-89921371D02*
X107665789Y-89921371D01*
X107665789Y-89921371D02*
X107608646Y-89949942D01*
X107865789Y-90292800D02*
X107808646Y-90321371D01*
X107808646Y-90321371D02*
X107665789Y-90321371D01*
X107665789Y-90321371D02*
X107608646Y-90292800D01*
X107608646Y-90292800D02*
X107580074Y-90235657D01*
X107580074Y-90235657D02*
X107580074Y-90178514D01*
X107580074Y-90178514D02*
X107608646Y-90121371D01*
X107608646Y-90121371D02*
X107665789Y-90092800D01*
X107665789Y-90092800D02*
X107808646Y-90092800D01*
X107808646Y-90092800D02*
X107865789Y-90064228D01*
X108094360Y-89921371D02*
X108208646Y-90321371D01*
X108208646Y-90321371D02*
X108322931Y-90035657D01*
X108322931Y-90035657D02*
X108437217Y-90321371D01*
X108437217Y-90321371D02*
X108551503Y-89921371D01*
X108780074Y-90092800D02*
X109237217Y-90092800D01*
X100055405Y-97277068D02*
X100055405Y-96934211D01*
X100655405Y-97105639D02*
X100055405Y-97105639D01*
X100598262Y-96391353D02*
X100626834Y-96419925D01*
X100626834Y-96419925D02*
X100655405Y-96505639D01*
X100655405Y-96505639D02*
X100655405Y-96562782D01*
X100655405Y-96562782D02*
X100626834Y-96648496D01*
X100626834Y-96648496D02*
X100569691Y-96705639D01*
X100569691Y-96705639D02*
X100512548Y-96734210D01*
X100512548Y-96734210D02*
X100398262Y-96762782D01*
X100398262Y-96762782D02*
X100312548Y-96762782D01*
X100312548Y-96762782D02*
X100198262Y-96734210D01*
X100198262Y-96734210D02*
X100141119Y-96705639D01*
X100141119Y-96705639D02*
X100083976Y-96648496D01*
X100083976Y-96648496D02*
X100055405Y-96562782D01*
X100055405Y-96562782D02*
X100055405Y-96505639D01*
X100055405Y-96505639D02*
X100083976Y-96419925D01*
X100083976Y-96419925D02*
X100112548Y-96391353D01*
X101307085Y-96991353D02*
X101307085Y-97191353D01*
X101621371Y-97191353D02*
X101021371Y-97191353D01*
X101021371Y-97191353D02*
X101021371Y-96905639D01*
X101621371Y-96677067D02*
X101221371Y-96677067D01*
X101021371Y-96677067D02*
X101049942Y-96705639D01*
X101049942Y-96705639D02*
X101078514Y-96677067D01*
X101078514Y-96677067D02*
X101049942Y-96648496D01*
X101049942Y-96648496D02*
X101021371Y-96677067D01*
X101021371Y-96677067D02*
X101078514Y-96677067D01*
X101621371Y-96305639D02*
X101592800Y-96362782D01*
X101592800Y-96362782D02*
X101535657Y-96391353D01*
X101535657Y-96391353D02*
X101021371Y-96391353D01*
X101221371Y-96162782D02*
X101221371Y-95934210D01*
X101021371Y-96077067D02*
X101535657Y-96077067D01*
X101535657Y-96077067D02*
X101592800Y-96048496D01*
X101592800Y-96048496D02*
X101621371Y-95991353D01*
X101621371Y-95991353D02*
X101621371Y-95934210D01*
X101592800Y-95505639D02*
X101621371Y-95562782D01*
X101621371Y-95562782D02*
X101621371Y-95677068D01*
X101621371Y-95677068D02*
X101592800Y-95734210D01*
X101592800Y-95734210D02*
X101535657Y-95762782D01*
X101535657Y-95762782D02*
X101307085Y-95762782D01*
X101307085Y-95762782D02*
X101249942Y-95734210D01*
X101249942Y-95734210D02*
X101221371Y-95677068D01*
X101221371Y-95677068D02*
X101221371Y-95562782D01*
X101221371Y-95562782D02*
X101249942Y-95505639D01*
X101249942Y-95505639D02*
X101307085Y-95477068D01*
X101307085Y-95477068D02*
X101364228Y-95477068D01*
X101364228Y-95477068D02*
X101421371Y-95762782D01*
X101621371Y-95219924D02*
X101221371Y-95219924D01*
X101335657Y-95219924D02*
X101278514Y-95191353D01*
X101278514Y-95191353D02*
X101249942Y-95162782D01*
X101249942Y-95162782D02*
X101221371Y-95105639D01*
X101221371Y-95105639D02*
X101221371Y-95048496D01*
X101392800Y-94848495D02*
X101392800Y-94391353D01*
X99955405Y-100977068D02*
X99955405Y-100634211D01*
X100555405Y-100805639D02*
X99955405Y-100805639D01*
X100498262Y-100091353D02*
X100526834Y-100119925D01*
X100526834Y-100119925D02*
X100555405Y-100205639D01*
X100555405Y-100205639D02*
X100555405Y-100262782D01*
X100555405Y-100262782D02*
X100526834Y-100348496D01*
X100526834Y-100348496D02*
X100469691Y-100405639D01*
X100469691Y-100405639D02*
X100412548Y-100434210D01*
X100412548Y-100434210D02*
X100298262Y-100462782D01*
X100298262Y-100462782D02*
X100212548Y-100462782D01*
X100212548Y-100462782D02*
X100098262Y-100434210D01*
X100098262Y-100434210D02*
X100041119Y-100405639D01*
X100041119Y-100405639D02*
X99983976Y-100348496D01*
X99983976Y-100348496D02*
X99955405Y-100262782D01*
X99955405Y-100262782D02*
X99955405Y-100205639D01*
X99955405Y-100205639D02*
X99983976Y-100119925D01*
X99983976Y-100119925D02*
X100012548Y-100091353D01*
X101207085Y-100691353D02*
X101207085Y-100891353D01*
X101521371Y-100891353D02*
X100921371Y-100891353D01*
X100921371Y-100891353D02*
X100921371Y-100605639D01*
X101521371Y-100377067D02*
X101121371Y-100377067D01*
X100921371Y-100377067D02*
X100949942Y-100405639D01*
X100949942Y-100405639D02*
X100978514Y-100377067D01*
X100978514Y-100377067D02*
X100949942Y-100348496D01*
X100949942Y-100348496D02*
X100921371Y-100377067D01*
X100921371Y-100377067D02*
X100978514Y-100377067D01*
X101521371Y-100005639D02*
X101492800Y-100062782D01*
X101492800Y-100062782D02*
X101435657Y-100091353D01*
X101435657Y-100091353D02*
X100921371Y-100091353D01*
X101121371Y-99862782D02*
X101121371Y-99634210D01*
X100921371Y-99777067D02*
X101435657Y-99777067D01*
X101435657Y-99777067D02*
X101492800Y-99748496D01*
X101492800Y-99748496D02*
X101521371Y-99691353D01*
X101521371Y-99691353D02*
X101521371Y-99634210D01*
X101492800Y-99205639D02*
X101521371Y-99262782D01*
X101521371Y-99262782D02*
X101521371Y-99377068D01*
X101521371Y-99377068D02*
X101492800Y-99434210D01*
X101492800Y-99434210D02*
X101435657Y-99462782D01*
X101435657Y-99462782D02*
X101207085Y-99462782D01*
X101207085Y-99462782D02*
X101149942Y-99434210D01*
X101149942Y-99434210D02*
X101121371Y-99377068D01*
X101121371Y-99377068D02*
X101121371Y-99262782D01*
X101121371Y-99262782D02*
X101149942Y-99205639D01*
X101149942Y-99205639D02*
X101207085Y-99177068D01*
X101207085Y-99177068D02*
X101264228Y-99177068D01*
X101264228Y-99177068D02*
X101321371Y-99462782D01*
X101521371Y-98919924D02*
X101121371Y-98919924D01*
X101235657Y-98919924D02*
X101178514Y-98891353D01*
X101178514Y-98891353D02*
X101149942Y-98862782D01*
X101149942Y-98862782D02*
X101121371Y-98805639D01*
X101121371Y-98805639D02*
X101121371Y-98748496D01*
X101292800Y-98548495D02*
X101292800Y-98091353D01*
X101521371Y-98319924D02*
X101064228Y-98319924D01*
X85499122Y-106320038D02*
X85432455Y-106272419D01*
X85432455Y-106272419D02*
X85332455Y-106272419D01*
X85332455Y-106272419D02*
X85232455Y-106320038D01*
X85232455Y-106320038D02*
X85165789Y-106415276D01*
X85165789Y-106415276D02*
X85132455Y-106510514D01*
X85132455Y-106510514D02*
X85099122Y-106700990D01*
X85099122Y-106700990D02*
X85099122Y-106843847D01*
X85099122Y-106843847D02*
X85132455Y-107034323D01*
X85132455Y-107034323D02*
X85165789Y-107129561D01*
X85165789Y-107129561D02*
X85232455Y-107224800D01*
X85232455Y-107224800D02*
X85332455Y-107272419D01*
X85332455Y-107272419D02*
X85399122Y-107272419D01*
X85399122Y-107272419D02*
X85499122Y-107224800D01*
X85499122Y-107224800D02*
X85532455Y-107177180D01*
X85532455Y-107177180D02*
X85532455Y-106843847D01*
X85532455Y-106843847D02*
X85399122Y-106843847D01*
X85832455Y-107272419D02*
X85832455Y-106272419D01*
X85832455Y-106272419D02*
X86232455Y-107272419D01*
X86232455Y-107272419D02*
X86232455Y-106272419D01*
X86565788Y-107272419D02*
X86565788Y-106272419D01*
X86565788Y-106272419D02*
X86732455Y-106272419D01*
X86732455Y-106272419D02*
X86832455Y-106320038D01*
X86832455Y-106320038D02*
X86899122Y-106415276D01*
X86899122Y-106415276D02*
X86932455Y-106510514D01*
X86932455Y-106510514D02*
X86965788Y-106700990D01*
X86965788Y-106700990D02*
X86965788Y-106843847D01*
X86965788Y-106843847D02*
X86932455Y-107034323D01*
X86932455Y-107034323D02*
X86899122Y-107129561D01*
X86899122Y-107129561D02*
X86832455Y-107224800D01*
X86832455Y-107224800D02*
X86732455Y-107272419D01*
X86732455Y-107272419D02*
X86565788Y-107272419D01*
X85232455Y-108982172D02*
X85232455Y-108282172D01*
X85532455Y-108348839D02*
X85565788Y-108315505D01*
X85565788Y-108315505D02*
X85632455Y-108282172D01*
X85632455Y-108282172D02*
X85799122Y-108282172D01*
X85799122Y-108282172D02*
X85865788Y-108315505D01*
X85865788Y-108315505D02*
X85899122Y-108348839D01*
X85899122Y-108348839D02*
X85932455Y-108415505D01*
X85932455Y-108415505D02*
X85932455Y-108482172D01*
X85932455Y-108482172D02*
X85899122Y-108582172D01*
X85899122Y-108582172D02*
X85499122Y-108982172D01*
X85499122Y-108982172D02*
X85932455Y-108982172D01*
X86632455Y-108915505D02*
X86599122Y-108948839D01*
X86599122Y-108948839D02*
X86499122Y-108982172D01*
X86499122Y-108982172D02*
X86432455Y-108982172D01*
X86432455Y-108982172D02*
X86332455Y-108948839D01*
X86332455Y-108948839D02*
X86265789Y-108882172D01*
X86265789Y-108882172D02*
X86232455Y-108815505D01*
X86232455Y-108815505D02*
X86199122Y-108682172D01*
X86199122Y-108682172D02*
X86199122Y-108582172D01*
X86199122Y-108582172D02*
X86232455Y-108448839D01*
X86232455Y-108448839D02*
X86265789Y-108382172D01*
X86265789Y-108382172D02*
X86332455Y-108315505D01*
X86332455Y-108315505D02*
X86432455Y-108282172D01*
X86432455Y-108282172D02*
X86499122Y-108282172D01*
X86499122Y-108282172D02*
X86599122Y-108315505D01*
X86599122Y-108315505D02*
X86632455Y-108348839D01*
X85199122Y-110075800D02*
X85299122Y-110109133D01*
X85299122Y-110109133D02*
X85465789Y-110109133D01*
X85465789Y-110109133D02*
X85532455Y-110075800D01*
X85532455Y-110075800D02*
X85565789Y-110042466D01*
X85565789Y-110042466D02*
X85599122Y-109975800D01*
X85599122Y-109975800D02*
X85599122Y-109909133D01*
X85599122Y-109909133D02*
X85565789Y-109842466D01*
X85565789Y-109842466D02*
X85532455Y-109809133D01*
X85532455Y-109809133D02*
X85465789Y-109775800D01*
X85465789Y-109775800D02*
X85332455Y-109742466D01*
X85332455Y-109742466D02*
X85265789Y-109709133D01*
X85265789Y-109709133D02*
X85232455Y-109675800D01*
X85232455Y-109675800D02*
X85199122Y-109609133D01*
X85199122Y-109609133D02*
X85199122Y-109542466D01*
X85199122Y-109542466D02*
X85232455Y-109475800D01*
X85232455Y-109475800D02*
X85265789Y-109442466D01*
X85265789Y-109442466D02*
X85332455Y-109409133D01*
X85332455Y-109409133D02*
X85499122Y-109409133D01*
X85499122Y-109409133D02*
X85599122Y-109442466D01*
X85899122Y-110109133D02*
X85899122Y-109409133D01*
X85899122Y-109409133D02*
X86065789Y-109409133D01*
X86065789Y-109409133D02*
X86165789Y-109442466D01*
X86165789Y-109442466D02*
X86232456Y-109509133D01*
X86232456Y-109509133D02*
X86265789Y-109575800D01*
X86265789Y-109575800D02*
X86299122Y-109709133D01*
X86299122Y-109709133D02*
X86299122Y-109809133D01*
X86299122Y-109809133D02*
X86265789Y-109942466D01*
X86265789Y-109942466D02*
X86232456Y-110009133D01*
X86232456Y-110009133D02*
X86165789Y-110075800D01*
X86165789Y-110075800D02*
X86065789Y-110109133D01*
X86065789Y-110109133D02*
X85899122Y-110109133D01*
X86565789Y-109909133D02*
X86899122Y-109909133D01*
X86499122Y-110109133D02*
X86732456Y-109409133D01*
X86732456Y-109409133D02*
X86965789Y-110109133D01*
X85232455Y-111482172D02*
X85232455Y-110782172D01*
X85532455Y-110848839D02*
X85565788Y-110815505D01*
X85565788Y-110815505D02*
X85632455Y-110782172D01*
X85632455Y-110782172D02*
X85799122Y-110782172D01*
X85799122Y-110782172D02*
X85865788Y-110815505D01*
X85865788Y-110815505D02*
X85899122Y-110848839D01*
X85899122Y-110848839D02*
X85932455Y-110915505D01*
X85932455Y-110915505D02*
X85932455Y-110982172D01*
X85932455Y-110982172D02*
X85899122Y-111082172D01*
X85899122Y-111082172D02*
X85499122Y-111482172D01*
X85499122Y-111482172D02*
X85932455Y-111482172D01*
X86632455Y-111415505D02*
X86599122Y-111448839D01*
X86599122Y-111448839D02*
X86499122Y-111482172D01*
X86499122Y-111482172D02*
X86432455Y-111482172D01*
X86432455Y-111482172D02*
X86332455Y-111448839D01*
X86332455Y-111448839D02*
X86265789Y-111382172D01*
X86265789Y-111382172D02*
X86232455Y-111315505D01*
X86232455Y-111315505D02*
X86199122Y-111182172D01*
X86199122Y-111182172D02*
X86199122Y-111082172D01*
X86199122Y-111082172D02*
X86232455Y-110948839D01*
X86232455Y-110948839D02*
X86265789Y-110882172D01*
X86265789Y-110882172D02*
X86332455Y-110815505D01*
X86332455Y-110815505D02*
X86432455Y-110782172D01*
X86432455Y-110782172D02*
X86499122Y-110782172D01*
X86499122Y-110782172D02*
X86599122Y-110815505D01*
X86599122Y-110815505D02*
X86632455Y-110848839D01*
X85199122Y-112575800D02*
X85299122Y-112609133D01*
X85299122Y-112609133D02*
X85465789Y-112609133D01*
X85465789Y-112609133D02*
X85532455Y-112575800D01*
X85532455Y-112575800D02*
X85565789Y-112542466D01*
X85565789Y-112542466D02*
X85599122Y-112475800D01*
X85599122Y-112475800D02*
X85599122Y-112409133D01*
X85599122Y-112409133D02*
X85565789Y-112342466D01*
X85565789Y-112342466D02*
X85532455Y-112309133D01*
X85532455Y-112309133D02*
X85465789Y-112275800D01*
X85465789Y-112275800D02*
X85332455Y-112242466D01*
X85332455Y-112242466D02*
X85265789Y-112209133D01*
X85265789Y-112209133D02*
X85232455Y-112175800D01*
X85232455Y-112175800D02*
X85199122Y-112109133D01*
X85199122Y-112109133D02*
X85199122Y-112042466D01*
X85199122Y-112042466D02*
X85232455Y-111975800D01*
X85232455Y-111975800D02*
X85265789Y-111942466D01*
X85265789Y-111942466D02*
X85332455Y-111909133D01*
X85332455Y-111909133D02*
X85499122Y-111909133D01*
X85499122Y-111909133D02*
X85599122Y-111942466D01*
X86299122Y-112542466D02*
X86265789Y-112575800D01*
X86265789Y-112575800D02*
X86165789Y-112609133D01*
X86165789Y-112609133D02*
X86099122Y-112609133D01*
X86099122Y-112609133D02*
X85999122Y-112575800D01*
X85999122Y-112575800D02*
X85932456Y-112509133D01*
X85932456Y-112509133D02*
X85899122Y-112442466D01*
X85899122Y-112442466D02*
X85865789Y-112309133D01*
X85865789Y-112309133D02*
X85865789Y-112209133D01*
X85865789Y-112209133D02*
X85899122Y-112075800D01*
X85899122Y-112075800D02*
X85932456Y-112009133D01*
X85932456Y-112009133D02*
X85999122Y-111942466D01*
X85999122Y-111942466D02*
X86099122Y-111909133D01*
X86099122Y-111909133D02*
X86165789Y-111909133D01*
X86165789Y-111909133D02*
X86265789Y-111942466D01*
X86265789Y-111942466D02*
X86299122Y-111975800D01*
X86932456Y-112609133D02*
X86599122Y-112609133D01*
X86599122Y-112609133D02*
X86599122Y-111909133D01*
X85303884Y-114972419D02*
X85303884Y-113972419D01*
X85780074Y-114972419D02*
X85780074Y-113972419D01*
X85780074Y-113972419D02*
X86351502Y-114972419D01*
X86351502Y-114972419D02*
X86351502Y-113972419D01*
X86684836Y-113972419D02*
X87256264Y-113972419D01*
X86970550Y-114972419D02*
X86970550Y-113972419D01*
D11*
X100765350Y-71369819D02*
X100765350Y-70846009D01*
X100765350Y-70846009D02*
X100717731Y-70750771D01*
X100717731Y-70750771D02*
X100622493Y-70703152D01*
X100622493Y-70703152D02*
X100432017Y-70703152D01*
X100432017Y-70703152D02*
X100336779Y-70750771D01*
X100765350Y-71322200D02*
X100670112Y-71369819D01*
X100670112Y-71369819D02*
X100432017Y-71369819D01*
X100432017Y-71369819D02*
X100336779Y-71322200D01*
X100336779Y-71322200D02*
X100289160Y-71226961D01*
X100289160Y-71226961D02*
X100289160Y-71131723D01*
X100289160Y-71131723D02*
X100336779Y-71036485D01*
X100336779Y-71036485D02*
X100432017Y-70988866D01*
X100432017Y-70988866D02*
X100670112Y-70988866D01*
X100670112Y-70988866D02*
X100765350Y-70941247D01*
X101241541Y-70703152D02*
X101241541Y-71369819D01*
X101241541Y-70798390D02*
X101289160Y-70750771D01*
X101289160Y-70750771D02*
X101384398Y-70703152D01*
X101384398Y-70703152D02*
X101527255Y-70703152D01*
X101527255Y-70703152D02*
X101622493Y-70750771D01*
X101622493Y-70750771D02*
X101670112Y-70846009D01*
X101670112Y-70846009D02*
X101670112Y-71369819D01*
X102574874Y-71369819D02*
X102574874Y-70369819D01*
X102574874Y-71322200D02*
X102479636Y-71369819D01*
X102479636Y-71369819D02*
X102289160Y-71369819D01*
X102289160Y-71369819D02*
X102193922Y-71322200D01*
X102193922Y-71322200D02*
X102146303Y-71274580D01*
X102146303Y-71274580D02*
X102098684Y-71179342D01*
X102098684Y-71179342D02*
X102098684Y-70893628D01*
X102098684Y-70893628D02*
X102146303Y-70798390D01*
X102146303Y-70798390D02*
X102193922Y-70750771D01*
X102193922Y-70750771D02*
X102289160Y-70703152D01*
X102289160Y-70703152D02*
X102479636Y-70703152D01*
X102479636Y-70703152D02*
X102574874Y-70750771D01*
X103812970Y-71369819D02*
X103812970Y-70369819D01*
X104241541Y-71322200D02*
X104336779Y-71369819D01*
X104336779Y-71369819D02*
X104527255Y-71369819D01*
X104527255Y-71369819D02*
X104622493Y-71322200D01*
X104622493Y-71322200D02*
X104670112Y-71226961D01*
X104670112Y-71226961D02*
X104670112Y-71179342D01*
X104670112Y-71179342D02*
X104622493Y-71084104D01*
X104622493Y-71084104D02*
X104527255Y-71036485D01*
X104527255Y-71036485D02*
X104384398Y-71036485D01*
X104384398Y-71036485D02*
X104289160Y-70988866D01*
X104289160Y-70988866D02*
X104241541Y-70893628D01*
X104241541Y-70893628D02*
X104241541Y-70846009D01*
X104241541Y-70846009D02*
X104289160Y-70750771D01*
X104289160Y-70750771D02*
X104384398Y-70703152D01*
X104384398Y-70703152D02*
X104527255Y-70703152D01*
X104527255Y-70703152D02*
X104622493Y-70750771D01*
X105527255Y-71369819D02*
X105527255Y-70846009D01*
X105527255Y-70846009D02*
X105479636Y-70750771D01*
X105479636Y-70750771D02*
X105384398Y-70703152D01*
X105384398Y-70703152D02*
X105193922Y-70703152D01*
X105193922Y-70703152D02*
X105098684Y-70750771D01*
X105527255Y-71322200D02*
X105432017Y-71369819D01*
X105432017Y-71369819D02*
X105193922Y-71369819D01*
X105193922Y-71369819D02*
X105098684Y-71322200D01*
X105098684Y-71322200D02*
X105051065Y-71226961D01*
X105051065Y-71226961D02*
X105051065Y-71131723D01*
X105051065Y-71131723D02*
X105098684Y-71036485D01*
X105098684Y-71036485D02*
X105193922Y-70988866D01*
X105193922Y-70988866D02*
X105432017Y-70988866D01*
X105432017Y-70988866D02*
X105527255Y-70941247D01*
X106432017Y-71369819D02*
X106432017Y-70846009D01*
X106432017Y-70846009D02*
X106384398Y-70750771D01*
X106384398Y-70750771D02*
X106289160Y-70703152D01*
X106289160Y-70703152D02*
X106098684Y-70703152D01*
X106098684Y-70703152D02*
X106003446Y-70750771D01*
X106432017Y-71322200D02*
X106336779Y-71369819D01*
X106336779Y-71369819D02*
X106098684Y-71369819D01*
X106098684Y-71369819D02*
X106003446Y-71322200D01*
X106003446Y-71322200D02*
X105955827Y-71226961D01*
X105955827Y-71226961D02*
X105955827Y-71131723D01*
X105955827Y-71131723D02*
X106003446Y-71036485D01*
X106003446Y-71036485D02*
X106098684Y-70988866D01*
X106098684Y-70988866D02*
X106336779Y-70988866D01*
X106336779Y-70988866D02*
X106432017Y-70941247D01*
X107336779Y-71322200D02*
X107241541Y-71369819D01*
X107241541Y-71369819D02*
X107051065Y-71369819D01*
X107051065Y-71369819D02*
X106955827Y-71322200D01*
X106955827Y-71322200D02*
X106908208Y-71274580D01*
X106908208Y-71274580D02*
X106860589Y-71179342D01*
X106860589Y-71179342D02*
X106860589Y-70893628D01*
X106860589Y-70893628D02*
X106908208Y-70798390D01*
X106908208Y-70798390D02*
X106955827Y-70750771D01*
X106955827Y-70750771D02*
X107051065Y-70703152D01*
X107051065Y-70703152D02*
X107241541Y-70703152D01*
X107241541Y-70703152D02*
X107336779Y-70750771D01*
D10*
X96590384Y-86427966D02*
X97352289Y-86427966D01*
X96971336Y-86808919D02*
X96971336Y-86047014D01*
D11*
X100836779Y-69619819D02*
X100836779Y-68619819D01*
X101408207Y-69619819D02*
X100979636Y-69048390D01*
X101408207Y-68619819D02*
X100836779Y-69191247D01*
X102217731Y-69572200D02*
X102122493Y-69619819D01*
X102122493Y-69619819D02*
X101932017Y-69619819D01*
X101932017Y-69619819D02*
X101836779Y-69572200D01*
X101836779Y-69572200D02*
X101789160Y-69476961D01*
X101789160Y-69476961D02*
X101789160Y-69096009D01*
X101789160Y-69096009D02*
X101836779Y-69000771D01*
X101836779Y-69000771D02*
X101932017Y-68953152D01*
X101932017Y-68953152D02*
X102122493Y-68953152D01*
X102122493Y-68953152D02*
X102217731Y-69000771D01*
X102217731Y-69000771D02*
X102265350Y-69096009D01*
X102265350Y-69096009D02*
X102265350Y-69191247D01*
X102265350Y-69191247D02*
X101789160Y-69286485D01*
X102836779Y-69619819D02*
X102741541Y-69572200D01*
X102741541Y-69572200D02*
X102693922Y-69476961D01*
X102693922Y-69476961D02*
X102693922Y-68619819D01*
X103360589Y-69619819D02*
X103265351Y-69572200D01*
X103265351Y-69572200D02*
X103217732Y-69476961D01*
X103217732Y-69476961D02*
X103217732Y-68619819D01*
X104408209Y-68953152D02*
X104598685Y-69619819D01*
X104598685Y-69619819D02*
X104789161Y-69143628D01*
X104789161Y-69143628D02*
X104979637Y-69619819D01*
X104979637Y-69619819D02*
X105170113Y-68953152D01*
X105979637Y-68953152D02*
X105979637Y-69619819D01*
X105551066Y-68953152D02*
X105551066Y-69476961D01*
X105551066Y-69476961D02*
X105598685Y-69572200D01*
X105598685Y-69572200D02*
X105693923Y-69619819D01*
X105693923Y-69619819D02*
X105836780Y-69619819D01*
X105836780Y-69619819D02*
X105932018Y-69572200D01*
X105932018Y-69572200D02*
X105979637Y-69524580D01*
X106360590Y-68953152D02*
X106884399Y-68953152D01*
X106884399Y-68953152D02*
X106360590Y-69619819D01*
X106360590Y-69619819D02*
X106884399Y-69619819D01*
X108027257Y-69619819D02*
X108027257Y-68619819D01*
X108455828Y-69619819D02*
X108455828Y-69096009D01*
X108455828Y-69096009D02*
X108408209Y-69000771D01*
X108408209Y-69000771D02*
X108312971Y-68953152D01*
X108312971Y-68953152D02*
X108170114Y-68953152D01*
X108170114Y-68953152D02*
X108074876Y-69000771D01*
X108074876Y-69000771D02*
X108027257Y-69048390D01*
X109312971Y-69572200D02*
X109217733Y-69619819D01*
X109217733Y-69619819D02*
X109027257Y-69619819D01*
X109027257Y-69619819D02*
X108932019Y-69572200D01*
X108932019Y-69572200D02*
X108884400Y-69476961D01*
X108884400Y-69476961D02*
X108884400Y-69096009D01*
X108884400Y-69096009D02*
X108932019Y-69000771D01*
X108932019Y-69000771D02*
X109027257Y-68953152D01*
X109027257Y-68953152D02*
X109217733Y-68953152D01*
X109217733Y-68953152D02*
X109312971Y-69000771D01*
X109312971Y-69000771D02*
X109360590Y-69096009D01*
X109360590Y-69096009D02*
X109360590Y-69191247D01*
X109360590Y-69191247D02*
X108884400Y-69286485D01*
X109789162Y-69619819D02*
X109789162Y-68953152D01*
X109789162Y-69143628D02*
X109836781Y-69048390D01*
X109836781Y-69048390D02*
X109884400Y-69000771D01*
X109884400Y-69000771D02*
X109979638Y-68953152D01*
X109979638Y-68953152D02*
X110074876Y-68953152D01*
X110789162Y-69572200D02*
X110693924Y-69619819D01*
X110693924Y-69619819D02*
X110503448Y-69619819D01*
X110503448Y-69619819D02*
X110408210Y-69572200D01*
X110408210Y-69572200D02*
X110360591Y-69476961D01*
X110360591Y-69476961D02*
X110360591Y-69096009D01*
X110360591Y-69096009D02*
X110408210Y-69000771D01*
X110408210Y-69000771D02*
X110503448Y-68953152D01*
X110503448Y-68953152D02*
X110693924Y-68953152D01*
X110693924Y-68953152D02*
X110789162Y-69000771D01*
X110789162Y-69000771D02*
X110836781Y-69096009D01*
X110836781Y-69096009D02*
X110836781Y-69191247D01*
X110836781Y-69191247D02*
X110360591Y-69286485D01*
X110166666Y-90816033D02*
X110166666Y-90116033D01*
X110466666Y-90182700D02*
X110499999Y-90149366D01*
X110499999Y-90149366D02*
X110566666Y-90116033D01*
X110566666Y-90116033D02*
X110733333Y-90116033D01*
X110733333Y-90116033D02*
X110799999Y-90149366D01*
X110799999Y-90149366D02*
X110833333Y-90182700D01*
X110833333Y-90182700D02*
X110866666Y-90249366D01*
X110866666Y-90249366D02*
X110866666Y-90316033D01*
X110866666Y-90316033D02*
X110833333Y-90416033D01*
X110833333Y-90416033D02*
X110433333Y-90816033D01*
X110433333Y-90816033D02*
X110866666Y-90816033D01*
X111566666Y-90749366D02*
X111533333Y-90782700D01*
X111533333Y-90782700D02*
X111433333Y-90816033D01*
X111433333Y-90816033D02*
X111366666Y-90816033D01*
X111366666Y-90816033D02*
X111266666Y-90782700D01*
X111266666Y-90782700D02*
X111200000Y-90716033D01*
X111200000Y-90716033D02*
X111166666Y-90649366D01*
X111166666Y-90649366D02*
X111133333Y-90516033D01*
X111133333Y-90516033D02*
X111133333Y-90416033D01*
X111133333Y-90416033D02*
X111166666Y-90282700D01*
X111166666Y-90282700D02*
X111200000Y-90216033D01*
X111200000Y-90216033D02*
X111266666Y-90149366D01*
X111266666Y-90149366D02*
X111366666Y-90116033D01*
X111366666Y-90116033D02*
X111433333Y-90116033D01*
X111433333Y-90116033D02*
X111533333Y-90149366D01*
X111533333Y-90149366D02*
X111566666Y-90182700D01*
X111700000Y-90882700D02*
X112233333Y-90882700D01*
X112366666Y-90782700D02*
X112466666Y-90816033D01*
X112466666Y-90816033D02*
X112633333Y-90816033D01*
X112633333Y-90816033D02*
X112699999Y-90782700D01*
X112699999Y-90782700D02*
X112733333Y-90749366D01*
X112733333Y-90749366D02*
X112766666Y-90682700D01*
X112766666Y-90682700D02*
X112766666Y-90616033D01*
X112766666Y-90616033D02*
X112733333Y-90549366D01*
X112733333Y-90549366D02*
X112699999Y-90516033D01*
X112699999Y-90516033D02*
X112633333Y-90482700D01*
X112633333Y-90482700D02*
X112499999Y-90449366D01*
X112499999Y-90449366D02*
X112433333Y-90416033D01*
X112433333Y-90416033D02*
X112399999Y-90382700D01*
X112399999Y-90382700D02*
X112366666Y-90316033D01*
X112366666Y-90316033D02*
X112366666Y-90249366D01*
X112366666Y-90249366D02*
X112399999Y-90182700D01*
X112399999Y-90182700D02*
X112433333Y-90149366D01*
X112433333Y-90149366D02*
X112499999Y-90116033D01*
X112499999Y-90116033D02*
X112666666Y-90116033D01*
X112666666Y-90116033D02*
X112766666Y-90149366D01*
X113066666Y-90816033D02*
X113066666Y-90116033D01*
X113066666Y-90116033D02*
X113233333Y-90116033D01*
X113233333Y-90116033D02*
X113333333Y-90149366D01*
X113333333Y-90149366D02*
X113400000Y-90216033D01*
X113400000Y-90216033D02*
X113433333Y-90282700D01*
X113433333Y-90282700D02*
X113466666Y-90416033D01*
X113466666Y-90416033D02*
X113466666Y-90516033D01*
X113466666Y-90516033D02*
X113433333Y-90649366D01*
X113433333Y-90649366D02*
X113400000Y-90716033D01*
X113400000Y-90716033D02*
X113333333Y-90782700D01*
X113333333Y-90782700D02*
X113233333Y-90816033D01*
X113233333Y-90816033D02*
X113066666Y-90816033D01*
X113733333Y-90616033D02*
X114066666Y-90616033D01*
X113666666Y-90816033D02*
X113900000Y-90116033D01*
X113900000Y-90116033D02*
X114133333Y-90816033D01*
X116095238Y-104754819D02*
X116095238Y-103754819D01*
X116571428Y-104754819D02*
X116571428Y-103754819D01*
X116571428Y-103754819D02*
X117142856Y-104754819D01*
X117142856Y-104754819D02*
X117142856Y-103754819D01*
X117476190Y-103754819D02*
X118047618Y-103754819D01*
X117761904Y-104754819D02*
X117761904Y-103754819D01*
X114683333Y-90816033D02*
X114683333Y-90116033D01*
X114983333Y-90182700D02*
X115016666Y-90149366D01*
X115016666Y-90149366D02*
X115083333Y-90116033D01*
X115083333Y-90116033D02*
X115250000Y-90116033D01*
X115250000Y-90116033D02*
X115316666Y-90149366D01*
X115316666Y-90149366D02*
X115350000Y-90182700D01*
X115350000Y-90182700D02*
X115383333Y-90249366D01*
X115383333Y-90249366D02*
X115383333Y-90316033D01*
X115383333Y-90316033D02*
X115350000Y-90416033D01*
X115350000Y-90416033D02*
X114950000Y-90816033D01*
X114950000Y-90816033D02*
X115383333Y-90816033D01*
X116083333Y-90749366D02*
X116050000Y-90782700D01*
X116050000Y-90782700D02*
X115950000Y-90816033D01*
X115950000Y-90816033D02*
X115883333Y-90816033D01*
X115883333Y-90816033D02*
X115783333Y-90782700D01*
X115783333Y-90782700D02*
X115716667Y-90716033D01*
X115716667Y-90716033D02*
X115683333Y-90649366D01*
X115683333Y-90649366D02*
X115650000Y-90516033D01*
X115650000Y-90516033D02*
X115650000Y-90416033D01*
X115650000Y-90416033D02*
X115683333Y-90282700D01*
X115683333Y-90282700D02*
X115716667Y-90216033D01*
X115716667Y-90216033D02*
X115783333Y-90149366D01*
X115783333Y-90149366D02*
X115883333Y-90116033D01*
X115883333Y-90116033D02*
X115950000Y-90116033D01*
X115950000Y-90116033D02*
X116050000Y-90149366D01*
X116050000Y-90149366D02*
X116083333Y-90182700D01*
X116216667Y-90882700D02*
X116750000Y-90882700D01*
X116883333Y-90782700D02*
X116983333Y-90816033D01*
X116983333Y-90816033D02*
X117150000Y-90816033D01*
X117150000Y-90816033D02*
X117216666Y-90782700D01*
X117216666Y-90782700D02*
X117250000Y-90749366D01*
X117250000Y-90749366D02*
X117283333Y-90682700D01*
X117283333Y-90682700D02*
X117283333Y-90616033D01*
X117283333Y-90616033D02*
X117250000Y-90549366D01*
X117250000Y-90549366D02*
X117216666Y-90516033D01*
X117216666Y-90516033D02*
X117150000Y-90482700D01*
X117150000Y-90482700D02*
X117016666Y-90449366D01*
X117016666Y-90449366D02*
X116950000Y-90416033D01*
X116950000Y-90416033D02*
X116916666Y-90382700D01*
X116916666Y-90382700D02*
X116883333Y-90316033D01*
X116883333Y-90316033D02*
X116883333Y-90249366D01*
X116883333Y-90249366D02*
X116916666Y-90182700D01*
X116916666Y-90182700D02*
X116950000Y-90149366D01*
X116950000Y-90149366D02*
X117016666Y-90116033D01*
X117016666Y-90116033D02*
X117183333Y-90116033D01*
X117183333Y-90116033D02*
X117283333Y-90149366D01*
X117983333Y-90749366D02*
X117950000Y-90782700D01*
X117950000Y-90782700D02*
X117850000Y-90816033D01*
X117850000Y-90816033D02*
X117783333Y-90816033D01*
X117783333Y-90816033D02*
X117683333Y-90782700D01*
X117683333Y-90782700D02*
X117616667Y-90716033D01*
X117616667Y-90716033D02*
X117583333Y-90649366D01*
X117583333Y-90649366D02*
X117550000Y-90516033D01*
X117550000Y-90516033D02*
X117550000Y-90416033D01*
X117550000Y-90416033D02*
X117583333Y-90282700D01*
X117583333Y-90282700D02*
X117616667Y-90216033D01*
X117616667Y-90216033D02*
X117683333Y-90149366D01*
X117683333Y-90149366D02*
X117783333Y-90116033D01*
X117783333Y-90116033D02*
X117850000Y-90116033D01*
X117850000Y-90116033D02*
X117950000Y-90149366D01*
X117950000Y-90149366D02*
X117983333Y-90182700D01*
X118616667Y-90816033D02*
X118283333Y-90816033D01*
X118283333Y-90816033D02*
X118283333Y-90116033D01*
X109166667Y-86906819D02*
X109500000Y-87906819D01*
X109500000Y-87906819D02*
X109833333Y-86906819D01*
X110738095Y-87811580D02*
X110690476Y-87859200D01*
X110690476Y-87859200D02*
X110547619Y-87906819D01*
X110547619Y-87906819D02*
X110452381Y-87906819D01*
X110452381Y-87906819D02*
X110309524Y-87859200D01*
X110309524Y-87859200D02*
X110214286Y-87763961D01*
X110214286Y-87763961D02*
X110166667Y-87668723D01*
X110166667Y-87668723D02*
X110119048Y-87478247D01*
X110119048Y-87478247D02*
X110119048Y-87335390D01*
X110119048Y-87335390D02*
X110166667Y-87144914D01*
X110166667Y-87144914D02*
X110214286Y-87049676D01*
X110214286Y-87049676D02*
X110309524Y-86954438D01*
X110309524Y-86954438D02*
X110452381Y-86906819D01*
X110452381Y-86906819D02*
X110547619Y-86906819D01*
X110547619Y-86906819D02*
X110690476Y-86954438D01*
X110690476Y-86954438D02*
X110738095Y-87002057D01*
X111738095Y-87811580D02*
X111690476Y-87859200D01*
X111690476Y-87859200D02*
X111547619Y-87906819D01*
X111547619Y-87906819D02*
X111452381Y-87906819D01*
X111452381Y-87906819D02*
X111309524Y-87859200D01*
X111309524Y-87859200D02*
X111214286Y-87763961D01*
X111214286Y-87763961D02*
X111166667Y-87668723D01*
X111166667Y-87668723D02*
X111119048Y-87478247D01*
X111119048Y-87478247D02*
X111119048Y-87335390D01*
X111119048Y-87335390D02*
X111166667Y-87144914D01*
X111166667Y-87144914D02*
X111214286Y-87049676D01*
X111214286Y-87049676D02*
X111309524Y-86954438D01*
X111309524Y-86954438D02*
X111452381Y-86906819D01*
X111452381Y-86906819D02*
X111547619Y-86906819D01*
X111547619Y-86906819D02*
X111690476Y-86954438D01*
X111690476Y-86954438D02*
X111738095Y-87002057D01*
X123338095Y-100902438D02*
X123242857Y-100854819D01*
X123242857Y-100854819D02*
X123100000Y-100854819D01*
X123100000Y-100854819D02*
X122957143Y-100902438D01*
X122957143Y-100902438D02*
X122861905Y-100997676D01*
X122861905Y-100997676D02*
X122814286Y-101092914D01*
X122814286Y-101092914D02*
X122766667Y-101283390D01*
X122766667Y-101283390D02*
X122766667Y-101426247D01*
X122766667Y-101426247D02*
X122814286Y-101616723D01*
X122814286Y-101616723D02*
X122861905Y-101711961D01*
X122861905Y-101711961D02*
X122957143Y-101807200D01*
X122957143Y-101807200D02*
X123100000Y-101854819D01*
X123100000Y-101854819D02*
X123195238Y-101854819D01*
X123195238Y-101854819D02*
X123338095Y-101807200D01*
X123338095Y-101807200D02*
X123385714Y-101759580D01*
X123385714Y-101759580D02*
X123385714Y-101426247D01*
X123385714Y-101426247D02*
X123195238Y-101426247D01*
X123814286Y-101854819D02*
X123814286Y-100854819D01*
X123814286Y-100854819D02*
X124385714Y-101854819D01*
X124385714Y-101854819D02*
X124385714Y-100854819D01*
X124861905Y-101854819D02*
X124861905Y-100854819D01*
X124861905Y-100854819D02*
X125100000Y-100854819D01*
X125100000Y-100854819D02*
X125242857Y-100902438D01*
X125242857Y-100902438D02*
X125338095Y-100997676D01*
X125338095Y-100997676D02*
X125385714Y-101092914D01*
X125385714Y-101092914D02*
X125433333Y-101283390D01*
X125433333Y-101283390D02*
X125433333Y-101426247D01*
X125433333Y-101426247D02*
X125385714Y-101616723D01*
X125385714Y-101616723D02*
X125338095Y-101711961D01*
X125338095Y-101711961D02*
X125242857Y-101807200D01*
X125242857Y-101807200D02*
X125100000Y-101854819D01*
X125100000Y-101854819D02*
X124861905Y-101854819D01*
X112444642Y-102554819D02*
X112111309Y-102078628D01*
X111873214Y-102554819D02*
X111873214Y-101554819D01*
X111873214Y-101554819D02*
X112254166Y-101554819D01*
X112254166Y-101554819D02*
X112349404Y-101602438D01*
X112349404Y-101602438D02*
X112397023Y-101650057D01*
X112397023Y-101650057D02*
X112444642Y-101745295D01*
X112444642Y-101745295D02*
X112444642Y-101888152D01*
X112444642Y-101888152D02*
X112397023Y-101983390D01*
X112397023Y-101983390D02*
X112349404Y-102031009D01*
X112349404Y-102031009D02*
X112254166Y-102078628D01*
X112254166Y-102078628D02*
X111873214Y-102078628D01*
X113397023Y-102554819D02*
X112825595Y-102554819D01*
X113111309Y-102554819D02*
X113111309Y-101554819D01*
X113111309Y-101554819D02*
X113016071Y-101697676D01*
X113016071Y-101697676D02*
X112920833Y-101792914D01*
X112920833Y-101792914D02*
X112825595Y-101840533D01*
X114349404Y-102554819D02*
X113777976Y-102554819D01*
X114063690Y-102554819D02*
X114063690Y-101554819D01*
X114063690Y-101554819D02*
X113968452Y-101697676D01*
X113968452Y-101697676D02*
X113873214Y-101792914D01*
X113873214Y-101792914D02*
X113777976Y-101840533D01*
X111754762Y-112362295D02*
X111488095Y-111981342D01*
X111297619Y-112362295D02*
X111297619Y-111562295D01*
X111297619Y-111562295D02*
X111602381Y-111562295D01*
X111602381Y-111562295D02*
X111678571Y-111600390D01*
X111678571Y-111600390D02*
X111716666Y-111638485D01*
X111716666Y-111638485D02*
X111754762Y-111714676D01*
X111754762Y-111714676D02*
X111754762Y-111828961D01*
X111754762Y-111828961D02*
X111716666Y-111905152D01*
X111716666Y-111905152D02*
X111678571Y-111943247D01*
X111678571Y-111943247D02*
X111602381Y-111981342D01*
X111602381Y-111981342D02*
X111297619Y-111981342D01*
X112097619Y-112362295D02*
X112097619Y-111562295D01*
X112097619Y-111867057D02*
X112173809Y-111828961D01*
X112173809Y-111828961D02*
X112326190Y-111828961D01*
X112326190Y-111828961D02*
X112402381Y-111867057D01*
X112402381Y-111867057D02*
X112440476Y-111905152D01*
X112440476Y-111905152D02*
X112478571Y-111981342D01*
X112478571Y-111981342D02*
X112478571Y-112209914D01*
X112478571Y-112209914D02*
X112440476Y-112286104D01*
X112440476Y-112286104D02*
X112402381Y-112324200D01*
X112402381Y-112324200D02*
X112326190Y-112362295D01*
X112326190Y-112362295D02*
X112173809Y-112362295D01*
X112173809Y-112362295D02*
X112097619Y-112324200D01*
X113240476Y-112362295D02*
X112783333Y-112362295D01*
X113011905Y-112362295D02*
X113011905Y-111562295D01*
X113011905Y-111562295D02*
X112935714Y-111676580D01*
X112935714Y-111676580D02*
X112859524Y-111752771D01*
X112859524Y-111752771D02*
X112783333Y-111790866D01*
D12*
X105335237Y-109174318D02*
X105335237Y-107904318D01*
X106665714Y-109053365D02*
X106605238Y-109113842D01*
X106605238Y-109113842D02*
X106423809Y-109174318D01*
X106423809Y-109174318D02*
X106302857Y-109174318D01*
X106302857Y-109174318D02*
X106121428Y-109113842D01*
X106121428Y-109113842D02*
X106000476Y-108992889D01*
X106000476Y-108992889D02*
X105939999Y-108871937D01*
X105939999Y-108871937D02*
X105879523Y-108630032D01*
X105879523Y-108630032D02*
X105879523Y-108448603D01*
X105879523Y-108448603D02*
X105939999Y-108206699D01*
X105939999Y-108206699D02*
X106000476Y-108085746D01*
X106000476Y-108085746D02*
X106121428Y-107964794D01*
X106121428Y-107964794D02*
X106302857Y-107904318D01*
X106302857Y-107904318D02*
X106423809Y-107904318D01*
X106423809Y-107904318D02*
X106605238Y-107964794D01*
X106605238Y-107964794D02*
X106665714Y-108025270D01*
X107149523Y-108025270D02*
X107209999Y-107964794D01*
X107209999Y-107964794D02*
X107330952Y-107904318D01*
X107330952Y-107904318D02*
X107633333Y-107904318D01*
X107633333Y-107904318D02*
X107754285Y-107964794D01*
X107754285Y-107964794D02*
X107814761Y-108025270D01*
X107814761Y-108025270D02*
X107875238Y-108146222D01*
X107875238Y-108146222D02*
X107875238Y-108267175D01*
X107875238Y-108267175D02*
X107814761Y-108448603D01*
X107814761Y-108448603D02*
X107089047Y-109174318D01*
X107089047Y-109174318D02*
X107875238Y-109174318D01*
D11*
X106466667Y-101486104D02*
X106428571Y-101524200D01*
X106428571Y-101524200D02*
X106314286Y-101562295D01*
X106314286Y-101562295D02*
X106238095Y-101562295D01*
X106238095Y-101562295D02*
X106123809Y-101524200D01*
X106123809Y-101524200D02*
X106047619Y-101448009D01*
X106047619Y-101448009D02*
X106009524Y-101371819D01*
X106009524Y-101371819D02*
X105971428Y-101219438D01*
X105971428Y-101219438D02*
X105971428Y-101105152D01*
X105971428Y-101105152D02*
X106009524Y-100952771D01*
X106009524Y-100952771D02*
X106047619Y-100876580D01*
X106047619Y-100876580D02*
X106123809Y-100800390D01*
X106123809Y-100800390D02*
X106238095Y-100762295D01*
X106238095Y-100762295D02*
X106314286Y-100762295D01*
X106314286Y-100762295D02*
X106428571Y-100800390D01*
X106428571Y-100800390D02*
X106466667Y-100838485D01*
X106733333Y-100762295D02*
X107228571Y-100762295D01*
X107228571Y-100762295D02*
X106961905Y-101067057D01*
X106961905Y-101067057D02*
X107076190Y-101067057D01*
X107076190Y-101067057D02*
X107152381Y-101105152D01*
X107152381Y-101105152D02*
X107190476Y-101143247D01*
X107190476Y-101143247D02*
X107228571Y-101219438D01*
X107228571Y-101219438D02*
X107228571Y-101409914D01*
X107228571Y-101409914D02*
X107190476Y-101486104D01*
X107190476Y-101486104D02*
X107152381Y-101524200D01*
X107152381Y-101524200D02*
X107076190Y-101562295D01*
X107076190Y-101562295D02*
X106847619Y-101562295D01*
X106847619Y-101562295D02*
X106771428Y-101524200D01*
X106771428Y-101524200D02*
X106733333Y-101486104D01*
X109133333Y-100954819D02*
X108800000Y-100478628D01*
X108561905Y-100954819D02*
X108561905Y-99954819D01*
X108561905Y-99954819D02*
X108942857Y-99954819D01*
X108942857Y-99954819D02*
X109038095Y-100002438D01*
X109038095Y-100002438D02*
X109085714Y-100050057D01*
X109085714Y-100050057D02*
X109133333Y-100145295D01*
X109133333Y-100145295D02*
X109133333Y-100288152D01*
X109133333Y-100288152D02*
X109085714Y-100383390D01*
X109085714Y-100383390D02*
X109038095Y-100431009D01*
X109038095Y-100431009D02*
X108942857Y-100478628D01*
X108942857Y-100478628D02*
X108561905Y-100478628D01*
X109609524Y-100954819D02*
X109800000Y-100954819D01*
X109800000Y-100954819D02*
X109895238Y-100907200D01*
X109895238Y-100907200D02*
X109942857Y-100859580D01*
X109942857Y-100859580D02*
X110038095Y-100716723D01*
X110038095Y-100716723D02*
X110085714Y-100526247D01*
X110085714Y-100526247D02*
X110085714Y-100145295D01*
X110085714Y-100145295D02*
X110038095Y-100050057D01*
X110038095Y-100050057D02*
X109990476Y-100002438D01*
X109990476Y-100002438D02*
X109895238Y-99954819D01*
X109895238Y-99954819D02*
X109704762Y-99954819D01*
X109704762Y-99954819D02*
X109609524Y-100002438D01*
X109609524Y-100002438D02*
X109561905Y-100050057D01*
X109561905Y-100050057D02*
X109514286Y-100145295D01*
X109514286Y-100145295D02*
X109514286Y-100383390D01*
X109514286Y-100383390D02*
X109561905Y-100478628D01*
X109561905Y-100478628D02*
X109609524Y-100526247D01*
X109609524Y-100526247D02*
X109704762Y-100573866D01*
X109704762Y-100573866D02*
X109895238Y-100573866D01*
X109895238Y-100573866D02*
X109990476Y-100526247D01*
X109990476Y-100526247D02*
X110038095Y-100478628D01*
X110038095Y-100478628D02*
X110085714Y-100383390D01*
X115112295Y-112616666D02*
X114731342Y-112849999D01*
X115112295Y-113016666D02*
X114312295Y-113016666D01*
X114312295Y-113016666D02*
X114312295Y-112749999D01*
X114312295Y-112749999D02*
X114350390Y-112683333D01*
X114350390Y-112683333D02*
X114388485Y-112649999D01*
X114388485Y-112649999D02*
X114464676Y-112616666D01*
X114464676Y-112616666D02*
X114578961Y-112616666D01*
X114578961Y-112616666D02*
X114655152Y-112649999D01*
X114655152Y-112649999D02*
X114693247Y-112683333D01*
X114693247Y-112683333D02*
X114731342Y-112749999D01*
X114731342Y-112749999D02*
X114731342Y-113016666D01*
X114312295Y-112383333D02*
X114312295Y-111916666D01*
X114312295Y-111916666D02*
X115112295Y-112216666D01*
X109256819Y-98516666D02*
X108780628Y-98849999D01*
X109256819Y-99088094D02*
X108256819Y-99088094D01*
X108256819Y-99088094D02*
X108256819Y-98707142D01*
X108256819Y-98707142D02*
X108304438Y-98611904D01*
X108304438Y-98611904D02*
X108352057Y-98564285D01*
X108352057Y-98564285D02*
X108447295Y-98516666D01*
X108447295Y-98516666D02*
X108590152Y-98516666D01*
X108590152Y-98516666D02*
X108685390Y-98564285D01*
X108685390Y-98564285D02*
X108733009Y-98611904D01*
X108733009Y-98611904D02*
X108780628Y-98707142D01*
X108780628Y-98707142D02*
X108780628Y-99088094D01*
X108256819Y-97659523D02*
X108256819Y-97849999D01*
X108256819Y-97849999D02*
X108304438Y-97945237D01*
X108304438Y-97945237D02*
X108352057Y-97992856D01*
X108352057Y-97992856D02*
X108494914Y-98088094D01*
X108494914Y-98088094D02*
X108685390Y-98135713D01*
X108685390Y-98135713D02*
X109066342Y-98135713D01*
X109066342Y-98135713D02*
X109161580Y-98088094D01*
X109161580Y-98088094D02*
X109209200Y-98040475D01*
X109209200Y-98040475D02*
X109256819Y-97945237D01*
X109256819Y-97945237D02*
X109256819Y-97754761D01*
X109256819Y-97754761D02*
X109209200Y-97659523D01*
X109209200Y-97659523D02*
X109161580Y-97611904D01*
X109161580Y-97611904D02*
X109066342Y-97564285D01*
X109066342Y-97564285D02*
X108828247Y-97564285D01*
X108828247Y-97564285D02*
X108733009Y-97611904D01*
X108733009Y-97611904D02*
X108685390Y-97659523D01*
X108685390Y-97659523D02*
X108637771Y-97754761D01*
X108637771Y-97754761D02*
X108637771Y-97945237D01*
X108637771Y-97945237D02*
X108685390Y-98040475D01*
X108685390Y-98040475D02*
X108733009Y-98088094D01*
X108733009Y-98088094D02*
X108828247Y-98135713D01*
X104243247Y-95166666D02*
X104243247Y-95433332D01*
X104662295Y-95433332D02*
X103862295Y-95433332D01*
X103862295Y-95433332D02*
X103862295Y-95052380D01*
X104243247Y-94480952D02*
X104281342Y-94366666D01*
X104281342Y-94366666D02*
X104319438Y-94328571D01*
X104319438Y-94328571D02*
X104395628Y-94290475D01*
X104395628Y-94290475D02*
X104509914Y-94290475D01*
X104509914Y-94290475D02*
X104586104Y-94328571D01*
X104586104Y-94328571D02*
X104624200Y-94366666D01*
X104624200Y-94366666D02*
X104662295Y-94442856D01*
X104662295Y-94442856D02*
X104662295Y-94747618D01*
X104662295Y-94747618D02*
X103862295Y-94747618D01*
X103862295Y-94747618D02*
X103862295Y-94480952D01*
X103862295Y-94480952D02*
X103900390Y-94404761D01*
X103900390Y-94404761D02*
X103938485Y-94366666D01*
X103938485Y-94366666D02*
X104014676Y-94328571D01*
X104014676Y-94328571D02*
X104090866Y-94328571D01*
X104090866Y-94328571D02*
X104167057Y-94366666D01*
X104167057Y-94366666D02*
X104205152Y-94404761D01*
X104205152Y-94404761D02*
X104243247Y-94480952D01*
X104243247Y-94480952D02*
X104243247Y-94747618D01*
X104662295Y-93528571D02*
X104662295Y-93985714D01*
X104662295Y-93757142D02*
X103862295Y-93757142D01*
X103862295Y-93757142D02*
X103976580Y-93833333D01*
X103976580Y-93833333D02*
X104052771Y-93909523D01*
X104052771Y-93909523D02*
X104090866Y-93985714D01*
X122414285Y-110862295D02*
X122414285Y-110062295D01*
X122414285Y-110443247D02*
X122871428Y-110443247D01*
X122871428Y-110862295D02*
X122871428Y-110062295D01*
X123557142Y-110824200D02*
X123480951Y-110862295D01*
X123480951Y-110862295D02*
X123328570Y-110862295D01*
X123328570Y-110862295D02*
X123252380Y-110824200D01*
X123252380Y-110824200D02*
X123214284Y-110748009D01*
X123214284Y-110748009D02*
X123214284Y-110443247D01*
X123214284Y-110443247D02*
X123252380Y-110367057D01*
X123252380Y-110367057D02*
X123328570Y-110328961D01*
X123328570Y-110328961D02*
X123480951Y-110328961D01*
X123480951Y-110328961D02*
X123557142Y-110367057D01*
X123557142Y-110367057D02*
X123595237Y-110443247D01*
X123595237Y-110443247D02*
X123595237Y-110519438D01*
X123595237Y-110519438D02*
X123214284Y-110595628D01*
X124280951Y-110862295D02*
X124280951Y-110443247D01*
X124280951Y-110443247D02*
X124242856Y-110367057D01*
X124242856Y-110367057D02*
X124166665Y-110328961D01*
X124166665Y-110328961D02*
X124014284Y-110328961D01*
X124014284Y-110328961D02*
X123938094Y-110367057D01*
X124280951Y-110824200D02*
X124204760Y-110862295D01*
X124204760Y-110862295D02*
X124014284Y-110862295D01*
X124014284Y-110862295D02*
X123938094Y-110824200D01*
X123938094Y-110824200D02*
X123899998Y-110748009D01*
X123899998Y-110748009D02*
X123899998Y-110671819D01*
X123899998Y-110671819D02*
X123938094Y-110595628D01*
X123938094Y-110595628D02*
X124014284Y-110557533D01*
X124014284Y-110557533D02*
X124204760Y-110557533D01*
X124204760Y-110557533D02*
X124280951Y-110519438D01*
X124661904Y-110862295D02*
X124661904Y-110328961D01*
X124661904Y-110481342D02*
X124699999Y-110405152D01*
X124699999Y-110405152D02*
X124738094Y-110367057D01*
X124738094Y-110367057D02*
X124814285Y-110328961D01*
X124814285Y-110328961D02*
X124890475Y-110328961D01*
X125042856Y-110328961D02*
X125347618Y-110328961D01*
X125157142Y-110062295D02*
X125157142Y-110748009D01*
X125157142Y-110748009D02*
X125195237Y-110824200D01*
X125195237Y-110824200D02*
X125271427Y-110862295D01*
X125271427Y-110862295D02*
X125347618Y-110862295D01*
X125614285Y-110862295D02*
X125614285Y-110062295D01*
X125614285Y-110367057D02*
X125690475Y-110328961D01*
X125690475Y-110328961D02*
X125842856Y-110328961D01*
X125842856Y-110328961D02*
X125919047Y-110367057D01*
X125919047Y-110367057D02*
X125957142Y-110405152D01*
X125957142Y-110405152D02*
X125995237Y-110481342D01*
X125995237Y-110481342D02*
X125995237Y-110709914D01*
X125995237Y-110709914D02*
X125957142Y-110786104D01*
X125957142Y-110786104D02*
X125919047Y-110824200D01*
X125919047Y-110824200D02*
X125842856Y-110862295D01*
X125842856Y-110862295D02*
X125690475Y-110862295D01*
X125690475Y-110862295D02*
X125614285Y-110824200D01*
X126642857Y-110824200D02*
X126566666Y-110862295D01*
X126566666Y-110862295D02*
X126414285Y-110862295D01*
X126414285Y-110862295D02*
X126338095Y-110824200D01*
X126338095Y-110824200D02*
X126299999Y-110748009D01*
X126299999Y-110748009D02*
X126299999Y-110443247D01*
X126299999Y-110443247D02*
X126338095Y-110367057D01*
X126338095Y-110367057D02*
X126414285Y-110328961D01*
X126414285Y-110328961D02*
X126566666Y-110328961D01*
X126566666Y-110328961D02*
X126642857Y-110367057D01*
X126642857Y-110367057D02*
X126680952Y-110443247D01*
X126680952Y-110443247D02*
X126680952Y-110519438D01*
X126680952Y-110519438D02*
X126299999Y-110595628D01*
X127366666Y-110862295D02*
X127366666Y-110443247D01*
X127366666Y-110443247D02*
X127328571Y-110367057D01*
X127328571Y-110367057D02*
X127252380Y-110328961D01*
X127252380Y-110328961D02*
X127099999Y-110328961D01*
X127099999Y-110328961D02*
X127023809Y-110367057D01*
X127366666Y-110824200D02*
X127290475Y-110862295D01*
X127290475Y-110862295D02*
X127099999Y-110862295D01*
X127099999Y-110862295D02*
X127023809Y-110824200D01*
X127023809Y-110824200D02*
X126985713Y-110748009D01*
X126985713Y-110748009D02*
X126985713Y-110671819D01*
X126985713Y-110671819D02*
X127023809Y-110595628D01*
X127023809Y-110595628D02*
X127099999Y-110557533D01*
X127099999Y-110557533D02*
X127290475Y-110557533D01*
X127290475Y-110557533D02*
X127366666Y-110519438D01*
X127633333Y-110328961D02*
X127938095Y-110328961D01*
X127747619Y-110062295D02*
X127747619Y-110748009D01*
X127747619Y-110748009D02*
X127785714Y-110824200D01*
X127785714Y-110824200D02*
X127861904Y-110862295D01*
X127861904Y-110862295D02*
X127938095Y-110862295D01*
X128623809Y-110862295D02*
X128166666Y-110862295D01*
X128395238Y-110862295D02*
X128395238Y-110062295D01*
X128395238Y-110062295D02*
X128319047Y-110176580D01*
X128319047Y-110176580D02*
X128242857Y-110252771D01*
X128242857Y-110252771D02*
X128166666Y-110290866D01*
X116633333Y-106112295D02*
X116400000Y-105731342D01*
X116233333Y-106112295D02*
X116233333Y-105312295D01*
X116233333Y-105312295D02*
X116500000Y-105312295D01*
X116500000Y-105312295D02*
X116566667Y-105350390D01*
X116566667Y-105350390D02*
X116600000Y-105388485D01*
X116600000Y-105388485D02*
X116633333Y-105464676D01*
X116633333Y-105464676D02*
X116633333Y-105578961D01*
X116633333Y-105578961D02*
X116600000Y-105655152D01*
X116600000Y-105655152D02*
X116566667Y-105693247D01*
X116566667Y-105693247D02*
X116500000Y-105731342D01*
X116500000Y-105731342D02*
X116233333Y-105731342D01*
X117233333Y-105578961D02*
X117233333Y-106112295D01*
X117066667Y-105274200D02*
X116900000Y-105845628D01*
X116900000Y-105845628D02*
X117333333Y-105845628D01*
X110333333Y-95854819D02*
X110000000Y-95378628D01*
X109761905Y-95854819D02*
X109761905Y-94854819D01*
X109761905Y-94854819D02*
X110142857Y-94854819D01*
X110142857Y-94854819D02*
X110238095Y-94902438D01*
X110238095Y-94902438D02*
X110285714Y-94950057D01*
X110285714Y-94950057D02*
X110333333Y-95045295D01*
X110333333Y-95045295D02*
X110333333Y-95188152D01*
X110333333Y-95188152D02*
X110285714Y-95283390D01*
X110285714Y-95283390D02*
X110238095Y-95331009D01*
X110238095Y-95331009D02*
X110142857Y-95378628D01*
X110142857Y-95378628D02*
X109761905Y-95378628D01*
X110666667Y-94854819D02*
X111285714Y-94854819D01*
X111285714Y-94854819D02*
X110952381Y-95235771D01*
X110952381Y-95235771D02*
X111095238Y-95235771D01*
X111095238Y-95235771D02*
X111190476Y-95283390D01*
X111190476Y-95283390D02*
X111238095Y-95331009D01*
X111238095Y-95331009D02*
X111285714Y-95426247D01*
X111285714Y-95426247D02*
X111285714Y-95664342D01*
X111285714Y-95664342D02*
X111238095Y-95759580D01*
X111238095Y-95759580D02*
X111190476Y-95807200D01*
X111190476Y-95807200D02*
X111095238Y-95854819D01*
X111095238Y-95854819D02*
X110809524Y-95854819D01*
X110809524Y-95854819D02*
X110714286Y-95807200D01*
X110714286Y-95807200D02*
X110666667Y-95759580D01*
X122630952Y-112704819D02*
X122630952Y-111704819D01*
X122630952Y-111704819D02*
X122869047Y-111704819D01*
X122869047Y-111704819D02*
X123011904Y-111752438D01*
X123011904Y-111752438D02*
X123107142Y-111847676D01*
X123107142Y-111847676D02*
X123154761Y-111942914D01*
X123154761Y-111942914D02*
X123202380Y-112133390D01*
X123202380Y-112133390D02*
X123202380Y-112276247D01*
X123202380Y-112276247D02*
X123154761Y-112466723D01*
X123154761Y-112466723D02*
X123107142Y-112561961D01*
X123107142Y-112561961D02*
X123011904Y-112657200D01*
X123011904Y-112657200D02*
X122869047Y-112704819D01*
X122869047Y-112704819D02*
X122630952Y-112704819D01*
X123964285Y-112181009D02*
X124107142Y-112228628D01*
X124107142Y-112228628D02*
X124154761Y-112276247D01*
X124154761Y-112276247D02*
X124202380Y-112371485D01*
X124202380Y-112371485D02*
X124202380Y-112514342D01*
X124202380Y-112514342D02*
X124154761Y-112609580D01*
X124154761Y-112609580D02*
X124107142Y-112657200D01*
X124107142Y-112657200D02*
X124011904Y-112704819D01*
X124011904Y-112704819D02*
X123630952Y-112704819D01*
X123630952Y-112704819D02*
X123630952Y-111704819D01*
X123630952Y-111704819D02*
X123964285Y-111704819D01*
X123964285Y-111704819D02*
X124059523Y-111752438D01*
X124059523Y-111752438D02*
X124107142Y-111800057D01*
X124107142Y-111800057D02*
X124154761Y-111895295D01*
X124154761Y-111895295D02*
X124154761Y-111990533D01*
X124154761Y-111990533D02*
X124107142Y-112085771D01*
X124107142Y-112085771D02*
X124059523Y-112133390D01*
X124059523Y-112133390D02*
X123964285Y-112181009D01*
X123964285Y-112181009D02*
X123630952Y-112181009D01*
X124392857Y-112800057D02*
X125154761Y-112800057D01*
X125345238Y-111800057D02*
X125392857Y-111752438D01*
X125392857Y-111752438D02*
X125488095Y-111704819D01*
X125488095Y-111704819D02*
X125726190Y-111704819D01*
X125726190Y-111704819D02*
X125821428Y-111752438D01*
X125821428Y-111752438D02*
X125869047Y-111800057D01*
X125869047Y-111800057D02*
X125916666Y-111895295D01*
X125916666Y-111895295D02*
X125916666Y-111990533D01*
X125916666Y-111990533D02*
X125869047Y-112133390D01*
X125869047Y-112133390D02*
X125297619Y-112704819D01*
X125297619Y-112704819D02*
X125916666Y-112704819D01*
X84166666Y-116034819D02*
X84166666Y-116749104D01*
X84166666Y-116749104D02*
X84119047Y-116891961D01*
X84119047Y-116891961D02*
X84023809Y-116987200D01*
X84023809Y-116987200D02*
X83880952Y-117034819D01*
X83880952Y-117034819D02*
X83785714Y-117034819D01*
X84547619Y-116034819D02*
X85166666Y-116034819D01*
X85166666Y-116034819D02*
X84833333Y-116415771D01*
X84833333Y-116415771D02*
X84976190Y-116415771D01*
X84976190Y-116415771D02*
X85071428Y-116463390D01*
X85071428Y-116463390D02*
X85119047Y-116511009D01*
X85119047Y-116511009D02*
X85166666Y-116606247D01*
X85166666Y-116606247D02*
X85166666Y-116844342D01*
X85166666Y-116844342D02*
X85119047Y-116939580D01*
X85119047Y-116939580D02*
X85071428Y-116987200D01*
X85071428Y-116987200D02*
X84976190Y-117034819D01*
X84976190Y-117034819D02*
X84690476Y-117034819D01*
X84690476Y-117034819D02*
X84595238Y-116987200D01*
X84595238Y-116987200D02*
X84547619Y-116939580D01*
X115112295Y-109200000D02*
X114731342Y-109433333D01*
X115112295Y-109600000D02*
X114312295Y-109600000D01*
X114312295Y-109600000D02*
X114312295Y-109333333D01*
X114312295Y-109333333D02*
X114350390Y-109266667D01*
X114350390Y-109266667D02*
X114388485Y-109233333D01*
X114388485Y-109233333D02*
X114464676Y-109200000D01*
X114464676Y-109200000D02*
X114578961Y-109200000D01*
X114578961Y-109200000D02*
X114655152Y-109233333D01*
X114655152Y-109233333D02*
X114693247Y-109266667D01*
X114693247Y-109266667D02*
X114731342Y-109333333D01*
X114731342Y-109333333D02*
X114731342Y-109600000D01*
X115112295Y-108533333D02*
X115112295Y-108933333D01*
X115112295Y-108733333D02*
X114312295Y-108733333D01*
X114312295Y-108733333D02*
X114426580Y-108800000D01*
X114426580Y-108800000D02*
X114502771Y-108866667D01*
X114502771Y-108866667D02*
X114540866Y-108933333D01*
X114312295Y-108100000D02*
X114312295Y-108033333D01*
X114312295Y-108033333D02*
X114350390Y-107966666D01*
X114350390Y-107966666D02*
X114388485Y-107933333D01*
X114388485Y-107933333D02*
X114464676Y-107900000D01*
X114464676Y-107900000D02*
X114617057Y-107866666D01*
X114617057Y-107866666D02*
X114807533Y-107866666D01*
X114807533Y-107866666D02*
X114959914Y-107900000D01*
X114959914Y-107900000D02*
X115036104Y-107933333D01*
X115036104Y-107933333D02*
X115074200Y-107966666D01*
X115074200Y-107966666D02*
X115112295Y-108033333D01*
X115112295Y-108033333D02*
X115112295Y-108100000D01*
X115112295Y-108100000D02*
X115074200Y-108166666D01*
X115074200Y-108166666D02*
X115036104Y-108200000D01*
X115036104Y-108200000D02*
X114959914Y-108233333D01*
X114959914Y-108233333D02*
X114807533Y-108266666D01*
X114807533Y-108266666D02*
X114617057Y-108266666D01*
X114617057Y-108266666D02*
X114464676Y-108233333D01*
X114464676Y-108233333D02*
X114388485Y-108200000D01*
X114388485Y-108200000D02*
X114350390Y-108166666D01*
X114350390Y-108166666D02*
X114312295Y-108100000D01*
X116973333Y-96017319D02*
X116640000Y-95541128D01*
X116401905Y-96017319D02*
X116401905Y-95017319D01*
X116401905Y-95017319D02*
X116782857Y-95017319D01*
X116782857Y-95017319D02*
X116878095Y-95064938D01*
X116878095Y-95064938D02*
X116925714Y-95112557D01*
X116925714Y-95112557D02*
X116973333Y-95207795D01*
X116973333Y-95207795D02*
X116973333Y-95350652D01*
X116973333Y-95350652D02*
X116925714Y-95445890D01*
X116925714Y-95445890D02*
X116878095Y-95493509D01*
X116878095Y-95493509D02*
X116782857Y-95541128D01*
X116782857Y-95541128D02*
X116401905Y-95541128D01*
X117925714Y-96017319D02*
X117354286Y-96017319D01*
X117640000Y-96017319D02*
X117640000Y-95017319D01*
X117640000Y-95017319D02*
X117544762Y-95160176D01*
X117544762Y-95160176D02*
X117449524Y-95255414D01*
X117449524Y-95255414D02*
X117354286Y-95303033D01*
X115112295Y-110866666D02*
X114731342Y-111099999D01*
X115112295Y-111266666D02*
X114312295Y-111266666D01*
X114312295Y-111266666D02*
X114312295Y-110999999D01*
X114312295Y-110999999D02*
X114350390Y-110933333D01*
X114350390Y-110933333D02*
X114388485Y-110899999D01*
X114388485Y-110899999D02*
X114464676Y-110866666D01*
X114464676Y-110866666D02*
X114578961Y-110866666D01*
X114578961Y-110866666D02*
X114655152Y-110899999D01*
X114655152Y-110899999D02*
X114693247Y-110933333D01*
X114693247Y-110933333D02*
X114731342Y-110999999D01*
X114731342Y-110999999D02*
X114731342Y-111266666D01*
X114655152Y-110466666D02*
X114617057Y-110533333D01*
X114617057Y-110533333D02*
X114578961Y-110566666D01*
X114578961Y-110566666D02*
X114502771Y-110599999D01*
X114502771Y-110599999D02*
X114464676Y-110599999D01*
X114464676Y-110599999D02*
X114388485Y-110566666D01*
X114388485Y-110566666D02*
X114350390Y-110533333D01*
X114350390Y-110533333D02*
X114312295Y-110466666D01*
X114312295Y-110466666D02*
X114312295Y-110333333D01*
X114312295Y-110333333D02*
X114350390Y-110266666D01*
X114350390Y-110266666D02*
X114388485Y-110233333D01*
X114388485Y-110233333D02*
X114464676Y-110199999D01*
X114464676Y-110199999D02*
X114502771Y-110199999D01*
X114502771Y-110199999D02*
X114578961Y-110233333D01*
X114578961Y-110233333D02*
X114617057Y-110266666D01*
X114617057Y-110266666D02*
X114655152Y-110333333D01*
X114655152Y-110333333D02*
X114655152Y-110466666D01*
X114655152Y-110466666D02*
X114693247Y-110533333D01*
X114693247Y-110533333D02*
X114731342Y-110566666D01*
X114731342Y-110566666D02*
X114807533Y-110599999D01*
X114807533Y-110599999D02*
X114959914Y-110599999D01*
X114959914Y-110599999D02*
X115036104Y-110566666D01*
X115036104Y-110566666D02*
X115074200Y-110533333D01*
X115074200Y-110533333D02*
X115112295Y-110466666D01*
X115112295Y-110466666D02*
X115112295Y-110333333D01*
X115112295Y-110333333D02*
X115074200Y-110266666D01*
X115074200Y-110266666D02*
X115036104Y-110233333D01*
X115036104Y-110233333D02*
X114959914Y-110199999D01*
X114959914Y-110199999D02*
X114807533Y-110199999D01*
X114807533Y-110199999D02*
X114731342Y-110233333D01*
X114731342Y-110233333D02*
X114693247Y-110266666D01*
X114693247Y-110266666D02*
X114655152Y-110333333D01*
X122630952Y-107454819D02*
X122630952Y-106454819D01*
X122630952Y-106454819D02*
X122869047Y-106454819D01*
X122869047Y-106454819D02*
X123011904Y-106502438D01*
X123011904Y-106502438D02*
X123107142Y-106597676D01*
X123107142Y-106597676D02*
X123154761Y-106692914D01*
X123154761Y-106692914D02*
X123202380Y-106883390D01*
X123202380Y-106883390D02*
X123202380Y-107026247D01*
X123202380Y-107026247D02*
X123154761Y-107216723D01*
X123154761Y-107216723D02*
X123107142Y-107311961D01*
X123107142Y-107311961D02*
X123011904Y-107407200D01*
X123011904Y-107407200D02*
X122869047Y-107454819D01*
X122869047Y-107454819D02*
X122630952Y-107454819D01*
X123964285Y-106931009D02*
X124107142Y-106978628D01*
X124107142Y-106978628D02*
X124154761Y-107026247D01*
X124154761Y-107026247D02*
X124202380Y-107121485D01*
X124202380Y-107121485D02*
X124202380Y-107264342D01*
X124202380Y-107264342D02*
X124154761Y-107359580D01*
X124154761Y-107359580D02*
X124107142Y-107407200D01*
X124107142Y-107407200D02*
X124011904Y-107454819D01*
X124011904Y-107454819D02*
X123630952Y-107454819D01*
X123630952Y-107454819D02*
X123630952Y-106454819D01*
X123630952Y-106454819D02*
X123964285Y-106454819D01*
X123964285Y-106454819D02*
X124059523Y-106502438D01*
X124059523Y-106502438D02*
X124107142Y-106550057D01*
X124107142Y-106550057D02*
X124154761Y-106645295D01*
X124154761Y-106645295D02*
X124154761Y-106740533D01*
X124154761Y-106740533D02*
X124107142Y-106835771D01*
X124107142Y-106835771D02*
X124059523Y-106883390D01*
X124059523Y-106883390D02*
X123964285Y-106931009D01*
X123964285Y-106931009D02*
X123630952Y-106931009D01*
X124392857Y-107550057D02*
X125154761Y-107550057D01*
X125916666Y-107454819D02*
X125345238Y-107454819D01*
X125630952Y-107454819D02*
X125630952Y-106454819D01*
X125630952Y-106454819D02*
X125535714Y-106597676D01*
X125535714Y-106597676D02*
X125440476Y-106692914D01*
X125440476Y-106692914D02*
X125345238Y-106740533D01*
X87856666Y-99681009D02*
X87523333Y-99681009D01*
X87523333Y-100204819D02*
X87523333Y-99204819D01*
X87523333Y-99204819D02*
X87999523Y-99204819D01*
X88904285Y-100204819D02*
X88332857Y-100204819D01*
X88618571Y-100204819D02*
X88618571Y-99204819D01*
X88618571Y-99204819D02*
X88523333Y-99347676D01*
X88523333Y-99347676D02*
X88428095Y-99442914D01*
X88428095Y-99442914D02*
X88332857Y-99490533D01*
X104762295Y-98233332D02*
X104381342Y-98499999D01*
X104762295Y-98690475D02*
X103962295Y-98690475D01*
X103962295Y-98690475D02*
X103962295Y-98385713D01*
X103962295Y-98385713D02*
X104000390Y-98309523D01*
X104000390Y-98309523D02*
X104038485Y-98271428D01*
X104038485Y-98271428D02*
X104114676Y-98233332D01*
X104114676Y-98233332D02*
X104228961Y-98233332D01*
X104228961Y-98233332D02*
X104305152Y-98271428D01*
X104305152Y-98271428D02*
X104343247Y-98309523D01*
X104343247Y-98309523D02*
X104381342Y-98385713D01*
X104381342Y-98385713D02*
X104381342Y-98690475D01*
X103962295Y-97509523D02*
X103962295Y-97890475D01*
X103962295Y-97890475D02*
X104343247Y-97928571D01*
X104343247Y-97928571D02*
X104305152Y-97890475D01*
X104305152Y-97890475D02*
X104267057Y-97814285D01*
X104267057Y-97814285D02*
X104267057Y-97623809D01*
X104267057Y-97623809D02*
X104305152Y-97547618D01*
X104305152Y-97547618D02*
X104343247Y-97509523D01*
X104343247Y-97509523D02*
X104419438Y-97471428D01*
X104419438Y-97471428D02*
X104609914Y-97471428D01*
X104609914Y-97471428D02*
X104686104Y-97509523D01*
X104686104Y-97509523D02*
X104724200Y-97547618D01*
X104724200Y-97547618D02*
X104762295Y-97623809D01*
X104762295Y-97623809D02*
X104762295Y-97814285D01*
X104762295Y-97814285D02*
X104724200Y-97890475D01*
X104724200Y-97890475D02*
X104686104Y-97928571D01*
X111754762Y-108112295D02*
X111488095Y-107731342D01*
X111297619Y-108112295D02*
X111297619Y-107312295D01*
X111297619Y-107312295D02*
X111602381Y-107312295D01*
X111602381Y-107312295D02*
X111678571Y-107350390D01*
X111678571Y-107350390D02*
X111716666Y-107388485D01*
X111716666Y-107388485D02*
X111754762Y-107464676D01*
X111754762Y-107464676D02*
X111754762Y-107578961D01*
X111754762Y-107578961D02*
X111716666Y-107655152D01*
X111716666Y-107655152D02*
X111678571Y-107693247D01*
X111678571Y-107693247D02*
X111602381Y-107731342D01*
X111602381Y-107731342D02*
X111297619Y-107731342D01*
X112440476Y-108112295D02*
X112440476Y-107693247D01*
X112440476Y-107693247D02*
X112402381Y-107617057D01*
X112402381Y-107617057D02*
X112326190Y-107578961D01*
X112326190Y-107578961D02*
X112173809Y-107578961D01*
X112173809Y-107578961D02*
X112097619Y-107617057D01*
X112440476Y-108074200D02*
X112364285Y-108112295D01*
X112364285Y-108112295D02*
X112173809Y-108112295D01*
X112173809Y-108112295D02*
X112097619Y-108074200D01*
X112097619Y-108074200D02*
X112059523Y-107998009D01*
X112059523Y-107998009D02*
X112059523Y-107921819D01*
X112059523Y-107921819D02*
X112097619Y-107845628D01*
X112097619Y-107845628D02*
X112173809Y-107807533D01*
X112173809Y-107807533D02*
X112364285Y-107807533D01*
X112364285Y-107807533D02*
X112440476Y-107769438D01*
X113240476Y-108112295D02*
X112783333Y-108112295D01*
X113011905Y-108112295D02*
X113011905Y-107312295D01*
X113011905Y-107312295D02*
X112935714Y-107426580D01*
X112935714Y-107426580D02*
X112859524Y-107502771D01*
X112859524Y-107502771D02*
X112783333Y-107540866D01*
X112833333Y-96054819D02*
X112500000Y-95578628D01*
X112261905Y-96054819D02*
X112261905Y-95054819D01*
X112261905Y-95054819D02*
X112642857Y-95054819D01*
X112642857Y-95054819D02*
X112738095Y-95102438D01*
X112738095Y-95102438D02*
X112785714Y-95150057D01*
X112785714Y-95150057D02*
X112833333Y-95245295D01*
X112833333Y-95245295D02*
X112833333Y-95388152D01*
X112833333Y-95388152D02*
X112785714Y-95483390D01*
X112785714Y-95483390D02*
X112738095Y-95531009D01*
X112738095Y-95531009D02*
X112642857Y-95578628D01*
X112642857Y-95578628D02*
X112261905Y-95578628D01*
X113214286Y-95150057D02*
X113261905Y-95102438D01*
X113261905Y-95102438D02*
X113357143Y-95054819D01*
X113357143Y-95054819D02*
X113595238Y-95054819D01*
X113595238Y-95054819D02*
X113690476Y-95102438D01*
X113690476Y-95102438D02*
X113738095Y-95150057D01*
X113738095Y-95150057D02*
X113785714Y-95245295D01*
X113785714Y-95245295D02*
X113785714Y-95340533D01*
X113785714Y-95340533D02*
X113738095Y-95483390D01*
X113738095Y-95483390D02*
X113166667Y-96054819D01*
X113166667Y-96054819D02*
X113785714Y-96054819D01*
X111362295Y-106700000D02*
X110981342Y-106933333D01*
X111362295Y-107100000D02*
X110562295Y-107100000D01*
X110562295Y-107100000D02*
X110562295Y-106833333D01*
X110562295Y-106833333D02*
X110600390Y-106766667D01*
X110600390Y-106766667D02*
X110638485Y-106733333D01*
X110638485Y-106733333D02*
X110714676Y-106700000D01*
X110714676Y-106700000D02*
X110828961Y-106700000D01*
X110828961Y-106700000D02*
X110905152Y-106733333D01*
X110905152Y-106733333D02*
X110943247Y-106766667D01*
X110943247Y-106766667D02*
X110981342Y-106833333D01*
X110981342Y-106833333D02*
X110981342Y-107100000D01*
X111362295Y-106033333D02*
X111362295Y-106433333D01*
X111362295Y-106233333D02*
X110562295Y-106233333D01*
X110562295Y-106233333D02*
X110676580Y-106300000D01*
X110676580Y-106300000D02*
X110752771Y-106366667D01*
X110752771Y-106366667D02*
X110790866Y-106433333D01*
X110638485Y-105766666D02*
X110600390Y-105733333D01*
X110600390Y-105733333D02*
X110562295Y-105666666D01*
X110562295Y-105666666D02*
X110562295Y-105500000D01*
X110562295Y-105500000D02*
X110600390Y-105433333D01*
X110600390Y-105433333D02*
X110638485Y-105400000D01*
X110638485Y-105400000D02*
X110714676Y-105366666D01*
X110714676Y-105366666D02*
X110790866Y-105366666D01*
X110790866Y-105366666D02*
X110905152Y-105400000D01*
X110905152Y-105400000D02*
X111362295Y-105800000D01*
X111362295Y-105800000D02*
X111362295Y-105366666D01*
X122630952Y-109204819D02*
X122630952Y-108204819D01*
X122630952Y-108204819D02*
X122869047Y-108204819D01*
X122869047Y-108204819D02*
X123011904Y-108252438D01*
X123011904Y-108252438D02*
X123107142Y-108347676D01*
X123107142Y-108347676D02*
X123154761Y-108442914D01*
X123154761Y-108442914D02*
X123202380Y-108633390D01*
X123202380Y-108633390D02*
X123202380Y-108776247D01*
X123202380Y-108776247D02*
X123154761Y-108966723D01*
X123154761Y-108966723D02*
X123107142Y-109061961D01*
X123107142Y-109061961D02*
X123011904Y-109157200D01*
X123011904Y-109157200D02*
X122869047Y-109204819D01*
X122869047Y-109204819D02*
X122630952Y-109204819D01*
X123964285Y-108681009D02*
X124107142Y-108728628D01*
X124107142Y-108728628D02*
X124154761Y-108776247D01*
X124154761Y-108776247D02*
X124202380Y-108871485D01*
X124202380Y-108871485D02*
X124202380Y-109014342D01*
X124202380Y-109014342D02*
X124154761Y-109109580D01*
X124154761Y-109109580D02*
X124107142Y-109157200D01*
X124107142Y-109157200D02*
X124011904Y-109204819D01*
X124011904Y-109204819D02*
X123630952Y-109204819D01*
X123630952Y-109204819D02*
X123630952Y-108204819D01*
X123630952Y-108204819D02*
X123964285Y-108204819D01*
X123964285Y-108204819D02*
X124059523Y-108252438D01*
X124059523Y-108252438D02*
X124107142Y-108300057D01*
X124107142Y-108300057D02*
X124154761Y-108395295D01*
X124154761Y-108395295D02*
X124154761Y-108490533D01*
X124154761Y-108490533D02*
X124107142Y-108585771D01*
X124107142Y-108585771D02*
X124059523Y-108633390D01*
X124059523Y-108633390D02*
X123964285Y-108681009D01*
X123964285Y-108681009D02*
X123630952Y-108681009D01*
X124392857Y-109300057D02*
X125154761Y-109300057D01*
X125297619Y-108204819D02*
X125916666Y-108204819D01*
X125916666Y-108204819D02*
X125583333Y-108585771D01*
X125583333Y-108585771D02*
X125726190Y-108585771D01*
X125726190Y-108585771D02*
X125821428Y-108633390D01*
X125821428Y-108633390D02*
X125869047Y-108681009D01*
X125869047Y-108681009D02*
X125916666Y-108776247D01*
X125916666Y-108776247D02*
X125916666Y-109014342D01*
X125916666Y-109014342D02*
X125869047Y-109109580D01*
X125869047Y-109109580D02*
X125821428Y-109157200D01*
X125821428Y-109157200D02*
X125726190Y-109204819D01*
X125726190Y-109204819D02*
X125440476Y-109204819D01*
X125440476Y-109204819D02*
X125345238Y-109157200D01*
X125345238Y-109157200D02*
X125297619Y-109109580D01*
X102233333Y-103409580D02*
X102185714Y-103457200D01*
X102185714Y-103457200D02*
X102042857Y-103504819D01*
X102042857Y-103504819D02*
X101947619Y-103504819D01*
X101947619Y-103504819D02*
X101804762Y-103457200D01*
X101804762Y-103457200D02*
X101709524Y-103361961D01*
X101709524Y-103361961D02*
X101661905Y-103266723D01*
X101661905Y-103266723D02*
X101614286Y-103076247D01*
X101614286Y-103076247D02*
X101614286Y-102933390D01*
X101614286Y-102933390D02*
X101661905Y-102742914D01*
X101661905Y-102742914D02*
X101709524Y-102647676D01*
X101709524Y-102647676D02*
X101804762Y-102552438D01*
X101804762Y-102552438D02*
X101947619Y-102504819D01*
X101947619Y-102504819D02*
X102042857Y-102504819D01*
X102042857Y-102504819D02*
X102185714Y-102552438D01*
X102185714Y-102552438D02*
X102233333Y-102600057D01*
X102614286Y-102600057D02*
X102661905Y-102552438D01*
X102661905Y-102552438D02*
X102757143Y-102504819D01*
X102757143Y-102504819D02*
X102995238Y-102504819D01*
X102995238Y-102504819D02*
X103090476Y-102552438D01*
X103090476Y-102552438D02*
X103138095Y-102600057D01*
X103138095Y-102600057D02*
X103185714Y-102695295D01*
X103185714Y-102695295D02*
X103185714Y-102790533D01*
X103185714Y-102790533D02*
X103138095Y-102933390D01*
X103138095Y-102933390D02*
X102566667Y-103504819D01*
X102566667Y-103504819D02*
X103185714Y-103504819D01*
X108693247Y-95104166D02*
X108693247Y-95370832D01*
X109112295Y-95370832D02*
X108312295Y-95370832D01*
X108312295Y-95370832D02*
X108312295Y-94989880D01*
X108693247Y-94418452D02*
X108731342Y-94304166D01*
X108731342Y-94304166D02*
X108769438Y-94266071D01*
X108769438Y-94266071D02*
X108845628Y-94227975D01*
X108845628Y-94227975D02*
X108959914Y-94227975D01*
X108959914Y-94227975D02*
X109036104Y-94266071D01*
X109036104Y-94266071D02*
X109074200Y-94304166D01*
X109074200Y-94304166D02*
X109112295Y-94380356D01*
X109112295Y-94380356D02*
X109112295Y-94685118D01*
X109112295Y-94685118D02*
X108312295Y-94685118D01*
X108312295Y-94685118D02*
X108312295Y-94418452D01*
X108312295Y-94418452D02*
X108350390Y-94342261D01*
X108350390Y-94342261D02*
X108388485Y-94304166D01*
X108388485Y-94304166D02*
X108464676Y-94266071D01*
X108464676Y-94266071D02*
X108540866Y-94266071D01*
X108540866Y-94266071D02*
X108617057Y-94304166D01*
X108617057Y-94304166D02*
X108655152Y-94342261D01*
X108655152Y-94342261D02*
X108693247Y-94418452D01*
X108693247Y-94418452D02*
X108693247Y-94685118D01*
X108388485Y-93923214D02*
X108350390Y-93885118D01*
X108350390Y-93885118D02*
X108312295Y-93808928D01*
X108312295Y-93808928D02*
X108312295Y-93618452D01*
X108312295Y-93618452D02*
X108350390Y-93542261D01*
X108350390Y-93542261D02*
X108388485Y-93504166D01*
X108388485Y-93504166D02*
X108464676Y-93466071D01*
X108464676Y-93466071D02*
X108540866Y-93466071D01*
X108540866Y-93466071D02*
X108655152Y-93504166D01*
X108655152Y-93504166D02*
X109112295Y-93961309D01*
X109112295Y-93961309D02*
X109112295Y-93466071D01*
X85295178Y-81416663D02*
X84580893Y-81416663D01*
X84580893Y-81416663D02*
X84438036Y-81369044D01*
X84438036Y-81369044D02*
X84342798Y-81273806D01*
X84342798Y-81273806D02*
X84295178Y-81130949D01*
X84295178Y-81130949D02*
X84295178Y-81035711D01*
X84961845Y-82321425D02*
X84295178Y-82321425D01*
X85342798Y-82083330D02*
X84628512Y-81845235D01*
X84628512Y-81845235D02*
X84628512Y-82464282D01*
D13*
%TO.C,I2C_SDA*%
X113630000Y-94020000D02*
X113630000Y-94130000D01*
X110870000Y-94130000D02*
X113630000Y-94130000D01*
X110870000Y-94020000D02*
X113630000Y-94020000D01*
X110870000Y-94020000D02*
X110870000Y-94130000D01*
X110870000Y-92750000D02*
X110870000Y-91370000D01*
X110870000Y-91370000D02*
X112250000Y-91370000D01*
%TO.C,INT*%
X115730000Y-103130000D02*
X115620000Y-103130000D01*
X115620000Y-100370000D02*
X115620000Y-103130000D01*
X115730000Y-100370000D02*
X115730000Y-103130000D01*
X115730000Y-100370000D02*
X115620000Y-100370000D01*
X117000000Y-100370000D02*
X118380000Y-100370000D01*
X118380000Y-100370000D02*
X118380000Y-101750000D01*
%TO.C,I2C_SCL*%
X117780000Y-94180000D02*
X116400000Y-94180000D01*
X117780000Y-92800000D02*
X117780000Y-94180000D01*
X117780000Y-91530000D02*
X117780000Y-91420000D01*
X117780000Y-91530000D02*
X115020000Y-91530000D01*
X117780000Y-91420000D02*
X115020000Y-91420000D01*
X115020000Y-91530000D02*
X115020000Y-91420000D01*
%TO.C,VCC*%
X109800000Y-88200000D02*
X111200000Y-88200000D01*
X109800000Y-89600000D02*
X109800000Y-88200000D01*
X111200000Y-88200000D02*
X111200000Y-89600000D01*
X111200000Y-89600000D02*
X109800000Y-89600000D01*
%TO.C,GND*%
X123400000Y-102400000D02*
X124800000Y-102400000D01*
X123400000Y-103800000D02*
X123400000Y-102400000D01*
X124800000Y-102400000D02*
X124800000Y-103800000D01*
X124800000Y-103800000D02*
X123400000Y-103800000D01*
%TO.C,R11*%
X112860436Y-104485000D02*
X113314564Y-104485000D01*
X112860436Y-103015000D02*
X113314564Y-103015000D01*
%TO.C,Rb1*%
X112504724Y-109977500D02*
X111995276Y-109977500D01*
X112504724Y-111022500D02*
X111995276Y-111022500D01*
D14*
%TO.C,IC2*%
X109012500Y-105725500D02*
G75*
G02*
X108687500Y-105725500I-162500J0D01*
G01*
X108687500Y-105725500D02*
G75*
G02*
X109012500Y-105725500I162500J0D01*
G01*
D13*
%TO.C,TP_TC_1*%
X104600000Y-90800000D02*
X106000000Y-90800000D01*
X104600000Y-92200000D02*
X104600000Y-90800000D01*
X106000000Y-90800000D02*
X106000000Y-92200000D01*
X106000000Y-92200000D02*
X104600000Y-92200000D01*
%TO.C,C3*%
X106723752Y-102015000D02*
X106201248Y-102015000D01*
X106723752Y-103485000D02*
X106201248Y-103485000D01*
%TO.C,R9*%
X108727500Y-103054724D02*
X108727500Y-102545276D01*
X109772500Y-103054724D02*
X109772500Y-102545276D01*
%TO.C,R7*%
X117254724Y-111727500D02*
X116745276Y-111727500D01*
X117254724Y-112772500D02*
X116745276Y-112772500D01*
%TO.C,R6*%
X108022500Y-98667224D02*
X108022500Y-98157776D01*
X106977500Y-98667224D02*
X106977500Y-98157776D01*
%TO.C,FB1*%
X106010000Y-94328733D02*
X106010000Y-94671267D01*
X104990000Y-94328733D02*
X104990000Y-94671267D01*
%TO.C,Heartbeat1*%
X119700000Y-111235000D02*
X122160000Y-111235000D01*
X122160000Y-109765000D02*
X119700000Y-109765000D01*
X122160000Y-111235000D02*
X122160000Y-109765000D01*
%TO.C,TP_TC_F_2*%
X103700000Y-95800000D02*
X103700000Y-97200000D01*
X102300000Y-95800000D02*
X103700000Y-95800000D01*
X103700000Y-97200000D02*
X102300000Y-97200000D01*
X102300000Y-97200000D02*
X102300000Y-95800000D01*
%TO.C,R4*%
X117254724Y-106477500D02*
X116745276Y-106477500D01*
X117254724Y-107522500D02*
X116745276Y-107522500D01*
%TO.C,R3*%
X111235000Y-97610436D02*
X111235000Y-98064564D01*
X109765000Y-97610436D02*
X109765000Y-98064564D01*
%TO.C,DB_2*%
X119700000Y-112985000D02*
X122160000Y-112985000D01*
X122160000Y-111515000D02*
X119700000Y-111515000D01*
X122160000Y-112985000D02*
X122160000Y-111515000D01*
%TO.C,J3*%
X90155000Y-115580000D02*
X88885000Y-115580000D01*
X90155000Y-114310000D02*
X90155000Y-115580000D01*
X87807642Y-112200000D02*
X87495000Y-112200000D01*
X87807642Y-111340000D02*
X87495000Y-111340000D01*
X87807642Y-109660000D02*
X87495000Y-109660000D01*
X87807642Y-108800000D02*
X87495000Y-108800000D01*
X87807642Y-107120000D02*
X87495000Y-107120000D01*
X87807642Y-106260000D02*
X87495000Y-106260000D01*
X87725000Y-114740000D02*
X87495000Y-114740000D01*
X87725000Y-113880000D02*
X87495000Y-113880000D01*
X87495000Y-115690000D02*
X87495000Y-105310000D01*
X87495000Y-113040000D02*
X84735000Y-113040000D01*
X87495000Y-110500000D02*
X84735000Y-110500000D01*
X87495000Y-107960000D02*
X84735000Y-107960000D01*
X87495000Y-105310000D02*
X84735000Y-105310000D01*
X84735000Y-115690000D02*
X87495000Y-115690000D01*
X84735000Y-112200000D02*
X78735000Y-112200000D01*
X84735000Y-109660000D02*
X78735000Y-109660000D01*
X84735000Y-107120000D02*
X78735000Y-107120000D01*
X84735000Y-105310000D02*
X84735000Y-115690000D01*
X78735000Y-112200000D02*
X78735000Y-111340000D01*
X78735000Y-111340000D02*
X84735000Y-111340000D01*
X78735000Y-109660000D02*
X78735000Y-108800000D01*
X78735000Y-108800000D02*
X84735000Y-108800000D01*
X78735000Y-107120000D02*
X78735000Y-106260000D01*
X78735000Y-106260000D02*
X84735000Y-106260000D01*
X84735000Y-114740000D02*
X78735000Y-114740000D01*
X78735000Y-113880000D01*
X84735000Y-113880000D01*
X84735000Y-114740000D01*
G36*
X84735000Y-114740000D02*
G01*
X78735000Y-114740000D01*
X78735000Y-113880000D01*
X84735000Y-113880000D01*
X84735000Y-114740000D01*
G37*
%TO.C,TP_TC_F_1*%
X103700000Y-98600000D02*
X103700000Y-100000000D01*
X102300000Y-98600000D02*
X103700000Y-98600000D01*
X103700000Y-100000000D02*
X102300000Y-100000000D01*
X102300000Y-100000000D02*
X102300000Y-98600000D01*
%TO.C,R10*%
X117254724Y-108227500D02*
X116745276Y-108227500D01*
X117254724Y-109272500D02*
X116745276Y-109272500D01*
%TO.C,R1*%
X116265000Y-97672936D02*
X116265000Y-98127064D01*
X117735000Y-97672936D02*
X117735000Y-98127064D01*
%TO.C,R8*%
X117254724Y-109977500D02*
X116745276Y-109977500D01*
X117254724Y-111022500D02*
X116745276Y-111022500D01*
%TO.C,TP_TC_2*%
X107000000Y-90800000D02*
X108400000Y-90800000D01*
X107000000Y-92200000D02*
X107000000Y-90800000D01*
X108400000Y-90800000D02*
X108400000Y-92200000D01*
X108400000Y-92200000D02*
X107000000Y-92200000D01*
%TO.C,DB_1*%
X119700000Y-107735000D02*
X122160000Y-107735000D01*
X122160000Y-106265000D02*
X119700000Y-106265000D01*
X122160000Y-107735000D02*
X122160000Y-106265000D01*
%TO.C,F1*%
X77900000Y-96280000D02*
X77900000Y-103220000D01*
X77900000Y-103220000D02*
X94100000Y-103220000D01*
X84400000Y-97750000D02*
X87600000Y-97750000D01*
X85250000Y-99750000D02*
X86750000Y-99750000D01*
X87600000Y-101750000D02*
X84400000Y-101750000D01*
X94100000Y-96280000D02*
X77900000Y-96280000D01*
X94100000Y-103220000D02*
X94100000Y-96280000D01*
%TO.C,R5*%
X106022500Y-98667224D02*
X106022500Y-98157776D01*
X104977500Y-98667224D02*
X104977500Y-98157776D01*
%TO.C,Ra1*%
X111945276Y-108277500D02*
X112454724Y-108277500D01*
X111945276Y-109322500D02*
X112454724Y-109322500D01*
%TO.C,R2*%
X113735000Y-97772936D02*
X113735000Y-98227064D01*
X112265000Y-97772936D02*
X112265000Y-98227064D01*
%TO.C,R12*%
X112860436Y-105515000D02*
X113314564Y-105515000D01*
X112860436Y-106985000D02*
X113314564Y-106985000D01*
%TO.C,DB_3*%
X119700000Y-109485000D02*
X122160000Y-109485000D01*
X122160000Y-108015000D02*
X119700000Y-108015000D01*
X122160000Y-109485000D02*
X122160000Y-108015000D01*
%TO.C,C2*%
X103135000Y-105538748D02*
X103135000Y-106061252D01*
X101665000Y-105538748D02*
X101665000Y-106061252D01*
%TO.C,FB2*%
X108010000Y-94328733D02*
X108010000Y-94671267D01*
X106990000Y-94328733D02*
X106990000Y-94671267D01*
D15*
%TO.C,J4*%
X67680598Y-67627597D02*
X67680598Y-95872397D01*
X67680598Y-95872397D02*
X89676999Y-95872397D01*
X89676999Y-67627597D02*
X67680598Y-67627597D01*
X89676999Y-95872397D02*
X89676999Y-67627597D01*
D10*
X89676999Y-67617197D02*
X79650000Y-67617197D01*
X79650000Y-95872397D01*
X89676999Y-95872397D01*
X89676999Y-67617197D01*
D16*
X88131000Y-96999996D02*
G75*
G02*
X87369000Y-96999996I-381000J0D01*
G01*
X87369000Y-96999996D02*
G75*
G02*
X88131000Y-96999996I381000J0D01*
G01*
%TD*%
M02*
