M48
; DRILL file {KiCad 9.0.4} date 2025-10-18T22:12:54-0500
; FORMAT={-:-/ absolute / metric / decimal}
; #@! TF.CreationDate,2025-10-18T22:12:54-05:00
; #@! TF.GenerationSoftware,Kicad,Pcbnew,9.0.4
; #@! TF.FileFunction,Plated,1,2,PTH
FMAT,2
METRIC
; #@! TA.AperFunction,Plated,PTH,ViaDrill
T1C0.300
; #@! TA.AperFunction,Plated,PTH,ComponentDrill
T2C1.000
; #@! TA.AperFunction,Plated,PTH,ComponentDrill
T3C1.397
; #@! TA.AperFunction,Plated,PTH,ComponentDrill
T4C1.780
; #@! TA.AperFunction,Plated,PTH,ComponentDrill
T5C3.200
%
G90
G05
T1
X93.0Y-79.2
X93.0Y-81.2
X93.0Y-83.0
X93.0Y-85.0
X95.0Y-79.2
X95.0Y-81.2
X95.0Y-83.0
X95.0Y-85.0
X97.0Y-85.0
X97.0Y-87.0
X99.0Y-85.0
X99.0Y-87.0
X100.0Y-118.0
X102.0Y-118.0
X102.4Y-106.837
X104.0Y-106.0
X104.0Y-110.7
X105.0Y-74.0
X105.0Y-76.0
X105.075Y-105.1
X105.3Y-111.9
X106.575Y-105.1
X106.575Y-112.0
X106.65Y-117.75
X107.0Y-74.0
X107.0Y-76.0
X107.45Y-117.75
X108.25Y-117.75
X108.325Y-105.1
X108.704Y-113.401
X109.0Y-74.0
X109.0Y-76.0
X109.0Y-78.0
X109.0Y-80.0
X109.05Y-117.75
X109.921Y-113.445
X110.075Y-109.0
X110.5Y-97.0
X110.575Y-105.85
X110.7Y-107.692
X110.713Y-113.127
X111.0Y-74.0
X111.0Y-76.0
X111.0Y-78.0
X111.0Y-80.0
X112.175Y-106.25
X112.6Y-116.2
X113.0Y-74.0
X113.0Y-76.0
X113.0Y-78.0
X113.0Y-80.0
X113.0Y-82.0
X113.0Y-84.0
X113.0Y-97.0
X114.0Y-103.75
X114.4Y-116.2
X115.0Y-74.0
X115.0Y-76.0
X115.0Y-78.0
X115.0Y-80.0
X115.0Y-82.0
X115.0Y-84.0
X116.087Y-107.0
X116.087Y-108.75
X116.087Y-110.5
X116.087Y-112.25
X117.0Y-74.0
X117.0Y-76.0
X117.0Y-78.0
X117.0Y-80.0
X117.0Y-82.0
X117.0Y-84.0
X117.0Y-86.0
X117.0Y-88.0
X117.0Y-97.0
X119.0Y-74.0
X119.0Y-76.0
X119.0Y-78.0
X119.0Y-80.0
X119.0Y-82.0
X119.0Y-84.0
X119.0Y-86.0
X119.0Y-88.0
X119.0Y-117.0
X119.0Y-119.0
X121.0Y-115.0
X121.0Y-117.0
X121.0Y-119.0
T2
X88.885Y-106.69
X88.885Y-109.23
X88.885Y-111.77
X88.885Y-114.31
X112.25Y-92.75
X116.4Y-92.8
X117.0Y-101.75
T3
X81.75Y-69.5
X81.75Y-73.0
X81.75Y-76.5
X81.75Y-80.0
X81.75Y-83.5
X81.75Y-87.0
X81.75Y-90.5
X81.75Y-94.0
X87.75Y-69.5
X87.75Y-73.0
X87.75Y-76.5
X87.75Y-80.0
X87.75Y-83.5
X87.75Y-87.0
X87.75Y-90.5
X87.75Y-94.0
T4
X81.04Y-98.05
X81.04Y-101.45
X90.96Y-98.05
X90.96Y-101.45
T5
X95.28Y-116.95
X95.29Y-70.48
X126.03Y-70.48
X126.03Y-116.95
M30
