M48
; DRILL file {KiCad 9.0.4} date 2026-01-29T14:30:35-0600
; FORMAT={-:-/ absolute / metric / decimal}
; #@! TF.CreationDate,2026-01-29T14:30:35-06:00
; #@! TF.GenerationSoftware,Kicad,Pcbnew,9.0.4
; #@! TF.FileFunction,Plated,1,2,PTH
FMAT,2
METRIC
; #@! TA.AperFunction,Plated,PTH,ViaDrill
T1C0.300
; #@! TA.AperFunction,Plated,PTH,ComponentDrill
T2C1.016
; #@! TA.AperFunction,Plated,PTH,ComponentDrill
T3C1.200
; #@! TA.AperFunction,Plated,PTH,ComponentDrill
T4C1.600
; #@! TA.AperFunction,Plated,PTH,ComponentDrill
T5C1.780
; #@! TA.AperFunction,Plated,PTH,ComponentDrill
T6C3.200
%
G90
G05
T1
X79.5Y-112.75
X79.5Y-114.75
X79.5Y-116.75
X79.5Y-118.75
X81.5Y-112.75
X81.5Y-114.75
X81.5Y-116.75
X81.5Y-118.75
X82.25Y-70.5
X82.25Y-72.5
X84.25Y-70.5
X84.25Y-72.5
X86.5Y-70.5
X86.5Y-72.5
X88.5Y-70.5
X88.5Y-72.5
X100.0Y-119.25
X102.0Y-119.25
X102.5Y-106.4
X104.0Y-119.25
X105.075Y-105.1
X105.925Y-107.95
X105.962Y-109.212
X106.575Y-105.1
X106.575Y-112.0
X107.237Y-109.262
X107.3Y-107.9
X108.325Y-105.1
X109.712Y-113.5
X110.075Y-109.0
X110.825Y-106.825
X111.313Y-113.4
X111.562Y-104.762
X112.101Y-108.0
X112.413Y-99.487
X112.93Y-102.4
X114.737Y-99.55
X114.8Y-102.4
X115.325Y-112.8
X117.0Y-99.475
X117.0Y-102.4
X119.86Y-99.477
X122.2Y-99.477
X123.58Y-75.4
X123.58Y-77.4
X123.58Y-79.4
X123.58Y-81.4
X125.58Y-75.4
X125.58Y-77.4
X125.58Y-79.4
X125.58Y-81.4
X127.58Y-75.4
X127.58Y-77.4
X127.58Y-79.4
X127.58Y-81.4
T2
X110.26Y-92.6
X110.26Y-95.14
X112.8Y-92.6
X112.8Y-95.14
X115.34Y-92.6
X115.34Y-95.14
X117.88Y-92.6
X117.88Y-95.14
X120.42Y-92.6
X120.42Y-95.14
T3
X88.51Y-102.5
X88.51Y-105.0
X88.515Y-79.25
X88.515Y-81.75
X88.515Y-84.25
X88.515Y-89.75
X88.515Y-92.25
X88.515Y-94.75
X88.515Y-97.25
X91.015Y-79.25
X91.015Y-81.75
X91.015Y-84.25
X91.015Y-89.75
X91.015Y-92.25
X91.015Y-94.75
X91.015Y-97.25
T4
X85.0Y-110.6
X88.5Y-117.6
X89.3Y-110.6
X101.8Y-98.0
X102.75Y-76.74
X122.8Y-108.4
X124.0Y-86.5
T5
X102.77Y-80.84
X102.77Y-84.24
X112.69Y-80.84
X112.69Y-84.24
T6
X95.142Y-116.95
X95.152Y-70.48
X125.892Y-70.48
X125.892Y-116.95
M30
