%TF.GenerationSoftware,KiCad,Pcbnew,9.0.4*%
%TF.CreationDate,2025-10-18T22:12:50-05:00*%
%TF.ProjectId,Black Body,426c6163-6b20-4426-9f64-792e6b696361,rev?*%
%TF.SameCoordinates,Original*%
%TF.FileFunction,Copper,L1,Top*%
%TF.FilePolarity,Positive*%
%FSLAX46Y46*%
G04 Gerber Fmt 4.6, Leading zero omitted, Abs format (unit mm)*
G04 Created by KiCad (PCBNEW 9.0.4) date 2025-10-18 22:12:50*
%MOMM*%
%LPD*%
G01*
G04 APERTURE LIST*
G04 Aperture macros list*
%AMRoundRect*
0 Rectangle with rounded corners*
0 $1 Rounding radius*
0 $2 $3 $4 $5 $6 $7 $8 $9 X,Y pos of 4 corners*
0 Add a 4 corners polygon primitive as box body*
4,1,4,$2,$3,$4,$5,$6,$7,$8,$9,$2,$3,0*
0 Add four circle primitives for the rounded corners*
1,1,$1+$1,$2,$3*
1,1,$1+$1,$4,$5*
1,1,$1+$1,$6,$7*
1,1,$1+$1,$8,$9*
0 Add four rect primitives between the rounded corners*
20,1,$1+$1,$2,$3,$4,$5,0*
20,1,$1+$1,$4,$5,$6,$7,0*
20,1,$1+$1,$6,$7,$8,$9,0*
20,1,$1+$1,$8,$9,$2,$3,0*%
G04 Aperture macros list end*
%TA.AperFunction,SMDPad,CuDef*%
%ADD10R,1.000000X1.000000*%
%TD*%
%TA.AperFunction,ComponentPad*%
%ADD11R,1.700000X1.700000*%
%TD*%
%TA.AperFunction,SMDPad,CuDef*%
%ADD12RoundRect,0.250000X-0.262500X-0.450000X0.262500X-0.450000X0.262500X0.450000X-0.262500X0.450000X0*%
%TD*%
%TA.AperFunction,SMDPad,CuDef*%
%ADD13RoundRect,0.237500X0.250000X0.237500X-0.250000X0.237500X-0.250000X-0.237500X0.250000X-0.237500X0*%
%TD*%
%TA.AperFunction,SMDPad,CuDef*%
%ADD14R,0.350000X0.850000*%
%TD*%
%TA.AperFunction,SMDPad,CuDef*%
%ADD15R,0.850000X0.350000*%
%TD*%
%TA.AperFunction,SMDPad,CuDef*%
%ADD16R,3.350000X3.350000*%
%TD*%
%TA.AperFunction,SMDPad,CuDef*%
%ADD17RoundRect,0.250000X0.337500X0.475000X-0.337500X0.475000X-0.337500X-0.475000X0.337500X-0.475000X0*%
%TD*%
%TA.AperFunction,SMDPad,CuDef*%
%ADD18RoundRect,0.237500X0.237500X-0.250000X0.237500X0.250000X-0.237500X0.250000X-0.237500X-0.250000X0*%
%TD*%
%TA.AperFunction,SMDPad,CuDef*%
%ADD19RoundRect,0.237500X-0.237500X0.287500X-0.237500X-0.287500X0.237500X-0.287500X0.237500X0.287500X0*%
%TD*%
%TA.AperFunction,SMDPad,CuDef*%
%ADD20RoundRect,0.237500X0.287500X0.237500X-0.287500X0.237500X-0.287500X-0.237500X0.287500X-0.237500X0*%
%TD*%
%TA.AperFunction,SMDPad,CuDef*%
%ADD21RoundRect,0.250000X-0.450000X0.262500X-0.450000X-0.262500X0.450000X-0.262500X0.450000X0.262500X0*%
%TD*%
%TA.AperFunction,ComponentPad*%
%ADD22C,1.700000*%
%TD*%
%TA.AperFunction,ComponentPad*%
%ADD23C,2.780000*%
%TD*%
%TA.AperFunction,SMDPad,CuDef*%
%ADD24RoundRect,0.237500X-0.250000X-0.237500X0.250000X-0.237500X0.250000X0.237500X-0.250000X0.237500X0*%
%TD*%
%TA.AperFunction,SMDPad,CuDef*%
%ADD25RoundRect,0.250000X-0.475000X0.337500X-0.475000X-0.337500X0.475000X-0.337500X0.475000X0.337500X0*%
%TD*%
%TA.AperFunction,ComponentPad*%
%ADD26C,3.600000*%
%TD*%
%TA.AperFunction,ConnectorPad*%
%ADD27C,6.400000*%
%TD*%
%TA.AperFunction,ComponentPad*%
%ADD28C,1.905000*%
%TD*%
%TA.AperFunction,ViaPad*%
%ADD29C,0.600000*%
%TD*%
%TA.AperFunction,Conductor*%
%ADD30C,0.250000*%
%TD*%
%TA.AperFunction,Conductor*%
%ADD31C,0.500000*%
%TD*%
%TA.AperFunction,Conductor*%
%ADD32C,0.200000*%
%TD*%
%TA.AperFunction,Conductor*%
%ADD33C,0.700000*%
%TD*%
G04 APERTURE END LIST*
D10*
%TO.P,TP_TC_F_1,1,1*%
%TO.N,Net-(IC2-VIN-)*%
X103000000Y-99300000D03*
%TD*%
D11*
%TO.P,I2C_SDA,1,1*%
%TO.N,/I2C1_SDA*%
X112250000Y-92750000D03*
%TD*%
%TO.P,INT,1,1*%
%TO.N,/INT*%
X117000000Y-101750000D03*
%TD*%
%TO.P,I2C_SCL,1,1*%
%TO.N,/I2C1_SCL*%
X116400000Y-92800000D03*
%TD*%
D10*
%TO.P,VCC,1,1*%
%TO.N,+3V3*%
X110500000Y-88900000D03*
%TD*%
%TO.P,GND,1,1*%
%TO.N,GND*%
X124100000Y-103100000D03*
%TD*%
D12*
%TO.P,R11,2*%
%TO.N,+3V3*%
X114000000Y-103750000D03*
%TO.P,R11,1*%
%TO.N,/I2C1_SCL*%
X112175000Y-103750000D03*
%TD*%
D13*
%TO.P,Rb1,1*%
%TO.N,GND*%
X113162500Y-110500000D03*
%TO.P,Rb1,2*%
%TO.N,Net-(IC2-ADDR)*%
X111337500Y-110500000D03*
%TD*%
D14*
%TO.P,IC2,1,SYS_GND*%
%TO.N,SYS_GND*%
X107875000Y-106150000D03*
%TO.P,IC2,2,VIN+*%
%TO.N,Net-(IC2-VIN+)*%
X107225000Y-106150000D03*
%TO.P,IC2,3,SYS_GND*%
%TO.N,SYS_GND*%
X106575000Y-106150000D03*
%TO.P,IC2,4,VIN-*%
%TO.N,Net-(IC2-VIN-)*%
X105925000Y-106150000D03*
%TO.P,IC2,5,SYS_GND*%
%TO.N,SYS_GND*%
X105275000Y-106150000D03*
D15*
%TO.P,IC2,6,GND*%
%TO.N,GND*%
X104125000Y-107300000D03*
%TO.P,IC2,7,GND*%
X104125000Y-107950000D03*
%TO.P,IC2,8,VDD*%
%TO.N,+3V3*%
X104125000Y-108600000D03*
%TO.P,IC2,9,GND*%
%TO.N,GND*%
X104125000Y-109250000D03*
%TO.P,IC2,10,GND*%
X104125000Y-109900000D03*
D14*
%TO.P,IC2,11,ALERT_1*%
%TO.N,/Alert_1*%
X105275000Y-111050000D03*
%TO.P,IC2,12,ALERT_2*%
%TO.N,/Alert_2*%
X105925000Y-111050000D03*
%TO.P,IC2,13,SYS_GND*%
%TO.N,SYS_GND*%
X106575000Y-111050000D03*
%TO.P,IC2,14,ALERT_3*%
%TO.N,/Alert_3*%
X107225000Y-111050000D03*
%TO.P,IC2,15,ALERT_4*%
%TO.N,/Alert_4*%
X107875000Y-111050000D03*
D15*
%TO.P,IC2,16,ADDR*%
%TO.N,Net-(IC2-ADDR)*%
X109025000Y-109900000D03*
%TO.P,IC2,17,SYS_GND*%
%TO.N,SYS_GND*%
X109025000Y-109250000D03*
%TO.P,IC2,18,GND*%
%TO.N,GND*%
X109025000Y-108600000D03*
%TO.P,IC2,19,SCL*%
%TO.N,/I2C1_SCL*%
X109025000Y-107950000D03*
%TO.P,IC2,20,SDA*%
%TO.N,/I2C1_SDA*%
X109025000Y-107300000D03*
D16*
%TO.P,IC2,21,EPAD*%
%TO.N,GND*%
X106575000Y-108600000D03*
%TD*%
D10*
%TO.P,TP_TC_1,1,1*%
%TO.N,/Temp+*%
X105300000Y-91500000D03*
%TD*%
D17*
%TO.P,C3,1*%
%TO.N,Net-(IC2-VIN+)*%
X107500000Y-102750000D03*
%TO.P,C3,2*%
%TO.N,Net-(IC2-VIN-)*%
X105425000Y-102750000D03*
%TD*%
D18*
%TO.P,R9,1*%
%TO.N,SYS_GND*%
X109250000Y-103712500D03*
%TO.P,R9,2*%
%TO.N,GND*%
X109250000Y-101887500D03*
%TD*%
D13*
%TO.P,R7,1*%
%TO.N,Net-(DB_2-A)*%
X117912500Y-112250000D03*
%TO.P,R7,2*%
%TO.N,+3V3*%
X116087500Y-112250000D03*
%TD*%
D18*
%TO.P,R6,1*%
%TO.N,Net-(IC2-VIN+)*%
X107500000Y-99325000D03*
%TO.P,R6,2*%
%TO.N,Net-(FB2-Pad2)*%
X107500000Y-97500000D03*
%TD*%
D19*
%TO.P,FB1,1*%
%TO.N,/Temp+*%
X105500000Y-93625000D03*
%TO.P,FB1,2*%
%TO.N,Net-(FB1-Pad2)*%
X105500000Y-95375000D03*
%TD*%
D20*
%TO.P,Heartbeat1,1,K*%
%TO.N,/Heartbeat*%
X121375000Y-110500000D03*
%TO.P,Heartbeat1,2,A*%
%TO.N,Net-(Heartbeat1-A)*%
X119625000Y-110500000D03*
%TD*%
D10*
%TO.P,TP_TC_F_2,1,1*%
%TO.N,Net-(IC2-VIN+)*%
X103000000Y-96500000D03*
%TD*%
D13*
%TO.P,R4,1*%
%TO.N,Net-(DB_1-A)*%
X117912500Y-107000000D03*
%TO.P,R4,2*%
%TO.N,+3V3*%
X116087500Y-107000000D03*
%TD*%
D21*
%TO.P,R3,1*%
%TO.N,+3V3*%
X110500000Y-96925000D03*
%TO.P,R3,2*%
%TO.N,/I2C1_SDA*%
X110500000Y-98750000D03*
%TD*%
D20*
%TO.P,DB_2,1,K*%
%TO.N,/DB_Conn_2*%
X121375000Y-112250000D03*
%TO.P,DB_2,2,A*%
%TO.N,Net-(DB_2-A)*%
X119625000Y-112250000D03*
%TD*%
D11*
%TO.P,J3,1,Pin_1*%
%TO.N,/INT*%
X88885000Y-114310000D03*
D22*
%TO.P,J3,2,Pin_2*%
%TO.N,/I2C1_SCL*%
X88885000Y-111770000D03*
%TO.P,J3,3,Pin_3*%
%TO.N,/I2C1_SDA*%
X88885000Y-109230000D03*
%TO.P,J3,4,Pin_4*%
%TO.N,GND*%
X88885000Y-106690000D03*
%TD*%
D13*
%TO.P,R10,1*%
%TO.N,Net-(DB_3-A)*%
X117912500Y-108750000D03*
%TO.P,R10,2*%
%TO.N,+3V3*%
X116087500Y-108750000D03*
%TD*%
D21*
%TO.P,R1,1*%
%TO.N,+3V3*%
X117000000Y-96987500D03*
%TO.P,R1,2*%
%TO.N,/INT*%
X117000000Y-98812500D03*
%TD*%
D13*
%TO.P,R8,1*%
%TO.N,Net-(Heartbeat1-A)*%
X117912500Y-110500000D03*
%TO.P,R8,2*%
%TO.N,+3V3*%
X116087500Y-110500000D03*
%TD*%
D10*
%TO.P,TP_TC_2,1,1*%
%TO.N,/Temp-*%
X107700000Y-91500000D03*
%TD*%
D20*
%TO.P,DB_1,1,K*%
%TO.N,/DB_Conn_1*%
X121375000Y-107000000D03*
%TO.P,DB_1,2,A*%
%TO.N,Net-(DB_1-A)*%
X119625000Y-107000000D03*
%TD*%
D23*
%TO.P,F1,1*%
%TO.N,/temp*%
X81040000Y-98050000D03*
X81040000Y-101450000D03*
%TO.P,F1,2*%
%TO.N,+24V*%
X90960000Y-98050000D03*
X90960000Y-101450000D03*
%TD*%
D18*
%TO.P,R5,1*%
%TO.N,Net-(IC2-VIN-)*%
X105500000Y-99325000D03*
%TO.P,R5,2*%
%TO.N,Net-(FB1-Pad2)*%
X105500000Y-97500000D03*
%TD*%
D24*
%TO.P,Ra1,1*%
%TO.N,Net-(IC2-ADDR)*%
X111287500Y-108800000D03*
%TO.P,Ra1,2*%
%TO.N,+3V3*%
X113112500Y-108800000D03*
%TD*%
D21*
%TO.P,R2,1*%
%TO.N,+3V3*%
X113000000Y-97087500D03*
%TO.P,R2,2*%
%TO.N,/I2C1_SCL*%
X113000000Y-98912500D03*
%TD*%
D12*
%TO.P,R12,1*%
%TO.N,/I2C1_SDA*%
X112175000Y-106250000D03*
%TO.P,R12,2*%
%TO.N,+3V3*%
X114000000Y-106250000D03*
%TD*%
D20*
%TO.P,DB_3,1,K*%
%TO.N,/DB_Conn_3*%
X121375000Y-108750000D03*
%TO.P,DB_3,2,A*%
%TO.N,Net-(DB_3-A)*%
X119625000Y-108750000D03*
%TD*%
D25*
%TO.P,C2,1*%
%TO.N,GND*%
X102400000Y-104762500D03*
%TO.P,C2,2*%
%TO.N,+3V3*%
X102400000Y-106837500D03*
%TD*%
D19*
%TO.P,FB2,1*%
%TO.N,/Temp-*%
X107500000Y-93625000D03*
%TO.P,FB2,2*%
%TO.N,Net-(FB2-Pad2)*%
X107500000Y-95375000D03*
%TD*%
D26*
%TO.P,J1,25,MNT*%
%TO.N,unconnected-(J1-MNT-Pad25)_1*%
X95280000Y-116950000D03*
D27*
%TO.N,unconnected-(J1-MNT-Pad25)_2*%
X95280000Y-116950000D03*
D26*
%TO.P,J1,26,MNT*%
%TO.N,unconnected-(J1-MNT-Pad26)_1*%
X126030000Y-116950000D03*
D27*
%TO.N,unconnected-(J1-MNT-Pad26)_2*%
X126030000Y-116950000D03*
D26*
%TO.P,J1,27,MNT*%
%TO.N,unconnected-(J1-MNT-Pad27)_1*%
X126030000Y-70480000D03*
D27*
%TO.N,unconnected-(J1-MNT-Pad27)_2*%
X126030000Y-70480000D03*
D26*
%TO.P,J1,28,MNT*%
%TO.N,unconnected-(J1-MNT-Pad28)*%
X95290000Y-70480000D03*
D27*
%TO.N,unconnected-(J1-MNT-Pad28)_1*%
X95290000Y-70480000D03*
%TD*%
D28*
%TO.P,J4,1,Temp_+*%
%TO.N,/Temp+*%
X87750000Y-94000001D03*
%TO.P,J4,2,+24V*%
%TO.N,/temp*%
X87750000Y-90500000D03*
%TO.P,J4,3,CAN_H_IN*%
%TO.N,/CAN_H*%
X87750000Y-86999999D03*
%TO.P,J4,4,CAN_L_IN*%
%TO.N,/CAN_L*%
X87750000Y-83499999D03*
%TO.P,J4,5,Power_Out*%
%TO.N,GND*%
X87750000Y-79999998D03*
%TO.P,J4,6,Irradiance+*%
%TO.N,+3V3*%
X87750000Y-76499997D03*
%TO.P,J4,7,SCL*%
%TO.N,/I2C1_SCL*%
X87750000Y-72999997D03*
%TO.P,J4,8,INT*%
%TO.N,/INT*%
X87750000Y-69499996D03*
%TO.P,J4,9,Temp-*%
%TO.N,/Temp-*%
X81749997Y-94000001D03*
%TO.P,J4,10,+24V*%
%TO.N,/temp*%
X81749997Y-90500000D03*
%TO.P,J4,11,CAN_H_OUT*%
%TO.N,/CAN_H*%
X81749997Y-86999999D03*
%TO.P,J4,12,CAN_L_OUT*%
%TO.N,/CAN_L*%
X81749997Y-83499999D03*
%TO.P,J4,13,Power_Out*%
%TO.N,GND*%
X81749997Y-79999998D03*
%TO.P,J4,14,Irradiance-*%
X81749997Y-76499997D03*
%TO.P,J4,15,SDA*%
%TO.N,/I2C1_SDA*%
X81749997Y-72999997D03*
%TO.P,J4,16*%
%TO.N,unconnected-(J4-Pad16)*%
X81749997Y-69499996D03*
%TD*%
D29*
%TO.N,GND*%
X117000000Y-86000000D03*
X117000000Y-88000000D03*
X119000000Y-86000000D03*
X119000000Y-88000000D03*
X117000000Y-82000000D03*
X117000000Y-84000000D03*
X119000000Y-82000000D03*
X119000000Y-84000000D03*
X117000000Y-78000000D03*
X117000000Y-80000000D03*
X119000000Y-78000000D03*
X119000000Y-80000000D03*
X117000000Y-74000000D03*
X117000000Y-76000000D03*
X119000000Y-74000000D03*
X119000000Y-76000000D03*
X113000000Y-82000000D03*
X113000000Y-84000000D03*
X115000000Y-82000000D03*
X115000000Y-84000000D03*
X113000000Y-78000000D03*
X113000000Y-80000000D03*
X115000000Y-78000000D03*
X115000000Y-80000000D03*
X109000000Y-78000000D03*
X109000000Y-80000000D03*
X111000000Y-78000000D03*
X111000000Y-80000000D03*
X113000000Y-74000000D03*
X113000000Y-76000000D03*
X115000000Y-74000000D03*
X115000000Y-76000000D03*
X109000000Y-74000000D03*
X109000000Y-76000000D03*
X111000000Y-74000000D03*
X111000000Y-76000000D03*
X105000000Y-74000000D03*
X105000000Y-76000000D03*
X107000000Y-74000000D03*
X107000000Y-76000000D03*
X97000000Y-85000000D03*
X97000000Y-87000000D03*
X99000000Y-85000000D03*
X99000000Y-87000000D03*
X93000000Y-83000000D03*
X93000000Y-85000000D03*
X95000000Y-83000000D03*
X95000000Y-85000000D03*
X93000000Y-79200000D03*
X93000000Y-81200000D03*
X95000000Y-79200000D03*
X95000000Y-81200000D03*
%TO.N,+3V3*%
X117000000Y-97000000D03*
X102400000Y-106837500D03*
%TO.N,/I2C1_SDA*%
X114400000Y-116200000D03*
X112600000Y-116200000D03*
%TO.N,/Alert_1*%
X105300000Y-111900000D03*
%TO.N,+3V3*%
X114000000Y-103750000D03*
X113000000Y-97000000D03*
%TO.N,GND*%
X102000000Y-118000000D03*
X100000000Y-118000000D03*
X121000000Y-117000000D03*
X121000000Y-119000000D03*
X104000000Y-110700000D03*
X121000000Y-115000000D03*
X119000000Y-119000000D03*
X104000000Y-106000000D03*
X119000000Y-117000000D03*
%TO.N,+3V3*%
X110500000Y-97000000D03*
X116087500Y-107000000D03*
X116087500Y-110500000D03*
X116087500Y-108750000D03*
X116087500Y-112250000D03*
%TO.N,/DB_Conn_1*%
X106649996Y-117749998D03*
%TO.N,/Heartbeat*%
X108250000Y-117749763D03*
%TO.N,/I2C1_SCL*%
X110700000Y-107691942D03*
%TO.N,/DB_Conn_2*%
X109050002Y-117750016D03*
%TO.N,/DB_Conn_3*%
X107449998Y-117750016D03*
%TO.N,/I2C1_SDA*%
X110575000Y-105850000D03*
X112175000Y-106250000D03*
%TO.N,/Alert_3*%
X109921266Y-113444849D03*
%TO.N,/Alert_2*%
X108703935Y-113400630D03*
%TO.N,/Alert_4*%
X110712785Y-113127000D03*
%TO.N,SYS_GND*%
X110075000Y-109000000D03*
X106575000Y-112000000D03*
X108325000Y-105100000D03*
X106575000Y-105100000D03*
X105075000Y-105100000D03*
%TD*%
D30*
%TO.N,Net-(IC2-VIN+)*%
X103100000Y-96500000D02*
X103000000Y-96500000D01*
X104913500Y-98313500D02*
X103100000Y-96500000D01*
X106738500Y-98313500D02*
X104913500Y-98313500D01*
X107225000Y-106150000D02*
X107225000Y-103025000D01*
X107225000Y-103025000D02*
X107500000Y-102750000D01*
%TO.N,Net-(IC2-VIN-)*%
X105925000Y-103250000D02*
X105425000Y-102750000D01*
X105925000Y-106150000D02*
X105925000Y-103250000D01*
%TO.N,/I2C1_SCL*%
X89520500Y-74770497D02*
X87750000Y-72999997D01*
X116400000Y-92500000D02*
X98670497Y-74770497D01*
X116400000Y-92800000D02*
X116400000Y-92500000D01*
X98670497Y-74770497D02*
X89520500Y-74770497D01*
%TO.N,/INT*%
X117000000Y-98812500D02*
X117000000Y-101750000D01*
D31*
%TO.N,+3V3*%
X117000000Y-97100000D02*
X117000000Y-96987500D01*
X115049000Y-99051000D02*
X117000000Y-97100000D01*
X115049000Y-100874292D02*
X115049000Y-99051000D01*
D30*
%TO.N,/I2C1_SCL*%
X116400000Y-95221514D02*
X113000000Y-98621514D01*
X116400000Y-92800000D02*
X116400000Y-95221514D01*
X113000000Y-98621514D02*
X113000000Y-98912500D01*
D31*
%TO.N,+3V3*%
X114000000Y-101923292D02*
X115049000Y-100874292D01*
X114000000Y-103750000D02*
X114000000Y-101923292D01*
X102400000Y-107727000D02*
X102400000Y-106837500D01*
X103273000Y-108600000D02*
X102400000Y-107727000D01*
X104125000Y-108600000D02*
X103273000Y-108600000D01*
D30*
%TO.N,/I2C1_SDA*%
X98473497Y-75221497D02*
X112250000Y-88998000D01*
X83971497Y-75221497D02*
X98473497Y-75221497D01*
X81749997Y-72999997D02*
X83971497Y-75221497D01*
X112250000Y-88998000D02*
X112250000Y-92750000D01*
D31*
%TO.N,+3V3*%
X98099997Y-76499997D02*
X110500000Y-88900000D01*
X87750000Y-76499997D02*
X98099997Y-76499997D01*
X110500000Y-88900000D02*
X110500000Y-96925000D01*
D30*
%TO.N,/I2C1_SDA*%
X112600000Y-116200000D02*
X114400000Y-116200000D01*
D32*
%TO.N,/DB_Conn_2*%
X116325000Y-117300000D02*
X121375000Y-112250000D01*
X109500018Y-117300000D02*
X116325000Y-117300000D01*
X109050002Y-117750016D02*
X109500018Y-117300000D01*
D30*
%TO.N,/Alert_2*%
X107090332Y-113400630D02*
X105925000Y-112235298D01*
X105925000Y-112235298D02*
X105925000Y-111050000D01*
X108703935Y-113400630D02*
X107090332Y-113400630D01*
%TO.N,/Alert_3*%
X109746042Y-113046042D02*
X109233232Y-113046042D01*
X109921266Y-113221266D02*
X109746042Y-113046042D01*
X109921266Y-113444849D02*
X109921266Y-113221266D01*
X108093595Y-111906405D02*
X109233232Y-113046042D01*
X107479405Y-111906405D02*
X108093595Y-111906405D01*
X107225000Y-111652000D02*
X107479405Y-111906405D01*
X107225000Y-111050000D02*
X107225000Y-111652000D01*
D32*
%TO.N,/Alert_1*%
X105275000Y-111875000D02*
X105300000Y-111900000D01*
X105275000Y-111050000D02*
X105275000Y-111875000D01*
D30*
%TO.N,/Alert_4*%
X109984733Y-112595042D02*
X109420042Y-112595042D01*
X109420042Y-112595042D02*
X107875000Y-111050000D01*
X110516691Y-113127000D02*
X109984733Y-112595042D01*
X110712785Y-113127000D02*
X110516691Y-113127000D01*
%TO.N,/DB_Conn_1*%
X114500000Y-109046510D02*
X115597510Y-107949000D01*
X111285033Y-113751735D02*
X114500000Y-110536768D01*
X111002190Y-113751735D02*
X111285033Y-113751735D01*
X111001924Y-113752000D02*
X111002190Y-113751735D01*
X110498000Y-113752000D02*
X111001924Y-113752000D01*
X106649996Y-117749998D02*
X106649996Y-117600004D01*
X106649996Y-117600004D02*
X110498000Y-113752000D01*
X114500000Y-110536768D02*
X114500000Y-109046510D01*
D32*
%TO.N,/Temp+*%
X105300000Y-90400000D02*
X105300000Y-91500000D01*
X104900000Y-90000000D02*
X105300000Y-90400000D01*
X88799999Y-94000001D02*
X92800000Y-90000000D01*
X92800000Y-90000000D02*
X104900000Y-90000000D01*
X87750000Y-94000001D02*
X88799999Y-94000001D01*
%TO.N,/Temp-*%
X105700000Y-89500000D02*
X107700000Y-91500000D01*
X89453499Y-92746501D02*
X92700000Y-89500000D01*
X83003497Y-92746501D02*
X89453499Y-92746501D01*
X92700000Y-89500000D02*
X105700000Y-89500000D01*
X81749997Y-94000001D02*
X83003497Y-92746501D01*
X107500000Y-91700000D02*
X107700000Y-91500000D01*
X107500000Y-93625000D02*
X107500000Y-91700000D01*
%TO.N,/Temp+*%
X105500000Y-91700000D02*
X105300000Y-91500000D01*
X105500000Y-93625000D02*
X105500000Y-91700000D01*
D30*
%TO.N,Net-(FB1-Pad2)*%
X105500000Y-97500000D02*
X105500000Y-95375000D01*
%TO.N,Net-(FB2-Pad2)*%
X107500000Y-97500000D02*
X107500000Y-95375000D01*
%TO.N,Net-(IC2-VIN+)*%
X107500000Y-102750000D02*
X107500000Y-99325000D01*
%TO.N,Net-(IC2-VIN-)*%
X105475000Y-99300000D02*
X105500000Y-99325000D01*
X103000000Y-99300000D02*
X105475000Y-99300000D01*
X105425000Y-99400000D02*
X105500000Y-99325000D01*
X105425000Y-102750000D02*
X105425000Y-99400000D01*
X105425000Y-102425000D02*
X105500000Y-102350000D01*
%TO.N,/I2C1_SDA*%
X111974000Y-97276000D02*
X111974000Y-93026000D01*
X111974000Y-93026000D02*
X112250000Y-92750000D01*
X110500000Y-98750000D02*
X111974000Y-97276000D01*
X110500000Y-105750000D02*
X110500000Y-98750000D01*
X110575000Y-105850000D02*
X110575000Y-105825000D01*
X110575000Y-105825000D02*
X110500000Y-105750000D01*
%TO.N,/I2C1_SCL*%
X112175000Y-99737500D02*
X113000000Y-98912500D01*
X112175000Y-103750000D02*
X112175000Y-99737500D01*
%TO.N,/Heartbeat*%
X108250000Y-117664720D02*
X110414720Y-115500000D01*
X108250000Y-117749763D02*
X108250000Y-117664720D01*
X110414720Y-115500000D02*
X111500000Y-115500000D01*
%TO.N,/DB_Conn_3*%
X111471578Y-114203000D02*
X115274000Y-110400578D01*
X110911465Y-114203000D02*
X111471578Y-114203000D01*
X115274000Y-110400578D02*
X115274000Y-110022510D01*
X107449998Y-117664467D02*
X110911465Y-114203000D01*
X107449998Y-117750016D02*
X107449998Y-117664467D01*
X115274000Y-110022510D02*
X115597510Y-109699000D01*
D33*
%TO.N,/temp*%
X81040000Y-98050000D02*
X81040000Y-101450000D01*
X81749997Y-90500000D02*
X87750000Y-90500000D01*
D30*
%TO.N,/CAN_H*%
X81749997Y-86999999D02*
X87750000Y-86999999D01*
%TO.N,/CAN_L*%
X81749997Y-83499999D02*
X87750000Y-83499999D01*
D32*
%TO.N,/DB_Conn_3*%
X120426000Y-109699000D02*
X121375000Y-108750000D01*
X115597510Y-109699000D02*
X120426000Y-109699000D01*
D30*
%TO.N,SYS_GND*%
X108325000Y-104637500D02*
X109250000Y-103712500D01*
X108325000Y-105100000D02*
X108325000Y-104637500D01*
%TO.N,GND*%
X104125000Y-107300000D02*
X104125000Y-106125000D01*
X104125000Y-106125000D02*
X104000000Y-106000000D01*
X104125000Y-109250000D02*
X105925000Y-109250000D01*
X106600000Y-108600000D02*
X109400000Y-105800000D01*
X104125000Y-107950000D02*
X105925000Y-107950000D01*
X104125000Y-107300000D02*
X105275000Y-107300000D01*
D32*
X105925000Y-109250000D02*
X105962500Y-109212500D01*
D30*
X109025000Y-108600000D02*
X106575000Y-108600000D01*
X107225000Y-109250000D02*
X109276000Y-111301000D01*
X109276000Y-111301000D02*
X112361500Y-111301000D01*
X112361500Y-111301000D02*
X113162500Y-110500000D01*
X104125000Y-109900000D02*
X105275000Y-109900000D01*
X106575000Y-108600000D02*
X106600000Y-108600000D01*
D31*
%TO.N,+3V3*%
X116087500Y-107000000D02*
X114750000Y-107000000D01*
X114000000Y-106250000D02*
X114000000Y-103300000D01*
X114000000Y-106250000D02*
X114000000Y-107912500D01*
X114000000Y-107912500D02*
X113112500Y-108800000D01*
X114750000Y-107000000D02*
X114000000Y-106250000D01*
D32*
%TO.N,/DB_Conn_1*%
X115597510Y-107949000D02*
X120426000Y-107949000D01*
X120426000Y-107949000D02*
X121375000Y-107000000D01*
D30*
%TO.N,/Heartbeat*%
X120574000Y-111301000D02*
X121375000Y-110500000D01*
X115699000Y-111301000D02*
X120574000Y-111301000D01*
X111500000Y-115500000D02*
X115699000Y-111301000D01*
%TO.N,/I2C1_SCL*%
X111336500Y-107055442D02*
X110700000Y-107691942D01*
X110700000Y-107691942D02*
X110700000Y-107775000D01*
X112175000Y-103300000D02*
X111336500Y-104138500D01*
X110441942Y-107950000D02*
X110700000Y-107691942D01*
X109025000Y-107950000D02*
X110441942Y-107950000D01*
X110700000Y-107691942D02*
X110593058Y-107691942D01*
X110700000Y-107691942D02*
X110783058Y-107691942D01*
X111336500Y-104138500D02*
X111336500Y-107055442D01*
%TO.N,Net-(IC2-VIN+)*%
X107750000Y-99325000D02*
X106738500Y-98313500D01*
D32*
%TO.N,Net-(IC2-VIN-)*%
X105250000Y-99325000D02*
X105250000Y-99662500D01*
X105250000Y-99662500D02*
X105212500Y-99700000D01*
D30*
%TO.N,Net-(IC2-ADDR)*%
X111237500Y-108850000D02*
X111287500Y-108800000D01*
X109639702Y-109900000D02*
X109815702Y-109724000D01*
X111287500Y-110550000D02*
X111287500Y-108800000D01*
X109815702Y-109724000D02*
X110461500Y-109724000D01*
X109025000Y-109900000D02*
X109639702Y-109900000D01*
X110461500Y-109724000D02*
X111287500Y-110550000D01*
D32*
%TO.N,/Alert_1*%
X105325000Y-111100000D02*
X105275000Y-111050000D01*
D30*
%TO.N,/I2C1_SDA*%
X110575000Y-106600000D02*
X109875000Y-107300000D01*
X110575000Y-105850000D02*
X110575000Y-106600000D01*
X109875000Y-107300000D02*
X109025000Y-107300000D01*
%TO.N,Net-(DB_1-A)*%
X117912500Y-107000000D02*
X119625000Y-107000000D01*
%TO.N,Net-(DB_2-A)*%
X117912500Y-112250000D02*
X119625000Y-112250000D01*
D32*
%TO.N,Net-(DB_3-A)*%
X118000000Y-108925000D02*
X117825000Y-108750000D01*
D30*
X117912500Y-108750000D02*
X119625000Y-108750000D01*
%TO.N,Net-(Heartbeat1-A)*%
X119625000Y-110500000D02*
X117912500Y-110500000D01*
D32*
X117875000Y-110537500D02*
X117912500Y-110500000D01*
D30*
%TO.N,SYS_GND*%
X106687500Y-104987500D02*
X106575000Y-105100000D01*
X105075000Y-105100000D02*
X105275000Y-105300000D01*
X107875000Y-106150000D02*
X107875000Y-105550000D01*
X109025000Y-109250000D02*
X109825000Y-109250000D01*
X109825000Y-109250000D02*
X110075000Y-109000000D01*
X107875000Y-105550000D02*
X108325000Y-105100000D01*
X105275000Y-105300000D02*
X105275000Y-106150000D01*
X106575000Y-106150000D02*
X106575000Y-105100000D01*
X106575000Y-112000000D02*
X106575000Y-111050000D01*
%TD*%
%TA.AperFunction,Conductor*%
%TO.N,GND*%
G36*
X123769947Y-67337940D02*
G01*
X123815702Y-67390744D01*
X123825646Y-67459902D01*
X123796621Y-67523458D01*
X123781573Y-67538108D01*
X123541893Y-67734807D01*
X123284807Y-67991893D01*
X123054150Y-68272950D01*
X123054140Y-68272964D01*
X122852151Y-68575261D01*
X122852140Y-68575279D01*
X122680756Y-68895916D01*
X122680754Y-68895921D01*
X122541614Y-69231834D01*
X122436067Y-69579776D01*
X122436064Y-69579787D01*
X122365137Y-69936369D01*
X122329500Y-70298209D01*
X122329500Y-70661790D01*
X122365137Y-71023630D01*
X122436064Y-71380212D01*
X122436067Y-71380223D01*
X122497510Y-71582775D01*
X122541614Y-71728164D01*
X122676342Y-72053428D01*
X122680754Y-72064078D01*
X122680756Y-72064083D01*
X122852140Y-72384720D01*
X122852151Y-72384738D01*
X123054140Y-72687035D01*
X123054150Y-72687049D01*
X123284807Y-72968106D01*
X123541893Y-73225192D01*
X123541898Y-73225196D01*
X123541899Y-73225197D01*
X123822956Y-73455854D01*
X124125268Y-73657853D01*
X124125277Y-73657858D01*
X124125279Y-73657859D01*
X124445916Y-73829243D01*
X124445918Y-73829243D01*
X124445924Y-73829247D01*
X124781836Y-73968386D01*
X125129767Y-74073930D01*
X125129773Y-74073931D01*
X125129776Y-74073932D01*
X125129787Y-74073935D01*
X125486369Y-74144862D01*
X125848206Y-74180500D01*
X125848209Y-74180500D01*
X126211791Y-74180500D01*
X126211794Y-74180500D01*
X126573631Y-74144862D01*
X126643045Y-74131054D01*
X126930212Y-74073935D01*
X126930223Y-74073932D01*
X126930223Y-74073931D01*
X126930233Y-74073930D01*
X127278164Y-73968386D01*
X127614076Y-73829247D01*
X127934732Y-73657853D01*
X128237044Y-73455854D01*
X128518101Y-73225197D01*
X128775197Y-72968101D01*
X128961900Y-72740601D01*
X129019643Y-72701270D01*
X129089488Y-72699399D01*
X129149256Y-72735586D01*
X129179972Y-72798342D01*
X129181751Y-72819269D01*
X129181734Y-114610709D01*
X129162049Y-114677749D01*
X129109245Y-114723503D01*
X129040087Y-114733447D01*
X128976531Y-114704422D01*
X128961881Y-114689374D01*
X128775192Y-114461893D01*
X128518106Y-114204807D01*
X128237049Y-113974150D01*
X128237048Y-113974149D01*
X128237044Y-113974146D01*
X127934732Y-113772147D01*
X127934727Y-113772144D01*
X127934720Y-113772140D01*
X127614083Y-113600756D01*
X127614078Y-113600754D01*
X127278165Y-113461614D01*
X126930223Y-113356067D01*
X126930212Y-113356064D01*
X126573630Y-113285137D01*
X126301111Y-113258296D01*
X126211794Y-113249500D01*
X125848206Y-113249500D01*
X125765679Y-113257628D01*
X125486369Y-113285137D01*
X125129787Y-113356064D01*
X125129776Y-113356067D01*
X124781834Y-113461614D01*
X124445921Y-113600754D01*
X124445916Y-113600756D01*
X124125279Y-113772140D01*
X124125261Y-113772151D01*
X123822964Y-113974140D01*
X123822950Y-113974150D01*
X123541893Y-114204807D01*
X123284807Y-114461893D01*
X123054150Y-114742950D01*
X123054140Y-114742964D01*
X122852151Y-115045261D01*
X122852140Y-115045279D01*
X122680756Y-115365916D01*
X122680754Y-115365921D01*
X122541614Y-115701834D01*
X122436067Y-116049776D01*
X122436064Y-116049787D01*
X122365137Y-116406369D01*
X122329500Y-116768209D01*
X122329500Y-117131790D01*
X122365137Y-117493630D01*
X122436064Y-117850212D01*
X122436067Y-117850223D01*
X122436069Y-117850232D01*
X122436070Y-117850233D01*
X122446556Y-117884803D01*
X122541614Y-118198165D01*
X122628230Y-118407273D01*
X122674819Y-118519751D01*
X122680754Y-118534078D01*
X122680756Y-118534083D01*
X122852140Y-118854720D01*
X122852151Y-118854738D01*
X123054140Y-119157035D01*
X123054150Y-119157049D01*
X123284807Y-119438106D01*
X123541893Y-119695192D01*
X123541898Y-119695196D01*
X123541899Y-119695197D01*
X123822956Y-119925854D01*
X124125268Y-120127853D01*
X124125277Y-120127858D01*
X124125279Y-120127859D01*
X124259172Y-120199426D01*
X124309016Y-120248388D01*
X124324477Y-120316526D01*
X124300646Y-120382205D01*
X124245088Y-120424574D01*
X124200766Y-120432784D01*
X97090147Y-120443036D01*
X97023100Y-120423377D01*
X96977325Y-120370590D01*
X96967355Y-120301435D01*
X96996356Y-120237869D01*
X97031644Y-120209679D01*
X97184732Y-120127853D01*
X97487044Y-119925854D01*
X97768101Y-119695197D01*
X98025197Y-119438101D01*
X98255854Y-119157044D01*
X98457853Y-118854732D01*
X98629247Y-118534076D01*
X98768386Y-118198164D01*
X98873930Y-117850233D01*
X98873932Y-117850223D01*
X98873935Y-117850212D01*
X98931054Y-117563045D01*
X98944862Y-117493631D01*
X98980500Y-117131794D01*
X98980500Y-116768206D01*
X98944862Y-116406369D01*
X98873935Y-116049787D01*
X98873932Y-116049776D01*
X98873931Y-116049773D01*
X98873930Y-116049767D01*
X98768386Y-115701836D01*
X98629247Y-115365924D01*
X98544772Y-115207883D01*
X98457859Y-115045279D01*
X98457858Y-115045277D01*
X98457853Y-115045268D01*
X98255854Y-114742956D01*
X98025197Y-114461899D01*
X98025196Y-114461898D01*
X98025192Y-114461893D01*
X97768106Y-114204807D01*
X97487049Y-113974150D01*
X97487048Y-113974149D01*
X97487044Y-113974146D01*
X97184732Y-113772147D01*
X97184727Y-113772144D01*
X97184720Y-113772140D01*
X96864083Y-113600756D01*
X96864078Y-113600754D01*
X96528165Y-113461614D01*
X96180223Y-113356067D01*
X96180212Y-113356064D01*
X95823630Y-113285137D01*
X95551111Y-113258296D01*
X95461794Y-113249500D01*
X95098206Y-113249500D01*
X95015679Y-113257628D01*
X94736369Y-113285137D01*
X94379787Y-113356064D01*
X94379776Y-113356067D01*
X94031834Y-113461614D01*
X93695921Y-113600754D01*
X93695916Y-113600756D01*
X93375279Y-113772140D01*
X93375261Y-113772151D01*
X93072964Y-113974140D01*
X93072950Y-113974150D01*
X92791893Y-114204807D01*
X92534807Y-114461893D01*
X92304150Y-114742950D01*
X92304140Y-114742964D01*
X92102151Y-115045261D01*
X92102140Y-115045279D01*
X91930756Y-115365916D01*
X91930754Y-115365921D01*
X91791614Y-115701834D01*
X91686067Y-116049776D01*
X91686064Y-116049787D01*
X91615137Y-116406369D01*
X91579500Y-116768209D01*
X91579500Y-117131790D01*
X91615137Y-117493630D01*
X91686064Y-117850212D01*
X91686067Y-117850223D01*
X91686069Y-117850232D01*
X91686070Y-117850233D01*
X91696556Y-117884803D01*
X91791614Y-118198165D01*
X91878230Y-118407273D01*
X91924819Y-118519751D01*
X91930754Y-118534078D01*
X91930756Y-118534083D01*
X92102140Y-118854720D01*
X92102151Y-118854738D01*
X92304140Y-119157035D01*
X92304150Y-119157049D01*
X92534807Y-119438106D01*
X92791893Y-119695192D01*
X92791898Y-119695196D01*
X92791899Y-119695197D01*
X93072956Y-119925854D01*
X93375268Y-120127853D01*
X93530912Y-120211046D01*
X93580756Y-120260008D01*
X93596217Y-120328145D01*
X93572386Y-120393825D01*
X93516828Y-120436194D01*
X93472506Y-120444404D01*
X80003773Y-120449497D01*
X79996239Y-120449271D01*
X79742364Y-120433915D01*
X79727500Y-120432110D01*
X79481001Y-120386938D01*
X79466461Y-120383354D01*
X79227211Y-120308800D01*
X79213211Y-120303491D01*
X78984680Y-120200638D01*
X78971421Y-120193679D01*
X78756960Y-120064033D01*
X78744637Y-120055527D01*
X78547363Y-119900972D01*
X78536155Y-119891042D01*
X78358957Y-119713844D01*
X78349027Y-119702636D01*
X78339724Y-119690762D01*
X78194468Y-119505356D01*
X78185970Y-119493045D01*
X78072669Y-119305623D01*
X78056320Y-119278578D01*
X78049361Y-119265319D01*
X77946508Y-119036788D01*
X77941199Y-119022788D01*
X77888826Y-118854720D01*
X77866644Y-118783536D01*
X77863061Y-118768998D01*
X77817889Y-118522499D01*
X77816084Y-118507635D01*
X77800726Y-118253736D01*
X77800500Y-118246249D01*
X77800500Y-109123713D01*
X87534500Y-109123713D01*
X87534500Y-109336286D01*
X87566340Y-109537319D01*
X87567754Y-109546243D01*
X87621833Y-109712681D01*
X87633444Y-109748414D01*
X87729951Y-109937820D01*
X87854890Y-110109786D01*
X88005213Y-110260109D01*
X88177182Y-110385050D01*
X88185946Y-110389516D01*
X88236742Y-110437491D01*
X88253536Y-110505312D01*
X88230998Y-110571447D01*
X88185946Y-110610484D01*
X88177182Y-110614949D01*
X88005213Y-110739890D01*
X87854890Y-110890213D01*
X87729951Y-111062179D01*
X87633444Y-111251585D01*
X87567753Y-111453760D01*
X87534500Y-111663713D01*
X87534500Y-111876286D01*
X87555264Y-112007389D01*
X87567754Y-112086243D01*
X87604927Y-112200650D01*
X87633444Y-112288414D01*
X87729951Y-112477820D01*
X87854890Y-112649786D01*
X87968430Y-112763326D01*
X88001915Y-112824649D01*
X87996931Y-112894341D01*
X87955059Y-112950274D01*
X87924083Y-112967189D01*
X87792669Y-113016203D01*
X87792664Y-113016206D01*
X87677455Y-113102452D01*
X87677452Y-113102455D01*
X87591206Y-113217664D01*
X87591202Y-113217671D01*
X87540908Y-113352517D01*
X87534501Y-113412116D01*
X87534501Y-113412123D01*
X87534500Y-113412135D01*
X87534500Y-115207870D01*
X87534501Y-115207876D01*
X87540908Y-115267483D01*
X87591202Y-115402328D01*
X87591206Y-115402335D01*
X87677452Y-115517544D01*
X87677455Y-115517547D01*
X87792664Y-115603793D01*
X87792671Y-115603797D01*
X87927517Y-115654091D01*
X87927516Y-115654091D01*
X87934444Y-115654835D01*
X87987127Y-115660500D01*
X89782872Y-115660499D01*
X89842483Y-115654091D01*
X89977331Y-115603796D01*
X90092546Y-115517546D01*
X90178796Y-115402331D01*
X90229091Y-115267483D01*
X90235500Y-115207873D01*
X90235499Y-113412128D01*
X90229091Y-113352517D01*
X90203960Y-113285138D01*
X90178797Y-113217671D01*
X90178793Y-113217664D01*
X90092547Y-113102455D01*
X90092544Y-113102452D01*
X89977335Y-113016206D01*
X89977328Y-113016202D01*
X89845917Y-112967189D01*
X89789983Y-112925318D01*
X89765566Y-112859853D01*
X89780418Y-112791580D01*
X89801563Y-112763332D01*
X89915104Y-112649792D01*
X89939142Y-112616707D01*
X90020146Y-112505213D01*
X90040051Y-112477816D01*
X90136557Y-112288412D01*
X90202246Y-112086243D01*
X90235500Y-111876287D01*
X90235500Y-111663713D01*
X90202246Y-111453757D01*
X90136557Y-111251588D01*
X90040051Y-111062184D01*
X90040049Y-111062181D01*
X90040048Y-111062179D01*
X89915109Y-110890213D01*
X89764786Y-110739890D01*
X89592820Y-110614951D01*
X89592115Y-110614591D01*
X89584054Y-110610485D01*
X89533259Y-110562512D01*
X89516463Y-110494692D01*
X89538999Y-110428556D01*
X89584054Y-110389515D01*
X89592816Y-110385051D01*
X89621419Y-110364270D01*
X89764786Y-110260109D01*
X89764788Y-110260106D01*
X89764792Y-110260104D01*
X89915104Y-110109792D01*
X89915106Y-110109788D01*
X89915109Y-110109786D01*
X90040048Y-109937820D01*
X90040047Y-109937820D01*
X90040051Y-109937816D01*
X90136557Y-109748412D01*
X90202246Y-109546243D01*
X90235500Y-109336287D01*
X90235500Y-109123713D01*
X90202246Y-108913757D01*
X90136557Y-108711588D01*
X90040051Y-108522184D01*
X90040049Y-108522181D01*
X90040048Y-108522179D01*
X89915109Y-108350213D01*
X89764786Y-108199890D01*
X89592820Y-108074951D01*
X89403414Y-107978444D01*
X89403413Y-107978443D01*
X89403412Y-107978443D01*
X89201243Y-107912754D01*
X89201241Y-107912753D01*
X89201240Y-107912753D01*
X89039957Y-107887208D01*
X88991287Y-107879500D01*
X88778713Y-107879500D01*
X88730042Y-107887208D01*
X88568760Y-107912753D01*
X88366585Y-107978444D01*
X88177179Y-108074951D01*
X88005213Y-108199890D01*
X87854890Y-108350213D01*
X87729951Y-108522179D01*
X87633444Y-108711585D01*
X87567753Y-108913760D01*
X87534500Y-109123713D01*
X77800500Y-109123713D01*
X77800500Y-106449983D01*
X101174500Y-106449983D01*
X101174500Y-107225001D01*
X101174501Y-107225019D01*
X101185000Y-107327796D01*
X101185001Y-107327799D01*
X101237695Y-107486818D01*
X101240186Y-107494334D01*
X101332288Y-107643656D01*
X101456344Y-107767712D01*
X101605666Y-107859814D01*
X101605673Y-107859816D01*
X101609937Y-107861805D01*
X101662378Y-107907976D01*
X101669893Y-107921730D01*
X101676232Y-107935307D01*
X101678342Y-107945913D01*
X101734916Y-108082495D01*
X101762982Y-108124499D01*
X101768237Y-108132364D01*
X101768239Y-108132368D01*
X101817046Y-108205414D01*
X101817052Y-108205421D01*
X102494116Y-108882483D01*
X102690048Y-109078415D01*
X102690049Y-109078416D01*
X102744177Y-109132544D01*
X102794585Y-109182952D01*
X102917498Y-109265080D01*
X102917511Y-109265087D01*
X103054082Y-109321656D01*
X103054087Y-109321658D01*
X103054091Y-109321658D01*
X103054092Y-109321659D01*
X103199079Y-109350500D01*
X103199082Y-109350500D01*
X104198920Y-109350500D01*
X104296462Y-109331096D01*
X104343913Y-109321658D01*
X104432562Y-109284937D01*
X104480015Y-109275499D01*
X104597871Y-109275499D01*
X104597872Y-109275499D01*
X104657483Y-109269091D01*
X104792331Y-109218796D01*
X104907546Y-109132546D01*
X104993796Y-109017331D01*
X105044091Y-108882483D01*
X105050500Y-108822873D01*
X105050499Y-108377128D01*
X105044091Y-108317517D01*
X105012375Y-108232483D01*
X104993797Y-108182671D01*
X104993793Y-108182664D01*
X104907547Y-108067455D01*
X104907544Y-108067452D01*
X104792335Y-107981206D01*
X104792328Y-107981202D01*
X104657482Y-107930908D01*
X104657483Y-107930908D01*
X104597883Y-107924501D01*
X104597881Y-107924500D01*
X104597873Y-107924500D01*
X104597865Y-107924500D01*
X104480013Y-107924500D01*
X104432560Y-107915061D01*
X104426990Y-107912754D01*
X104343913Y-107878342D01*
X104343907Y-107878340D01*
X104198920Y-107849500D01*
X104198918Y-107849500D01*
X103635229Y-107849500D01*
X103605788Y-107840855D01*
X103575802Y-107834332D01*
X103570786Y-107830577D01*
X103568190Y-107829815D01*
X103547548Y-107813181D01*
X103502825Y-107768458D01*
X103469340Y-107707135D01*
X103474324Y-107637443D01*
X103484964Y-107615684D01*
X103559814Y-107494334D01*
X103614999Y-107327797D01*
X103625500Y-107225009D01*
X103625499Y-106449992D01*
X103623538Y-106430799D01*
X103614999Y-106347203D01*
X103614998Y-106347200D01*
X103599904Y-106301650D01*
X103559814Y-106180666D01*
X103467712Y-106031344D01*
X103343656Y-105907288D01*
X103239606Y-105843110D01*
X103194336Y-105815187D01*
X103194331Y-105815185D01*
X103172470Y-105807941D01*
X103027797Y-105760001D01*
X103027795Y-105760000D01*
X102925010Y-105749500D01*
X101874998Y-105749500D01*
X101874980Y-105749501D01*
X101772203Y-105760000D01*
X101772200Y-105760001D01*
X101605668Y-105815185D01*
X101605663Y-105815187D01*
X101456342Y-105907289D01*
X101332289Y-106031342D01*
X101240187Y-106180663D01*
X101240185Y-106180668D01*
X101219041Y-106244477D01*
X101185001Y-106347203D01*
X101185001Y-106347204D01*
X101185000Y-106347204D01*
X101174500Y-106449983D01*
X77800500Y-106449983D01*
X77800500Y-97926096D01*
X79149500Y-97926096D01*
X79149500Y-98173903D01*
X79149501Y-98173919D01*
X79180910Y-98412500D01*
X79181847Y-98419610D01*
X79230180Y-98599991D01*
X79245990Y-98658992D01*
X79340819Y-98887931D01*
X79340827Y-98887948D01*
X79464729Y-99102551D01*
X79464740Y-99102567D01*
X79615595Y-99299166D01*
X79615601Y-99299173D01*
X79790826Y-99474398D01*
X79790833Y-99474404D01*
X79895931Y-99555048D01*
X79987441Y-99625266D01*
X80017486Y-99642613D01*
X80065701Y-99693178D01*
X80078925Y-99761785D01*
X80052957Y-99826650D01*
X80017490Y-99857384D01*
X79987446Y-99874731D01*
X79987432Y-99874740D01*
X79790833Y-100025595D01*
X79790826Y-100025601D01*
X79615601Y-100200826D01*
X79615595Y-100200833D01*
X79464740Y-100397432D01*
X79464729Y-100397448D01*
X79340827Y-100612051D01*
X79340819Y-100612068D01*
X79245990Y-100841007D01*
X79181846Y-101080393D01*
X79149501Y-101326080D01*
X79149500Y-101326096D01*
X79149500Y-101573903D01*
X79149501Y-101573919D01*
X79180846Y-101812011D01*
X79181847Y-101819610D01*
X79218303Y-101955666D01*
X79245990Y-102058992D01*
X79340819Y-102287931D01*
X79340827Y-102287948D01*
X79464729Y-102502551D01*
X79464740Y-102502567D01*
X79615595Y-102699166D01*
X79615601Y-102699173D01*
X79790826Y-102874398D01*
X79790832Y-102874403D01*
X79987441Y-103025266D01*
X79987448Y-103025270D01*
X80202051Y-103149172D01*
X80202056Y-103149174D01*
X80202059Y-103149176D01*
X80202063Y-103149177D01*
X80202068Y-103149180D01*
X80431007Y-103244009D01*
X80431009Y-103244009D01*
X80431015Y-103244012D01*
X80670390Y-103308153D01*
X80916090Y-103340500D01*
X80916097Y-103340500D01*
X81163903Y-103340500D01*
X81163910Y-103340500D01*
X81409610Y-103308153D01*
X81648985Y-103244012D01*
X81877941Y-103149176D01*
X82092559Y-103025266D01*
X82289168Y-102874403D01*
X82464403Y-102699168D01*
X82615266Y-102502559D01*
X82739176Y-102287941D01*
X82834012Y-102058985D01*
X82898153Y-101819610D01*
X82930500Y-101573910D01*
X82930500Y-101326090D01*
X82898153Y-101080390D01*
X82834012Y-100841015D01*
X82813923Y-100792516D01*
X82739180Y-100612068D01*
X82739172Y-100612051D01*
X82615270Y-100397448D01*
X82615266Y-100397441D01*
X82521698Y-100275500D01*
X82464404Y-100200833D01*
X82464398Y-100200826D01*
X82289173Y-100025601D01*
X82289166Y-100025595D01*
X82092567Y-99874740D01*
X82092565Y-99874739D01*
X82092559Y-99874734D01*
X82090618Y-99873613D01*
X82062511Y-99857385D01*
X82014296Y-99806817D01*
X82001075Y-99738209D01*
X82027044Y-99673345D01*
X82062508Y-99642615D01*
X82092559Y-99625266D01*
X82289168Y-99474403D01*
X82464403Y-99299168D01*
X82615266Y-99102559D01*
X82739176Y-98887941D01*
X82834012Y-98658985D01*
X82898153Y-98419610D01*
X82930500Y-98173910D01*
X82930500Y-97926096D01*
X89069500Y-97926096D01*
X89069500Y-98173903D01*
X89069501Y-98173919D01*
X89100910Y-98412500D01*
X89101847Y-98419610D01*
X89150180Y-98599991D01*
X89165990Y-98658992D01*
X89260819Y-98887931D01*
X89260827Y-98887948D01*
X89384729Y-99102551D01*
X89384740Y-99102567D01*
X89535595Y-99299166D01*
X89535601Y-99299173D01*
X89710826Y-99474398D01*
X89710833Y-99474404D01*
X89815931Y-99555048D01*
X89907441Y-99625266D01*
X89907452Y-99625272D01*
X89907453Y-99625273D01*
X89937487Y-99642614D01*
X89985702Y-99693181D01*
X89998924Y-99761788D01*
X89972956Y-99826653D01*
X89937487Y-99857386D01*
X89907453Y-99874726D01*
X89907432Y-99874740D01*
X89710833Y-100025595D01*
X89710826Y-100025601D01*
X89535601Y-100200826D01*
X89535595Y-100200833D01*
X89384740Y-100397432D01*
X89384729Y-100397448D01*
X89260827Y-100612051D01*
X89260819Y-100612068D01*
X89165990Y-100841007D01*
X89101846Y-101080393D01*
X89069501Y-101326080D01*
X89069500Y-101326096D01*
X89069500Y-101573903D01*
X89069501Y-101573919D01*
X89100846Y-101812011D01*
X89101847Y-101819610D01*
X89138303Y-101955666D01*
X89165990Y-102058992D01*
X89260819Y-102287931D01*
X89260827Y-102287948D01*
X89384729Y-102502551D01*
X89384740Y-102502567D01*
X89535595Y-102699166D01*
X89535601Y-102699173D01*
X89710826Y-102874398D01*
X89710832Y-102874403D01*
X89907441Y-103025266D01*
X89907448Y-103025270D01*
X90122051Y-103149172D01*
X90122056Y-103149174D01*
X90122059Y-103149176D01*
X90122063Y-103149177D01*
X90122068Y-103149180D01*
X90351007Y-103244009D01*
X90351009Y-103244009D01*
X90351015Y-103244012D01*
X90590390Y-103308153D01*
X90836090Y-103340500D01*
X90836097Y-103340500D01*
X91083903Y-103340500D01*
X91083910Y-103340500D01*
X91329610Y-103308153D01*
X91568985Y-103244012D01*
X91797941Y-103149176D01*
X92012559Y-103025266D01*
X92209168Y-102874403D01*
X92384403Y-102699168D01*
X92535266Y-102502559D01*
X92659176Y-102287941D01*
X92754012Y-102058985D01*
X92818153Y-101819610D01*
X92850500Y-101573910D01*
X92850500Y-101326090D01*
X92818153Y-101080390D01*
X92754012Y-100841015D01*
X92733923Y-100792516D01*
X92659180Y-100612068D01*
X92659172Y-100612051D01*
X92535270Y-100397448D01*
X92535266Y-100397441D01*
X92441698Y-100275500D01*
X92384404Y-100200833D01*
X92384398Y-100200826D01*
X92209173Y-100025601D01*
X92209166Y-100025595D01*
X92012567Y-99874740D01*
X92012565Y-99874739D01*
X92012559Y-99874734D01*
X91982512Y-99857386D01*
X91934297Y-99806820D01*
X91921074Y-99738213D01*
X91947042Y-99673348D01*
X91982513Y-99642613D01*
X92012559Y-99625266D01*
X92209168Y-99474403D01*
X92384403Y-99299168D01*
X92535266Y-99102559D01*
X92659176Y-98887941D01*
X92754012Y-98658985D01*
X92818153Y-98419610D01*
X92850500Y-98173910D01*
X92850500Y-97926090D01*
X92818153Y-97680390D01*
X92754012Y-97441015D01*
X92719438Y-97357546D01*
X92659180Y-97212068D01*
X92659172Y-97212051D01*
X92535270Y-96997448D01*
X92535266Y-96997441D01*
X92384403Y-96800832D01*
X92384398Y-96800826D01*
X92209173Y-96625601D01*
X92209166Y-96625595D01*
X92012567Y-96474740D01*
X92012565Y-96474738D01*
X92012559Y-96474734D01*
X92012554Y-96474731D01*
X92012551Y-96474729D01*
X91797948Y-96350827D01*
X91797931Y-96350819D01*
X91568992Y-96255990D01*
X91529246Y-96245340D01*
X91329610Y-96191847D01*
X91329609Y-96191846D01*
X91329606Y-96191846D01*
X91083919Y-96159501D01*
X91083916Y-96159500D01*
X91083910Y-96159500D01*
X90836090Y-96159500D01*
X90836084Y-96159500D01*
X90836080Y-96159501D01*
X90590393Y-96191846D01*
X90351007Y-96255990D01*
X90122068Y-96350819D01*
X90122051Y-96350827D01*
X89907448Y-96474729D01*
X89907432Y-96474740D01*
X89710833Y-96625595D01*
X89710826Y-96625601D01*
X89535601Y-96800826D01*
X89535595Y-96800833D01*
X89384740Y-96997432D01*
X89384729Y-96997448D01*
X89260827Y-97212051D01*
X89260819Y-97212068D01*
X89165990Y-97441007D01*
X89101846Y-97680393D01*
X89069501Y-97926080D01*
X89069500Y-97926096D01*
X82930500Y-97926096D01*
X82930500Y-97926090D01*
X82898153Y-97680390D01*
X82834012Y-97441015D01*
X82799438Y-97357546D01*
X82739180Y-97212068D01*
X82739172Y-97212051D01*
X82615270Y-96997448D01*
X82615266Y-96997441D01*
X82464403Y-96800832D01*
X82464398Y-96800826D01*
X82289173Y-96625601D01*
X82289166Y-96625595D01*
X82092567Y-96474740D01*
X82092565Y-96474738D01*
X82092559Y-96474734D01*
X82092554Y-96474731D01*
X82092551Y-96474729D01*
X81877948Y-96350827D01*
X81877931Y-96350819D01*
X81648992Y-96255990D01*
X81609246Y-96245340D01*
X81409610Y-96191847D01*
X81409609Y-96191846D01*
X81409606Y-96191846D01*
X81163919Y-96159501D01*
X81163916Y-96159500D01*
X81163910Y-96159500D01*
X80916090Y-96159500D01*
X80916084Y-96159500D01*
X80916080Y-96159501D01*
X80670393Y-96191846D01*
X80431007Y-96255990D01*
X80202068Y-96350819D01*
X80202051Y-96350827D01*
X79987448Y-96474729D01*
X79987432Y-96474740D01*
X79790833Y-96625595D01*
X79790826Y-96625601D01*
X79615601Y-96800826D01*
X79615595Y-96800833D01*
X79464740Y-96997432D01*
X79464729Y-96997448D01*
X79340827Y-97212051D01*
X79340819Y-97212068D01*
X79245990Y-97441007D01*
X79181846Y-97680393D01*
X79149501Y-97926080D01*
X79149500Y-97926096D01*
X77800500Y-97926096D01*
X77800500Y-86885645D01*
X80296997Y-86885645D01*
X80296997Y-87114352D01*
X80332775Y-87340245D01*
X80332775Y-87340248D01*
X80403447Y-87557754D01*
X80507280Y-87761537D01*
X80641711Y-87946565D01*
X80803431Y-88108285D01*
X80988459Y-88242716D01*
X81192239Y-88346547D01*
X81192241Y-88346548D01*
X81409748Y-88417220D01*
X81409749Y-88417220D01*
X81409752Y-88417221D01*
X81635643Y-88452999D01*
X81635644Y-88452999D01*
X81864350Y-88452999D01*
X81864351Y-88452999D01*
X82090242Y-88417221D01*
X82090245Y-88417220D01*
X82090246Y-88417220D01*
X82307752Y-88346548D01*
X82307752Y-88346547D01*
X82307755Y-88346547D01*
X82511535Y-88242716D01*
X82696563Y-88108285D01*
X82858283Y-87946565D01*
X82992714Y-87761537D01*
X83027532Y-87693202D01*
X83075505Y-87642408D01*
X83138016Y-87625499D01*
X86361981Y-87625499D01*
X86429020Y-87645184D01*
X86472464Y-87693202D01*
X86507283Y-87761537D01*
X86641714Y-87946565D01*
X86803434Y-88108285D01*
X86988462Y-88242716D01*
X87192242Y-88346547D01*
X87192244Y-88346548D01*
X87409751Y-88417220D01*
X87409752Y-88417220D01*
X87409755Y-88417221D01*
X87635646Y-88452999D01*
X87635647Y-88452999D01*
X87864353Y-88452999D01*
X87864354Y-88452999D01*
X88090245Y-88417221D01*
X88090248Y-88417220D01*
X88090249Y-88417220D01*
X88307755Y-88346548D01*
X88307755Y-88346547D01*
X88307758Y-88346547D01*
X88511538Y-88242716D01*
X88696566Y-88108285D01*
X88858286Y-87946565D01*
X88992717Y-87761537D01*
X89096548Y-87557757D01*
X89167222Y-87340244D01*
X89203000Y-87114353D01*
X89203000Y-86885645D01*
X89167222Y-86659754D01*
X89167221Y-86659750D01*
X89167221Y-86659749D01*
X89096549Y-86442243D01*
X88992716Y-86238460D01*
X88858286Y-86053433D01*
X88696566Y-85891713D01*
X88511538Y-85757282D01*
X88307755Y-85653449D01*
X88090248Y-85582777D01*
X87920826Y-85555943D01*
X87864354Y-85546999D01*
X87635646Y-85546999D01*
X87560349Y-85558925D01*
X87409753Y-85582777D01*
X87409750Y-85582777D01*
X87192244Y-85653449D01*
X86988461Y-85757282D01*
X86882896Y-85833979D01*
X86803434Y-85891713D01*
X86803432Y-85891715D01*
X86803431Y-85891715D01*
X86641716Y-86053430D01*
X86641716Y-86053431D01*
X86641714Y-86053433D01*
X86583980Y-86132895D01*
X86507283Y-86238460D01*
X86472466Y-86306794D01*
X86424492Y-86357590D01*
X86361981Y-86374499D01*
X83138016Y-86374499D01*
X83070977Y-86354814D01*
X83027531Y-86306794D01*
X82992713Y-86238460D01*
X82858283Y-86053433D01*
X82696563Y-85891713D01*
X82511535Y-85757282D01*
X82307752Y-85653449D01*
X82090245Y-85582777D01*
X81920823Y-85555943D01*
X81864351Y-85546999D01*
X81635643Y-85546999D01*
X81560346Y-85558925D01*
X81409750Y-85582777D01*
X81409747Y-85582777D01*
X81192241Y-85653449D01*
X80988458Y-85757282D01*
X80882893Y-85833979D01*
X80803431Y-85891713D01*
X80803429Y-85891715D01*
X80803428Y-85891715D01*
X80641713Y-86053430D01*
X80641713Y-86053431D01*
X80641711Y-86053433D01*
X80583977Y-86132895D01*
X80507280Y-86238460D01*
X80403447Y-86442243D01*
X80332775Y-86659749D01*
X80332775Y-86659752D01*
X80296997Y-86885645D01*
X77800500Y-86885645D01*
X77800500Y-83385645D01*
X80296997Y-83385645D01*
X80296997Y-83614352D01*
X80332775Y-83840245D01*
X80332775Y-83840248D01*
X80403447Y-84057754D01*
X80507280Y-84261537D01*
X80641711Y-84446565D01*
X80803431Y-84608285D01*
X80988459Y-84742716D01*
X81192239Y-84846547D01*
X81192241Y-84846548D01*
X81409748Y-84917220D01*
X81409749Y-84917220D01*
X81409752Y-84917221D01*
X81635643Y-84952999D01*
X81635644Y-84952999D01*
X81864350Y-84952999D01*
X81864351Y-84952999D01*
X82090242Y-84917221D01*
X82090245Y-84917220D01*
X82090246Y-84917220D01*
X82307752Y-84846548D01*
X82307752Y-84846547D01*
X82307755Y-84846547D01*
X82511535Y-84742716D01*
X82696563Y-84608285D01*
X82858283Y-84446565D01*
X82992714Y-84261537D01*
X83027532Y-84193202D01*
X83075505Y-84142408D01*
X83138016Y-84125499D01*
X86361981Y-84125499D01*
X86429020Y-84145184D01*
X86472464Y-84193202D01*
X86507283Y-84261537D01*
X86641714Y-84446565D01*
X86803434Y-84608285D01*
X86988462Y-84742716D01*
X87192242Y-84846547D01*
X87192244Y-84846548D01*
X87409751Y-84917220D01*
X87409752Y-84917220D01*
X87409755Y-84917221D01*
X87635646Y-84952999D01*
X87635647Y-84952999D01*
X87864353Y-84952999D01*
X87864354Y-84952999D01*
X88090245Y-84917221D01*
X88090248Y-84917220D01*
X88090249Y-84917220D01*
X88307755Y-84846548D01*
X88307755Y-84846547D01*
X88307758Y-84846547D01*
X88511538Y-84742716D01*
X88696566Y-84608285D01*
X88858286Y-84446565D01*
X88992717Y-84261537D01*
X89096548Y-84057757D01*
X89167222Y-83840244D01*
X89203000Y-83614353D01*
X89203000Y-83385645D01*
X89167222Y-83159754D01*
X89167221Y-83159750D01*
X89167221Y-83159749D01*
X89096549Y-82942243D01*
X88992716Y-82738460D01*
X88858286Y-82553433D01*
X88696566Y-82391713D01*
X88511538Y-82257282D01*
X88307755Y-82153449D01*
X88090248Y-82082777D01*
X87920826Y-82055943D01*
X87864354Y-82046999D01*
X87635646Y-82046999D01*
X87560349Y-82058925D01*
X87409753Y-82082777D01*
X87409750Y-82082777D01*
X87192244Y-82153449D01*
X86988461Y-82257282D01*
X86882896Y-82333979D01*
X86803434Y-82391713D01*
X86803432Y-82391715D01*
X86803431Y-82391715D01*
X86641716Y-82553430D01*
X86641716Y-82553431D01*
X86641714Y-82553433D01*
X86583980Y-82632895D01*
X86507283Y-82738460D01*
X86472466Y-82806794D01*
X86424492Y-82857590D01*
X86361981Y-82874499D01*
X83138016Y-82874499D01*
X83070977Y-82854814D01*
X83027531Y-82806794D01*
X82992713Y-82738460D01*
X82858283Y-82553433D01*
X82696563Y-82391713D01*
X82511535Y-82257282D01*
X82307752Y-82153449D01*
X82090245Y-82082777D01*
X81920823Y-82055943D01*
X81864351Y-82046999D01*
X81635643Y-82046999D01*
X81560346Y-82058925D01*
X81409750Y-82082777D01*
X81409747Y-82082777D01*
X81192241Y-82153449D01*
X80988458Y-82257282D01*
X80882893Y-82333979D01*
X80803431Y-82391713D01*
X80803429Y-82391715D01*
X80803428Y-82391715D01*
X80641713Y-82553430D01*
X80641713Y-82553431D01*
X80641711Y-82553433D01*
X80583977Y-82632895D01*
X80507280Y-82738460D01*
X80403447Y-82942243D01*
X80332775Y-83159749D01*
X80332775Y-83159752D01*
X80296997Y-83385645D01*
X77800500Y-83385645D01*
X77800500Y-69521516D01*
X77800726Y-69514027D01*
X77808494Y-69385642D01*
X80296997Y-69385642D01*
X80296997Y-69614349D01*
X80332775Y-69840242D01*
X80332775Y-69840245D01*
X80403447Y-70057751D01*
X80403449Y-70057754D01*
X80507280Y-70261534D01*
X80641711Y-70446562D01*
X80803431Y-70608282D01*
X80988459Y-70742713D01*
X81192239Y-70846544D01*
X81192241Y-70846545D01*
X81409748Y-70917217D01*
X81409749Y-70917217D01*
X81409752Y-70917218D01*
X81635643Y-70952996D01*
X81635644Y-70952996D01*
X81864350Y-70952996D01*
X81864351Y-70952996D01*
X82090242Y-70917218D01*
X82090245Y-70917217D01*
X82090246Y-70917217D01*
X82307752Y-70846545D01*
X82307752Y-70846544D01*
X82307755Y-70846544D01*
X82511535Y-70742713D01*
X82696563Y-70608282D01*
X82858283Y-70446562D01*
X82992714Y-70261534D01*
X83096545Y-70057754D01*
X83167219Y-69840241D01*
X83202997Y-69614350D01*
X83202997Y-69385642D01*
X86297000Y-69385642D01*
X86297000Y-69614349D01*
X86332778Y-69840242D01*
X86332778Y-69840245D01*
X86403450Y-70057751D01*
X86403452Y-70057754D01*
X86507283Y-70261534D01*
X86641714Y-70446562D01*
X86803434Y-70608282D01*
X86988462Y-70742713D01*
X87192242Y-70846544D01*
X87192244Y-70846545D01*
X87409751Y-70917217D01*
X87409752Y-70917217D01*
X87409755Y-70917218D01*
X87635646Y-70952996D01*
X87635647Y-70952996D01*
X87864353Y-70952996D01*
X87864354Y-70952996D01*
X88090245Y-70917218D01*
X88090248Y-70917217D01*
X88090249Y-70917217D01*
X88307755Y-70846545D01*
X88307755Y-70846544D01*
X88307758Y-70846544D01*
X88511538Y-70742713D01*
X88696566Y-70608282D01*
X88858286Y-70446562D01*
X88992717Y-70261534D01*
X89096548Y-70057754D01*
X89167222Y-69840241D01*
X89203000Y-69614350D01*
X89203000Y-69385642D01*
X89167222Y-69159751D01*
X89167221Y-69159747D01*
X89167221Y-69159746D01*
X89096549Y-68942240D01*
X88992716Y-68738457D01*
X88992258Y-68737826D01*
X88858286Y-68553430D01*
X88696566Y-68391710D01*
X88511538Y-68257279D01*
X88307755Y-68153446D01*
X88090248Y-68082774D01*
X87908247Y-68053948D01*
X87864354Y-68046996D01*
X87635646Y-68046996D01*
X87560349Y-68058922D01*
X87409753Y-68082774D01*
X87409750Y-68082774D01*
X87192244Y-68153446D01*
X86988461Y-68257279D01*
X86882896Y-68333976D01*
X86803434Y-68391710D01*
X86803432Y-68391712D01*
X86803431Y-68391712D01*
X86641716Y-68553427D01*
X86641716Y-68553428D01*
X86641714Y-68553430D01*
X86625853Y-68575261D01*
X86507283Y-68738457D01*
X86403450Y-68942240D01*
X86332778Y-69159746D01*
X86332778Y-69159749D01*
X86297000Y-69385642D01*
X83202997Y-69385642D01*
X83167219Y-69159751D01*
X83167218Y-69159747D01*
X83167218Y-69159746D01*
X83096546Y-68942240D01*
X82992713Y-68738457D01*
X82992255Y-68737826D01*
X82858283Y-68553430D01*
X82696563Y-68391710D01*
X82511535Y-68257279D01*
X82307752Y-68153446D01*
X82090245Y-68082774D01*
X81908244Y-68053948D01*
X81864351Y-68046996D01*
X81635643Y-68046996D01*
X81560346Y-68058922D01*
X81409750Y-68082774D01*
X81409747Y-68082774D01*
X81192241Y-68153446D01*
X80988458Y-68257279D01*
X80882893Y-68333976D01*
X80803431Y-68391710D01*
X80803429Y-68391712D01*
X80803428Y-68391712D01*
X80641713Y-68553427D01*
X80641713Y-68553428D01*
X80641711Y-68553430D01*
X80625850Y-68575261D01*
X80507280Y-68738457D01*
X80403447Y-68942240D01*
X80332775Y-69159746D01*
X80332775Y-69159749D01*
X80296997Y-69385642D01*
X77808494Y-69385642D01*
X77809242Y-69373281D01*
X77809242Y-69373280D01*
X77816087Y-69260140D01*
X77817892Y-69245275D01*
X77833567Y-69159746D01*
X77863068Y-68998769D01*
X77866649Y-68984244D01*
X77941211Y-68744978D01*
X77946519Y-68730984D01*
X78016598Y-68575279D01*
X78049376Y-68502450D01*
X78056321Y-68489217D01*
X78185980Y-68274739D01*
X78194477Y-68262429D01*
X78349040Y-68065147D01*
X78358963Y-68053948D01*
X78536170Y-67876744D01*
X78547378Y-67866815D01*
X78744647Y-67712267D01*
X78756969Y-67703761D01*
X78971435Y-67574111D01*
X78984680Y-67567160D01*
X79213228Y-67464300D01*
X79227209Y-67458998D01*
X79466479Y-67384440D01*
X79480989Y-67380863D01*
X79727508Y-67335688D01*
X79742361Y-67333884D01*
X79996814Y-67318492D01*
X80004288Y-67318267D01*
X80047595Y-67318267D01*
X80047595Y-67318266D01*
X80051664Y-67318265D01*
X92962898Y-67318263D01*
X93029937Y-67337948D01*
X93075692Y-67390752D01*
X93085636Y-67459910D01*
X93056611Y-67523466D01*
X93041563Y-67538116D01*
X92801893Y-67734807D01*
X92544807Y-67991893D01*
X92314150Y-68272950D01*
X92314140Y-68272964D01*
X92112151Y-68575261D01*
X92112140Y-68575279D01*
X91940756Y-68895916D01*
X91940754Y-68895921D01*
X91801614Y-69231834D01*
X91696067Y-69579776D01*
X91696064Y-69579787D01*
X91625137Y-69936369D01*
X91589500Y-70298209D01*
X91589500Y-70661790D01*
X91625137Y-71023630D01*
X91696064Y-71380212D01*
X91696067Y-71380223D01*
X91757510Y-71582775D01*
X91801614Y-71728164D01*
X91936342Y-72053428D01*
X91940754Y-72064078D01*
X91940756Y-72064083D01*
X92112140Y-72384720D01*
X92112151Y-72384738D01*
X92314140Y-72687035D01*
X92314150Y-72687049D01*
X92544807Y-72968106D01*
X92801893Y-73225192D01*
X92801898Y-73225196D01*
X92801899Y-73225197D01*
X93082956Y-73455854D01*
X93385268Y-73657853D01*
X93385277Y-73657858D01*
X93385279Y-73657859D01*
X93705916Y-73829243D01*
X93705918Y-73829243D01*
X93705924Y-73829247D01*
X93892276Y-73906436D01*
X93946679Y-73950277D01*
X93968744Y-74016571D01*
X93951465Y-74084270D01*
X93900328Y-74131881D01*
X93844823Y-74144997D01*
X89830952Y-74144997D01*
X89763913Y-74125312D01*
X89743271Y-74108678D01*
X89173772Y-73539179D01*
X89140287Y-73477856D01*
X89143521Y-73413182D01*
X89167222Y-73340242D01*
X89203000Y-73114351D01*
X89203000Y-72885643D01*
X89167222Y-72659752D01*
X89167221Y-72659748D01*
X89167221Y-72659747D01*
X89096549Y-72442241D01*
X89067247Y-72384732D01*
X88992717Y-72238459D01*
X88858286Y-72053431D01*
X88696566Y-71891711D01*
X88511538Y-71757280D01*
X88454395Y-71728164D01*
X88307755Y-71653447D01*
X88090248Y-71582775D01*
X87920826Y-71555941D01*
X87864354Y-71546997D01*
X87635646Y-71546997D01*
X87560349Y-71558923D01*
X87409753Y-71582775D01*
X87409750Y-71582775D01*
X87192244Y-71653447D01*
X86988461Y-71757280D01*
X86882896Y-71833977D01*
X86803434Y-71891711D01*
X86803432Y-71891713D01*
X86803431Y-71891713D01*
X86641716Y-72053428D01*
X86641716Y-72053429D01*
X86641714Y-72053431D01*
X86633975Y-72064083D01*
X86507283Y-72238458D01*
X86403450Y-72442241D01*
X86332778Y-72659747D01*
X86332778Y-72659750D01*
X86297000Y-72885643D01*
X86297000Y-73114350D01*
X86332778Y-73340243D01*
X86332778Y-73340246D01*
X86403450Y-73557752D01*
X86403452Y-73557755D01*
X86507283Y-73761535D01*
X86641714Y-73946563D01*
X86803434Y-74108283D01*
X86988462Y-74242714D01*
X87070745Y-74284639D01*
X87192244Y-74346546D01*
X87215387Y-74354066D01*
X87273063Y-74393504D01*
X87300261Y-74457862D01*
X87288346Y-74526709D01*
X87241102Y-74578184D01*
X87177069Y-74595997D01*
X84281950Y-74595997D01*
X84214911Y-74576312D01*
X84194269Y-74559678D01*
X83173769Y-73539179D01*
X83140284Y-73477856D01*
X83143518Y-73413182D01*
X83167219Y-73340242D01*
X83202997Y-73114351D01*
X83202997Y-72885643D01*
X83167219Y-72659752D01*
X83167218Y-72659748D01*
X83167218Y-72659747D01*
X83096546Y-72442241D01*
X83067244Y-72384732D01*
X82992714Y-72238459D01*
X82858283Y-72053431D01*
X82696563Y-71891711D01*
X82511535Y-71757280D01*
X82454392Y-71728164D01*
X82307752Y-71653447D01*
X82090245Y-71582775D01*
X81920823Y-71555941D01*
X81864351Y-71546997D01*
X81635643Y-71546997D01*
X81560346Y-71558923D01*
X81409750Y-71582775D01*
X81409747Y-71582775D01*
X81192241Y-71653447D01*
X80988458Y-71757280D01*
X80882893Y-71833977D01*
X80803431Y-71891711D01*
X80803429Y-71891713D01*
X80803428Y-71891713D01*
X80641713Y-72053428D01*
X80641713Y-72053429D01*
X80641711Y-72053431D01*
X80633972Y-72064083D01*
X80507280Y-72238458D01*
X80403447Y-72442241D01*
X80332775Y-72659747D01*
X80332775Y-72659750D01*
X80296997Y-72885643D01*
X80296997Y-73114350D01*
X80332775Y-73340243D01*
X80332775Y-73340246D01*
X80403447Y-73557752D01*
X80403449Y-73557755D01*
X80507280Y-73761535D01*
X80641711Y-73946563D01*
X80803431Y-74108283D01*
X80988459Y-74242714D01*
X81070742Y-74284639D01*
X81192241Y-74346546D01*
X81409748Y-74417218D01*
X81409749Y-74417218D01*
X81409752Y-74417219D01*
X81635643Y-74452997D01*
X81635644Y-74452997D01*
X81864350Y-74452997D01*
X81864351Y-74452997D01*
X82090242Y-74417219D01*
X82163182Y-74393518D01*
X82233020Y-74391524D01*
X82289178Y-74423768D01*
X83485638Y-75620229D01*
X83485639Y-75620230D01*
X83572764Y-75707355D01*
X83635834Y-75749497D01*
X83641976Y-75753601D01*
X83641982Y-75753606D01*
X83675208Y-75775806D01*
X83675211Y-75775808D01*
X83789045Y-75822960D01*
X83909885Y-75846996D01*
X83909889Y-75846997D01*
X83909890Y-75846997D01*
X83909891Y-75846997D01*
X86263726Y-75846997D01*
X86330765Y-75866682D01*
X86376520Y-75919486D01*
X86386464Y-75988644D01*
X86381657Y-76009315D01*
X86332778Y-76159747D01*
X86332778Y-76159750D01*
X86297000Y-76385643D01*
X86297000Y-76614350D01*
X86332778Y-76840243D01*
X86332778Y-76840246D01*
X86403450Y-77057752D01*
X86403452Y-77057755D01*
X86507283Y-77261535D01*
X86641714Y-77446563D01*
X86803434Y-77608283D01*
X86988462Y-77742714D01*
X87192242Y-77846545D01*
X87192244Y-77846546D01*
X87409751Y-77917218D01*
X87409752Y-77917218D01*
X87409755Y-77917219D01*
X87635646Y-77952997D01*
X87635647Y-77952997D01*
X87864353Y-77952997D01*
X87864354Y-77952997D01*
X88090245Y-77917219D01*
X88090248Y-77917218D01*
X88090249Y-77917218D01*
X88307755Y-77846546D01*
X88307755Y-77846545D01*
X88307758Y-77846545D01*
X88511538Y-77742714D01*
X88696566Y-77608283D01*
X88858286Y-77446563D01*
X88963600Y-77301610D01*
X89018930Y-77258946D01*
X89063918Y-77250497D01*
X97737767Y-77250497D01*
X97804806Y-77270182D01*
X97825448Y-77286816D01*
X109463181Y-88924548D01*
X109496666Y-88985871D01*
X109499500Y-89012229D01*
X109499500Y-89447870D01*
X109499501Y-89447876D01*
X109505908Y-89507483D01*
X109556202Y-89642328D01*
X109556203Y-89642329D01*
X109556204Y-89642331D01*
X109617263Y-89723895D01*
X109642452Y-89757543D01*
X109642455Y-89757547D01*
X109699810Y-89800482D01*
X109741682Y-89856415D01*
X109749500Y-89899749D01*
X109749500Y-95896862D01*
X109729815Y-95963901D01*
X109690598Y-96002399D01*
X109651501Y-96026515D01*
X109581342Y-96069789D01*
X109457289Y-96193842D01*
X109365187Y-96343163D01*
X109365185Y-96343168D01*
X109344475Y-96405668D01*
X109310001Y-96509703D01*
X109310001Y-96509704D01*
X109310000Y-96509704D01*
X109299500Y-96612483D01*
X109299500Y-97237501D01*
X109299501Y-97237519D01*
X109310000Y-97340296D01*
X109310001Y-97340299D01*
X109365185Y-97506831D01*
X109365187Y-97506836D01*
X109457289Y-97656157D01*
X109550951Y-97749819D01*
X109584436Y-97811142D01*
X109579452Y-97880834D01*
X109550951Y-97925181D01*
X109457289Y-98018842D01*
X109365187Y-98168163D01*
X109365185Y-98168168D01*
X109344475Y-98230668D01*
X109310001Y-98334703D01*
X109310001Y-98334704D01*
X109310000Y-98334704D01*
X109299500Y-98437483D01*
X109299500Y-99062501D01*
X109299501Y-99062519D01*
X109310000Y-99165296D01*
X109310001Y-99165299D01*
X109354363Y-99299173D01*
X109365186Y-99331834D01*
X109457288Y-99481156D01*
X109581344Y-99605212D01*
X109730590Y-99697267D01*
X109730668Y-99697315D01*
X109751110Y-99704088D01*
X109789502Y-99716810D01*
X109846947Y-99756581D01*
X109873772Y-99821096D01*
X109874500Y-99834516D01*
X109874500Y-102641556D01*
X109854815Y-102708595D01*
X109802011Y-102754350D01*
X109732853Y-102764294D01*
X109711497Y-102759262D01*
X109637755Y-102734826D01*
X109637751Y-102734825D01*
X109536678Y-102724500D01*
X108963330Y-102724500D01*
X108963312Y-102724501D01*
X108862247Y-102734825D01*
X108788504Y-102759262D01*
X108751002Y-102771689D01*
X108681175Y-102774091D01*
X108621133Y-102738360D01*
X108589940Y-102675839D01*
X108587999Y-102653983D01*
X108587999Y-102224998D01*
X108587998Y-102224981D01*
X108577499Y-102122203D01*
X108577498Y-102122200D01*
X108556553Y-102058992D01*
X108522314Y-101955666D01*
X108430212Y-101806344D01*
X108306156Y-101682288D01*
X108184402Y-101607190D01*
X108137679Y-101555243D01*
X108125500Y-101501652D01*
X108125500Y-100271981D01*
X108145185Y-100204942D01*
X108184404Y-100166442D01*
X108185295Y-100165892D01*
X108198350Y-100157840D01*
X108320340Y-100035850D01*
X108410908Y-99889016D01*
X108465174Y-99725253D01*
X108475500Y-99624177D01*
X108475499Y-99025824D01*
X108465174Y-98924747D01*
X108410908Y-98760984D01*
X108320340Y-98614150D01*
X108206371Y-98500181D01*
X108172886Y-98438858D01*
X108177870Y-98369166D01*
X108206371Y-98324819D01*
X108251163Y-98280027D01*
X108320340Y-98210850D01*
X108410908Y-98064016D01*
X108465174Y-97900253D01*
X108475500Y-97799177D01*
X108475499Y-97200824D01*
X108474165Y-97187769D01*
X108465174Y-97099747D01*
X108410908Y-96935984D01*
X108320340Y-96789150D01*
X108198350Y-96667160D01*
X108184400Y-96658555D01*
X108177577Y-96650969D01*
X108168297Y-96646731D01*
X108154607Y-96625429D01*
X108137677Y-96606605D01*
X108135033Y-96594971D01*
X108130523Y-96587953D01*
X108125500Y-96553018D01*
X108125500Y-96359481D01*
X108145185Y-96292442D01*
X108184404Y-96253942D01*
X108185295Y-96253392D01*
X108198350Y-96245340D01*
X108320340Y-96123350D01*
X108410908Y-95976516D01*
X108465174Y-95812753D01*
X108475500Y-95711677D01*
X108475499Y-95038324D01*
X108465174Y-94937247D01*
X108410908Y-94773484D01*
X108320340Y-94626650D01*
X108281371Y-94587681D01*
X108247886Y-94526358D01*
X108252870Y-94456666D01*
X108281371Y-94412319D01*
X108320340Y-94373350D01*
X108410908Y-94226516D01*
X108465174Y-94062753D01*
X108475500Y-93961677D01*
X108475499Y-93288324D01*
X108465174Y-93187247D01*
X108410908Y-93023484D01*
X108320340Y-92876650D01*
X108198350Y-92754660D01*
X108198349Y-92754659D01*
X108159402Y-92730636D01*
X108152578Y-92723049D01*
X108143297Y-92718811D01*
X108129607Y-92697510D01*
X108112678Y-92678687D01*
X108110034Y-92667052D01*
X108105523Y-92660033D01*
X108100500Y-92625098D01*
X108100500Y-92624499D01*
X108120185Y-92557460D01*
X108172989Y-92511705D01*
X108224500Y-92500499D01*
X108247871Y-92500499D01*
X108247872Y-92500499D01*
X108307483Y-92494091D01*
X108442331Y-92443796D01*
X108557546Y-92357546D01*
X108643796Y-92242331D01*
X108694091Y-92107483D01*
X108700500Y-92047873D01*
X108700499Y-90952128D01*
X108694091Y-90892517D01*
X108674596Y-90840249D01*
X108643797Y-90757671D01*
X108643793Y-90757664D01*
X108557547Y-90642455D01*
X108557544Y-90642452D01*
X108442335Y-90556206D01*
X108442328Y-90556202D01*
X108307482Y-90505908D01*
X108307483Y-90505908D01*
X108247883Y-90499501D01*
X108247881Y-90499500D01*
X108247873Y-90499500D01*
X108247865Y-90499500D01*
X107600097Y-90499500D01*
X107533058Y-90479815D01*
X107512416Y-90463181D01*
X106187590Y-89138355D01*
X106187588Y-89138352D01*
X106068717Y-89019481D01*
X106068716Y-89019480D01*
X105981904Y-88969360D01*
X105981904Y-88969359D01*
X105981900Y-88969358D01*
X105931785Y-88940423D01*
X105779057Y-88899499D01*
X105620943Y-88899499D01*
X105613347Y-88899499D01*
X105613331Y-88899500D01*
X92786670Y-88899500D01*
X92786654Y-88899499D01*
X92779058Y-88899499D01*
X92620943Y-88899499D01*
X92544579Y-88919961D01*
X92468214Y-88940423D01*
X92468209Y-88940426D01*
X92331290Y-89019475D01*
X92331282Y-89019481D01*
X89241083Y-92109682D01*
X89179760Y-92143167D01*
X89153402Y-92146001D01*
X88169043Y-92146001D01*
X88102004Y-92126316D01*
X88056249Y-92073512D01*
X88046305Y-92004354D01*
X88075330Y-91940798D01*
X88130725Y-91904070D01*
X88307755Y-91846549D01*
X88307755Y-91846548D01*
X88307758Y-91846548D01*
X88511538Y-91742717D01*
X88696566Y-91608286D01*
X88858286Y-91446566D01*
X88992717Y-91261538D01*
X89096548Y-91057758D01*
X89130869Y-90952128D01*
X89167221Y-90840249D01*
X89167221Y-90840248D01*
X89167222Y-90840245D01*
X89203000Y-90614354D01*
X89203000Y-90385646D01*
X89167222Y-90159755D01*
X89167221Y-90159751D01*
X89167221Y-90159750D01*
X89096549Y-89942244D01*
X89074897Y-89899749D01*
X88992717Y-89738462D01*
X88858286Y-89553434D01*
X88696566Y-89391714D01*
X88511538Y-89257283D01*
X88511159Y-89257090D01*
X88307755Y-89153450D01*
X88090248Y-89082778D01*
X87920826Y-89055944D01*
X87864354Y-89047000D01*
X87635646Y-89047000D01*
X87560349Y-89058926D01*
X87409753Y-89082778D01*
X87409750Y-89082778D01*
X87192244Y-89153450D01*
X86988461Y-89257283D01*
X86882896Y-89333980D01*
X86803434Y-89391714D01*
X86803432Y-89391716D01*
X86803431Y-89391716D01*
X86641716Y-89553431D01*
X86641714Y-89553434D01*
X86609053Y-89598386D01*
X86553725Y-89641051D01*
X86508737Y-89649500D01*
X82991260Y-89649500D01*
X82924221Y-89629815D01*
X82890943Y-89598387D01*
X82858283Y-89553434D01*
X82696563Y-89391714D01*
X82511535Y-89257283D01*
X82511156Y-89257090D01*
X82307752Y-89153450D01*
X82090245Y-89082778D01*
X81920823Y-89055944D01*
X81864351Y-89047000D01*
X81635643Y-89047000D01*
X81560346Y-89058926D01*
X81409750Y-89082778D01*
X81409747Y-89082778D01*
X81192241Y-89153450D01*
X80988458Y-89257283D01*
X80882893Y-89333980D01*
X80803431Y-89391714D01*
X80803429Y-89391716D01*
X80803428Y-89391716D01*
X80641713Y-89553431D01*
X80641713Y-89553432D01*
X80641711Y-89553434D01*
X80586217Y-89629815D01*
X80507280Y-89738461D01*
X80403447Y-89942244D01*
X80332775Y-90159750D01*
X80332775Y-90159753D01*
X80296997Y-90385646D01*
X80296997Y-90614353D01*
X80332775Y-90840246D01*
X80332775Y-90840249D01*
X80403447Y-91057755D01*
X80478861Y-91205762D01*
X80507280Y-91261538D01*
X80641711Y-91446566D01*
X80803431Y-91608286D01*
X80988459Y-91742717D01*
X81184326Y-91842516D01*
X81192241Y-91846549D01*
X81409748Y-91917221D01*
X81409749Y-91917221D01*
X81409752Y-91917222D01*
X81635643Y-91953000D01*
X81635644Y-91953000D01*
X81864350Y-91953000D01*
X81864351Y-91953000D01*
X82090242Y-91917222D01*
X82090245Y-91917221D01*
X82090246Y-91917221D01*
X82307752Y-91846549D01*
X82307752Y-91846548D01*
X82307755Y-91846548D01*
X82511535Y-91742717D01*
X82696563Y-91608286D01*
X82858283Y-91446566D01*
X82890943Y-91401613D01*
X82946272Y-91358949D01*
X82991260Y-91350500D01*
X86508737Y-91350500D01*
X86575776Y-91370185D01*
X86609053Y-91401612D01*
X86641714Y-91446566D01*
X86803434Y-91608286D01*
X86988462Y-91742717D01*
X87184329Y-91842516D01*
X87192244Y-91846549D01*
X87369275Y-91904070D01*
X87426950Y-91943507D01*
X87454149Y-92007866D01*
X87442234Y-92076712D01*
X87394990Y-92128188D01*
X87330957Y-92146001D01*
X83090167Y-92146001D01*
X83090151Y-92146000D01*
X83082555Y-92146000D01*
X82924440Y-92146000D01*
X82848076Y-92166462D01*
X82771711Y-92186924D01*
X82771706Y-92186927D01*
X82634787Y-92265976D01*
X82634783Y-92265979D01*
X82315863Y-92584898D01*
X82254540Y-92618382D01*
X82189865Y-92615147D01*
X82090244Y-92582779D01*
X82090245Y-92582779D01*
X81902321Y-92553015D01*
X81864351Y-92547001D01*
X81635643Y-92547001D01*
X81597673Y-92553015D01*
X81409750Y-92582779D01*
X81409747Y-92582779D01*
X81192241Y-92653451D01*
X80988458Y-92757284D01*
X80882893Y-92833981D01*
X80803431Y-92891715D01*
X80803429Y-92891717D01*
X80803428Y-92891717D01*
X80641713Y-93053432D01*
X80641713Y-93053433D01*
X80641711Y-93053435D01*
X80640745Y-93054765D01*
X80507280Y-93238462D01*
X80403447Y-93442245D01*
X80332775Y-93659751D01*
X80332775Y-93659754D01*
X80317296Y-93757483D01*
X80296997Y-93885647D01*
X80296997Y-94114355D01*
X80301707Y-94144091D01*
X80332775Y-94340247D01*
X80332775Y-94340250D01*
X80403447Y-94557756D01*
X80438552Y-94626653D01*
X80507280Y-94761539D01*
X80641711Y-94946567D01*
X80803431Y-95108287D01*
X80988459Y-95242718D01*
X81192239Y-95346549D01*
X81192241Y-95346550D01*
X81409748Y-95417222D01*
X81409749Y-95417222D01*
X81409752Y-95417223D01*
X81635643Y-95453001D01*
X81635644Y-95453001D01*
X81864350Y-95453001D01*
X81864351Y-95453001D01*
X82090242Y-95417223D01*
X82090245Y-95417222D01*
X82090246Y-95417222D01*
X82307752Y-95346550D01*
X82307752Y-95346549D01*
X82307755Y-95346549D01*
X82511535Y-95242718D01*
X82696563Y-95108287D01*
X82858283Y-94946567D01*
X82992714Y-94761539D01*
X83096545Y-94557759D01*
X83156463Y-94373350D01*
X83167218Y-94340250D01*
X83167218Y-94340249D01*
X83167219Y-94340246D01*
X83202997Y-94114355D01*
X83202997Y-93885647D01*
X83167219Y-93659756D01*
X83134848Y-93560131D01*
X83134414Y-93544919D01*
X83129096Y-93530659D01*
X83133437Y-93510704D01*
X83132854Y-93490292D01*
X83140942Y-93476204D01*
X83143949Y-93462386D01*
X83165095Y-93434137D01*
X83215916Y-93383318D01*
X83277240Y-93349834D01*
X83303596Y-93347001D01*
X86263726Y-93347001D01*
X86330765Y-93366686D01*
X86376520Y-93419490D01*
X86386464Y-93488648D01*
X86381657Y-93509319D01*
X86332778Y-93659751D01*
X86332778Y-93659754D01*
X86317299Y-93757483D01*
X86297000Y-93885647D01*
X86297000Y-94114355D01*
X86301710Y-94144091D01*
X86332778Y-94340247D01*
X86332778Y-94340250D01*
X86403450Y-94557756D01*
X86438555Y-94626653D01*
X86507283Y-94761539D01*
X86641714Y-94946567D01*
X86803434Y-95108287D01*
X86988462Y-95242718D01*
X87192242Y-95346549D01*
X87192244Y-95346550D01*
X87409751Y-95417222D01*
X87409752Y-95417222D01*
X87409755Y-95417223D01*
X87635646Y-95453001D01*
X87635647Y-95453001D01*
X87864353Y-95453001D01*
X87864354Y-95453001D01*
X88090245Y-95417223D01*
X88090248Y-95417222D01*
X88090249Y-95417222D01*
X88307755Y-95346550D01*
X88307755Y-95346549D01*
X88307758Y-95346549D01*
X88511538Y-95242718D01*
X88696566Y-95108287D01*
X88858286Y-94946567D01*
X88992717Y-94761539D01*
X89096548Y-94557759D01*
X89096549Y-94557756D01*
X89098412Y-94553259D01*
X89099595Y-94553749D01*
X89130007Y-94506336D01*
X89140105Y-94497038D01*
X89168715Y-94480521D01*
X89280519Y-94368717D01*
X89280520Y-94368714D01*
X93012417Y-90636819D01*
X93073740Y-90603334D01*
X93100098Y-90600500D01*
X104236231Y-90600500D01*
X104303270Y-90620185D01*
X104349025Y-90672989D01*
X104358969Y-90742147D01*
X104352413Y-90767833D01*
X104305908Y-90892517D01*
X104299788Y-90949445D01*
X104299501Y-90952123D01*
X104299500Y-90952135D01*
X104299500Y-92047870D01*
X104299501Y-92047876D01*
X104305908Y-92107483D01*
X104356202Y-92242328D01*
X104356206Y-92242335D01*
X104442452Y-92357544D01*
X104442455Y-92357547D01*
X104557664Y-92443793D01*
X104557671Y-92443797D01*
X104602618Y-92460561D01*
X104692517Y-92494091D01*
X104752127Y-92500500D01*
X104775497Y-92500499D01*
X104784183Y-92503049D01*
X104793147Y-92501761D01*
X104817182Y-92512737D01*
X104842536Y-92520181D01*
X104848466Y-92527024D01*
X104856703Y-92530786D01*
X104870988Y-92553015D01*
X104888292Y-92572983D01*
X104890580Y-92583500D01*
X104894477Y-92589564D01*
X104899500Y-92624499D01*
X104899500Y-92625098D01*
X104879815Y-92692137D01*
X104840598Y-92730636D01*
X104801650Y-92754659D01*
X104679661Y-92876648D01*
X104589093Y-93023481D01*
X104589091Y-93023486D01*
X104579168Y-93053432D01*
X104534826Y-93187247D01*
X104534826Y-93187248D01*
X104534825Y-93187248D01*
X104524500Y-93288315D01*
X104524500Y-93961669D01*
X104524501Y-93961687D01*
X104534825Y-94062752D01*
X104551047Y-94111705D01*
X104589092Y-94226516D01*
X104676802Y-94368717D01*
X104679661Y-94373351D01*
X104718629Y-94412319D01*
X104752114Y-94473642D01*
X104747130Y-94543334D01*
X104718629Y-94587681D01*
X104679661Y-94626648D01*
X104589093Y-94773481D01*
X104589091Y-94773486D01*
X104579196Y-94803347D01*
X104534826Y-94937247D01*
X104534826Y-94937248D01*
X104534825Y-94937248D01*
X104524500Y-95038315D01*
X104524500Y-95711669D01*
X104524501Y-95711687D01*
X104534825Y-95812752D01*
X104561257Y-95892516D01*
X104587952Y-95973077D01*
X104589092Y-95976515D01*
X104589093Y-95976518D01*
X104604817Y-96002011D01*
X104679660Y-96123350D01*
X104801650Y-96245340D01*
X104813920Y-96252908D01*
X104815596Y-96253942D01*
X104822419Y-96261528D01*
X104831703Y-96265768D01*
X104845391Y-96287068D01*
X104862321Y-96305890D01*
X104864965Y-96317525D01*
X104869477Y-96324546D01*
X104874500Y-96359481D01*
X104874500Y-96553018D01*
X104854815Y-96620057D01*
X104815600Y-96658555D01*
X104801650Y-96667160D01*
X104801649Y-96667160D01*
X104679659Y-96789150D01*
X104607130Y-96906738D01*
X104555182Y-96953462D01*
X104486219Y-96964683D01*
X104422137Y-96936840D01*
X104413911Y-96929321D01*
X104036818Y-96552228D01*
X104003333Y-96490905D01*
X104000499Y-96464547D01*
X104000499Y-95952129D01*
X104000498Y-95952123D01*
X104000497Y-95952116D01*
X103994091Y-95892517D01*
X103981719Y-95859347D01*
X103943797Y-95757671D01*
X103943793Y-95757664D01*
X103857547Y-95642455D01*
X103857544Y-95642452D01*
X103742335Y-95556206D01*
X103742328Y-95556202D01*
X103607482Y-95505908D01*
X103607483Y-95505908D01*
X103547883Y-95499501D01*
X103547881Y-95499500D01*
X103547873Y-95499500D01*
X103547864Y-95499500D01*
X102452129Y-95499500D01*
X102452123Y-95499501D01*
X102392516Y-95505908D01*
X102257671Y-95556202D01*
X102257664Y-95556206D01*
X102142455Y-95642452D01*
X102142452Y-95642455D01*
X102056206Y-95757664D01*
X102056202Y-95757671D01*
X102005908Y-95892517D01*
X102001010Y-95938080D01*
X101999501Y-95952123D01*
X101999500Y-95952135D01*
X101999500Y-97047870D01*
X101999501Y-97047876D01*
X102005908Y-97107483D01*
X102056202Y-97242328D01*
X102056206Y-97242335D01*
X102142452Y-97357544D01*
X102142455Y-97357547D01*
X102257664Y-97443793D01*
X102257671Y-97443797D01*
X102302618Y-97460561D01*
X102392517Y-97494091D01*
X102452127Y-97500500D01*
X103164547Y-97500499D01*
X103231586Y-97520183D01*
X103252228Y-97536818D01*
X103864422Y-98149012D01*
X103897907Y-98210335D01*
X103892923Y-98280027D01*
X103851051Y-98335960D01*
X103785587Y-98360377D01*
X103733409Y-98352875D01*
X103607485Y-98305909D01*
X103607483Y-98305908D01*
X103547883Y-98299501D01*
X103547881Y-98299500D01*
X103547873Y-98299500D01*
X103547864Y-98299500D01*
X102452129Y-98299500D01*
X102452123Y-98299501D01*
X102392516Y-98305908D01*
X102257671Y-98356202D01*
X102257664Y-98356206D01*
X102142455Y-98442452D01*
X102142452Y-98442455D01*
X102056206Y-98557664D01*
X102056202Y-98557671D01*
X102005908Y-98692517D01*
X101999501Y-98752116D01*
X101999500Y-98752135D01*
X101999500Y-99847870D01*
X101999501Y-99847876D01*
X102005908Y-99907483D01*
X102056202Y-100042328D01*
X102056206Y-100042335D01*
X102142452Y-100157544D01*
X102142455Y-100157547D01*
X102257664Y-100243793D01*
X102257671Y-100243797D01*
X102392517Y-100294091D01*
X102392516Y-100294091D01*
X102399444Y-100294835D01*
X102452127Y-100300500D01*
X103547872Y-100300499D01*
X103607483Y-100294091D01*
X103742331Y-100243796D01*
X103857546Y-100157546D01*
X103943796Y-100042331D01*
X103957285Y-100006166D01*
X103999157Y-99950233D01*
X104064621Y-99925816D01*
X104073467Y-99925500D01*
X104542389Y-99925500D01*
X104609428Y-99945185D01*
X104637109Y-99969474D01*
X104643073Y-99976534D01*
X104679660Y-100035850D01*
X104766865Y-100123055D01*
X104770220Y-100127026D01*
X104782319Y-100154420D01*
X104796666Y-100180694D01*
X104797548Y-100188899D01*
X104798449Y-100190939D01*
X104798044Y-100193519D01*
X104799500Y-100207052D01*
X104799500Y-101501652D01*
X104779815Y-101568691D01*
X104740598Y-101607189D01*
X104710629Y-101625675D01*
X104618842Y-101682289D01*
X104494789Y-101806342D01*
X104402687Y-101955663D01*
X104402686Y-101955666D01*
X104347501Y-102122203D01*
X104347501Y-102122204D01*
X104347500Y-102122204D01*
X104337000Y-102224983D01*
X104337000Y-103275001D01*
X104337001Y-103275019D01*
X104347500Y-103377796D01*
X104347501Y-103377799D01*
X104364272Y-103428409D01*
X104402686Y-103544334D01*
X104494788Y-103693656D01*
X104618844Y-103817712D01*
X104768166Y-103909814D01*
X104934703Y-103964999D01*
X105037491Y-103975500D01*
X105175500Y-103975499D01*
X105184185Y-103978049D01*
X105193147Y-103976761D01*
X105217184Y-103987738D01*
X105242539Y-103995183D01*
X105248467Y-104002025D01*
X105256703Y-104005786D01*
X105270989Y-104028017D01*
X105288294Y-104047987D01*
X105290581Y-104058502D01*
X105294477Y-104064564D01*
X105299500Y-104099499D01*
X105299500Y-104177378D01*
X105279815Y-104244417D01*
X105227011Y-104290172D01*
X105159932Y-104299816D01*
X105159905Y-104300097D01*
X105158765Y-104299984D01*
X105157853Y-104300116D01*
X105154809Y-104299595D01*
X105153843Y-104299500D01*
X105153842Y-104299500D01*
X104996158Y-104299500D01*
X104996155Y-104299500D01*
X104841510Y-104330261D01*
X104841498Y-104330264D01*
X104695827Y-104390602D01*
X104695814Y-104390609D01*
X104564711Y-104478210D01*
X104564707Y-104478213D01*
X104453213Y-104589707D01*
X104453210Y-104589711D01*
X104365609Y-104720814D01*
X104365602Y-104720827D01*
X104305264Y-104866498D01*
X104305261Y-104866510D01*
X104274500Y-105021153D01*
X104274500Y-105178846D01*
X104305261Y-105333489D01*
X104305264Y-105333501D01*
X104365602Y-105479172D01*
X104365609Y-105479185D01*
X104453210Y-105610288D01*
X104453213Y-105610292D01*
X104563181Y-105720260D01*
X104596666Y-105781583D01*
X104599500Y-105807941D01*
X104599500Y-106622870D01*
X104599501Y-106622876D01*
X104605908Y-106682483D01*
X104656202Y-106817328D01*
X104656206Y-106817335D01*
X104742452Y-106932544D01*
X104742455Y-106932547D01*
X104857664Y-107018793D01*
X104857671Y-107018797D01*
X104902618Y-107035561D01*
X104992517Y-107069091D01*
X105052127Y-107075500D01*
X105497872Y-107075499D01*
X105557483Y-107069091D01*
X105557485Y-107069090D01*
X105557487Y-107069090D01*
X105565031Y-107067308D01*
X105565377Y-107068775D01*
X105626342Y-107064408D01*
X105641378Y-107068822D01*
X105642511Y-107069089D01*
X105642517Y-107069091D01*
X105702127Y-107075500D01*
X106147872Y-107075499D01*
X106207483Y-107069091D01*
X106207485Y-107069090D01*
X106207487Y-107069090D01*
X106215031Y-107067308D01*
X106215377Y-107068775D01*
X106276342Y-107064408D01*
X106291378Y-107068822D01*
X106292511Y-107069089D01*
X106292517Y-107069091D01*
X106352127Y-107075500D01*
X106797872Y-107075499D01*
X106857483Y-107069091D01*
X106857485Y-107069090D01*
X106857487Y-107069090D01*
X106865031Y-107067308D01*
X106865377Y-107068775D01*
X106926342Y-107064408D01*
X106941378Y-107068822D01*
X106942511Y-107069089D01*
X106942517Y-107069091D01*
X107002127Y-107075500D01*
X107447872Y-107075499D01*
X107507483Y-107069091D01*
X107507485Y-107069090D01*
X107507487Y-107069090D01*
X107515031Y-107067308D01*
X107515377Y-107068775D01*
X107576342Y-107064408D01*
X107591378Y-107068822D01*
X107592511Y-107069089D01*
X107592517Y-107069091D01*
X107652127Y-107075500D01*
X107975500Y-107075499D01*
X108042539Y-107095183D01*
X108088294Y-107147987D01*
X108099500Y-107199499D01*
X108099500Y-107522869D01*
X108099501Y-107522876D01*
X108105908Y-107582479D01*
X108107692Y-107590026D01*
X108106229Y-107590371D01*
X108110585Y-107651371D01*
X108106173Y-107666396D01*
X108105908Y-107667517D01*
X108099501Y-107727117D01*
X108099500Y-107727136D01*
X108099500Y-108172870D01*
X108099501Y-108172876D01*
X108105908Y-108232483D01*
X108156202Y-108367328D01*
X108156206Y-108367335D01*
X108242452Y-108482544D01*
X108242453Y-108482544D01*
X108242454Y-108482546D01*
X108266575Y-108500603D01*
X108266750Y-108500734D01*
X108308620Y-108556668D01*
X108313604Y-108626360D01*
X108280118Y-108687683D01*
X108266750Y-108699266D01*
X108242452Y-108717455D01*
X108156206Y-108832664D01*
X108156202Y-108832671D01*
X108105910Y-108967513D01*
X108105909Y-108967517D01*
X108099500Y-109027127D01*
X108099500Y-109027134D01*
X108099500Y-109027135D01*
X108099500Y-109472870D01*
X108099501Y-109472876D01*
X108105908Y-109532479D01*
X108107692Y-109540026D01*
X108106229Y-109540371D01*
X108110585Y-109601371D01*
X108106173Y-109616396D01*
X108105908Y-109617517D01*
X108099501Y-109677117D01*
X108099500Y-109677137D01*
X108099500Y-110000500D01*
X108079815Y-110067539D01*
X108027011Y-110113294D01*
X107975500Y-110124500D01*
X107652130Y-110124500D01*
X107652123Y-110124501D01*
X107592520Y-110130908D01*
X107584974Y-110132692D01*
X107584628Y-110131230D01*
X107523622Y-110135584D01*
X107508600Y-110131172D01*
X107507482Y-110130908D01*
X107447882Y-110124501D01*
X107447873Y-110124500D01*
X107447863Y-110124500D01*
X107002129Y-110124500D01*
X107002123Y-110124501D01*
X106942520Y-110130908D01*
X106934974Y-110132692D01*
X106934628Y-110131230D01*
X106873622Y-110135584D01*
X106858600Y-110131172D01*
X106857482Y-110130908D01*
X106797882Y-110124501D01*
X106797873Y-110124500D01*
X106797863Y-110124500D01*
X106352129Y-110124500D01*
X106352123Y-110124501D01*
X106292520Y-110130908D01*
X106284974Y-110132692D01*
X106284628Y-110131230D01*
X106223622Y-110135584D01*
X106208600Y-110131172D01*
X106207482Y-110130908D01*
X106147882Y-110124501D01*
X106147873Y-110124500D01*
X106147863Y-110124500D01*
X105702129Y-110124500D01*
X105702123Y-110124501D01*
X105642520Y-110130908D01*
X105634974Y-110132692D01*
X105634628Y-110131230D01*
X105573622Y-110135584D01*
X105558600Y-110131172D01*
X105557482Y-110130908D01*
X105497882Y-110124501D01*
X105497873Y-110124500D01*
X105497863Y-110124500D01*
X105052129Y-110124500D01*
X105052123Y-110124501D01*
X104992516Y-110130908D01*
X104857671Y-110181202D01*
X104857664Y-110181206D01*
X104742455Y-110267452D01*
X104742452Y-110267455D01*
X104656206Y-110382664D01*
X104656202Y-110382671D01*
X104605908Y-110517517D01*
X104599501Y-110577116D01*
X104599500Y-110577135D01*
X104599500Y-111474683D01*
X104590061Y-111522135D01*
X104530264Y-111666498D01*
X104530261Y-111666510D01*
X104499500Y-111821153D01*
X104499500Y-111978846D01*
X104530261Y-112133489D01*
X104530264Y-112133501D01*
X104590602Y-112279172D01*
X104590609Y-112279185D01*
X104678210Y-112410288D01*
X104678213Y-112410292D01*
X104789707Y-112521786D01*
X104789711Y-112521789D01*
X104920814Y-112609390D01*
X104920827Y-112609397D01*
X105018351Y-112649792D01*
X105066503Y-112669737D01*
X105180427Y-112692398D01*
X105221153Y-112700499D01*
X105221156Y-112700500D01*
X105221158Y-112700500D01*
X105378843Y-112700500D01*
X105419572Y-112692398D01*
X105489164Y-112698625D01*
X105531446Y-112726334D01*
X106601348Y-113796236D01*
X106601377Y-113796267D01*
X106691595Y-113886485D01*
X106691599Y-113886488D01*
X106794039Y-113954937D01*
X106794048Y-113954942D01*
X106815071Y-113963650D01*
X106907880Y-114002093D01*
X106968303Y-114014111D01*
X107028725Y-114026130D01*
X107028726Y-114026130D01*
X108161585Y-114026130D01*
X108228624Y-114045815D01*
X108230476Y-114047028D01*
X108324756Y-114110024D01*
X108324758Y-114110025D01*
X108324762Y-114110027D01*
X108470433Y-114170365D01*
X108470438Y-114170367D01*
X108625088Y-114201129D01*
X108625091Y-114201130D01*
X108625093Y-114201130D01*
X108782779Y-114201130D01*
X108858087Y-114186150D01*
X108927679Y-114192377D01*
X108982856Y-114235240D01*
X109006101Y-114301129D01*
X108990033Y-114369126D01*
X108969960Y-114395448D01*
X106380422Y-116984986D01*
X106340195Y-117011866D01*
X106270817Y-117040604D01*
X106270810Y-117040607D01*
X106139707Y-117128208D01*
X106139703Y-117128211D01*
X106028209Y-117239705D01*
X106028206Y-117239709D01*
X105940605Y-117370812D01*
X105940598Y-117370825D01*
X105880260Y-117516496D01*
X105880257Y-117516508D01*
X105849496Y-117671151D01*
X105849496Y-117828844D01*
X105880257Y-117983487D01*
X105880260Y-117983499D01*
X105940598Y-118129170D01*
X105940605Y-118129183D01*
X106028206Y-118260286D01*
X106028209Y-118260290D01*
X106139703Y-118371784D01*
X106139707Y-118371787D01*
X106270810Y-118459388D01*
X106270823Y-118459395D01*
X106415934Y-118519501D01*
X106416499Y-118519735D01*
X106569968Y-118550262D01*
X106571149Y-118550497D01*
X106571152Y-118550498D01*
X106571154Y-118550498D01*
X106728840Y-118550498D01*
X106728841Y-118550497D01*
X106883493Y-118519735D01*
X107002525Y-118470430D01*
X107071991Y-118462962D01*
X107097421Y-118470429D01*
X107216501Y-118519753D01*
X107371066Y-118550498D01*
X107371151Y-118550515D01*
X107371154Y-118550516D01*
X107371156Y-118550516D01*
X107528842Y-118550516D01*
X107528843Y-118550515D01*
X107683495Y-118519753D01*
X107802852Y-118470313D01*
X107872321Y-118462845D01*
X107897756Y-118470314D01*
X108016498Y-118519498D01*
X108016503Y-118519500D01*
X108171153Y-118550262D01*
X108171156Y-118550263D01*
X108171158Y-118550263D01*
X108328844Y-118550263D01*
X108328845Y-118550262D01*
X108483497Y-118519500D01*
X108602243Y-118470313D01*
X108671712Y-118462845D01*
X108697147Y-118470314D01*
X108816464Y-118519736D01*
X108816505Y-118519753D01*
X108971070Y-118550498D01*
X108971155Y-118550515D01*
X108971158Y-118550516D01*
X108971160Y-118550516D01*
X109128846Y-118550516D01*
X109128847Y-118550515D01*
X109283499Y-118519753D01*
X109429181Y-118459410D01*
X109560291Y-118371805D01*
X109671791Y-118260305D01*
X109759396Y-118129195D01*
X109759404Y-118129177D01*
X109822070Y-117977885D01*
X109824516Y-117978898D01*
X109856532Y-117930057D01*
X109920347Y-117901608D01*
X109936885Y-117900500D01*
X116238331Y-117900500D01*
X116238347Y-117900501D01*
X116245943Y-117900501D01*
X116404054Y-117900501D01*
X116404057Y-117900501D01*
X116556785Y-117859577D01*
X116609991Y-117828858D01*
X116693716Y-117780520D01*
X116805520Y-117668716D01*
X116805520Y-117668714D01*
X116815724Y-117658511D01*
X116815728Y-117658506D01*
X121212416Y-113261818D01*
X121273739Y-113228333D01*
X121300097Y-113225499D01*
X121711670Y-113225499D01*
X121711676Y-113225499D01*
X121812753Y-113215174D01*
X121976516Y-113160908D01*
X122123350Y-113070340D01*
X122245340Y-112948350D01*
X122335908Y-112801516D01*
X122390174Y-112637753D01*
X122400500Y-112536677D01*
X122400499Y-111963324D01*
X122399123Y-111949857D01*
X122390174Y-111862247D01*
X122376558Y-111821158D01*
X122335908Y-111698484D01*
X122245340Y-111551650D01*
X122156371Y-111462681D01*
X122122886Y-111401358D01*
X122127870Y-111331666D01*
X122156371Y-111287319D01*
X122192105Y-111251585D01*
X122245340Y-111198350D01*
X122335908Y-111051516D01*
X122390174Y-110887753D01*
X122400500Y-110786677D01*
X122400499Y-110213324D01*
X122390174Y-110112247D01*
X122335908Y-109948484D01*
X122245340Y-109801650D01*
X122156371Y-109712681D01*
X122122886Y-109651358D01*
X122127870Y-109581666D01*
X122156371Y-109537319D01*
X122198905Y-109494785D01*
X122245340Y-109448350D01*
X122335908Y-109301516D01*
X122390174Y-109137753D01*
X122400500Y-109036677D01*
X122400499Y-108463324D01*
X122390174Y-108362247D01*
X122335908Y-108198484D01*
X122245340Y-108051650D01*
X122156371Y-107962681D01*
X122122886Y-107901358D01*
X122127870Y-107831666D01*
X122156371Y-107787319D01*
X122193190Y-107750500D01*
X122245340Y-107698350D01*
X122335908Y-107551516D01*
X122390174Y-107387753D01*
X122400500Y-107286677D01*
X122400499Y-106713324D01*
X122390174Y-106612247D01*
X122335908Y-106448484D01*
X122245340Y-106301650D01*
X122123350Y-106179660D01*
X121976516Y-106089092D01*
X121812753Y-106034826D01*
X121812751Y-106034825D01*
X121711678Y-106024500D01*
X121038330Y-106024500D01*
X121038312Y-106024501D01*
X120937247Y-106034825D01*
X120773484Y-106089092D01*
X120773481Y-106089093D01*
X120626648Y-106179661D01*
X120587681Y-106218629D01*
X120526358Y-106252114D01*
X120456666Y-106247130D01*
X120412319Y-106218629D01*
X120373351Y-106179661D01*
X120373350Y-106179660D01*
X120226516Y-106089092D01*
X120062753Y-106034826D01*
X120062751Y-106034825D01*
X119961678Y-106024500D01*
X119288330Y-106024500D01*
X119288312Y-106024501D01*
X119187247Y-106034825D01*
X119023484Y-106089092D01*
X119023481Y-106089093D01*
X118876648Y-106179661D01*
X118837681Y-106218629D01*
X118776358Y-106252114D01*
X118706666Y-106247130D01*
X118662319Y-106218629D01*
X118623351Y-106179661D01*
X118623350Y-106179660D01*
X118476516Y-106089092D01*
X118312753Y-106034826D01*
X118312751Y-106034825D01*
X118211678Y-106024500D01*
X117613330Y-106024500D01*
X117613312Y-106024501D01*
X117512247Y-106034825D01*
X117348484Y-106089092D01*
X117348481Y-106089093D01*
X117201648Y-106179661D01*
X117087681Y-106293629D01*
X117026358Y-106327114D01*
X116956666Y-106322130D01*
X116912319Y-106293629D01*
X116798351Y-106179661D01*
X116798350Y-106179660D01*
X116651516Y-106089092D01*
X116487753Y-106034826D01*
X116487751Y-106034825D01*
X116386678Y-106024500D01*
X115788330Y-106024500D01*
X115788312Y-106024501D01*
X115687247Y-106034825D01*
X115523484Y-106089092D01*
X115523481Y-106089093D01*
X115376648Y-106179661D01*
X115343129Y-106213181D01*
X115316201Y-106227884D01*
X115290383Y-106244477D01*
X115284182Y-106245368D01*
X115281806Y-106246666D01*
X115255448Y-106249500D01*
X115136999Y-106249500D01*
X115069960Y-106229815D01*
X115024205Y-106177011D01*
X115012999Y-106125500D01*
X115012999Y-105749998D01*
X115012998Y-105749981D01*
X115002499Y-105647203D01*
X115002498Y-105647200D01*
X114990267Y-105610289D01*
X114947314Y-105480666D01*
X114855212Y-105331344D01*
X114786819Y-105262951D01*
X114753334Y-105201628D01*
X114750500Y-105175270D01*
X114750500Y-104824730D01*
X114770185Y-104757691D01*
X114786819Y-104737049D01*
X114819538Y-104704330D01*
X114855212Y-104668656D01*
X114947314Y-104519334D01*
X115002499Y-104352797D01*
X115013000Y-104250009D01*
X115012999Y-103249992D01*
X115002499Y-103147203D01*
X114947314Y-102980666D01*
X114855212Y-102831344D01*
X114786819Y-102762951D01*
X114753334Y-102701628D01*
X114750500Y-102675270D01*
X114750500Y-102285522D01*
X114770185Y-102218483D01*
X114786819Y-102197841D01*
X115028997Y-101955663D01*
X115437821Y-101546838D01*
X115499142Y-101513355D01*
X115568833Y-101518339D01*
X115624767Y-101560210D01*
X115649184Y-101625675D01*
X115649500Y-101634521D01*
X115649500Y-102647870D01*
X115649501Y-102647876D01*
X115655908Y-102707483D01*
X115706202Y-102842328D01*
X115706206Y-102842335D01*
X115792452Y-102957544D01*
X115792455Y-102957547D01*
X115907664Y-103043793D01*
X115907671Y-103043797D01*
X116042517Y-103094091D01*
X116042516Y-103094091D01*
X116049444Y-103094835D01*
X116102127Y-103100500D01*
X117897872Y-103100499D01*
X117957483Y-103094091D01*
X118092331Y-103043796D01*
X118207546Y-102957546D01*
X118293796Y-102842331D01*
X118344091Y-102707483D01*
X118350500Y-102647873D01*
X118350499Y-100852128D01*
X118344091Y-100792517D01*
X118293796Y-100657669D01*
X118293795Y-100657668D01*
X118293793Y-100657664D01*
X118207547Y-100542455D01*
X118207544Y-100542452D01*
X118092335Y-100456206D01*
X118092328Y-100456202D01*
X117957482Y-100405908D01*
X117957483Y-100405908D01*
X117897883Y-100399501D01*
X117897881Y-100399500D01*
X117897873Y-100399500D01*
X117897865Y-100399500D01*
X117749500Y-100399500D01*
X117682461Y-100379815D01*
X117636706Y-100327011D01*
X117625500Y-100275500D01*
X117625500Y-99897016D01*
X117645185Y-99829977D01*
X117697989Y-99784222D01*
X117710488Y-99779313D01*
X117769334Y-99759814D01*
X117918656Y-99667712D01*
X118042712Y-99543656D01*
X118134814Y-99394334D01*
X118189999Y-99227797D01*
X118200500Y-99125009D01*
X118200499Y-98499992D01*
X118200213Y-98497195D01*
X118189999Y-98397203D01*
X118189998Y-98397200D01*
X118176413Y-98356204D01*
X118134814Y-98230666D01*
X118042712Y-98081344D01*
X117949049Y-97987681D01*
X117915564Y-97926358D01*
X117920548Y-97856666D01*
X117949049Y-97812319D01*
X117981156Y-97780212D01*
X118042712Y-97718656D01*
X118134814Y-97569334D01*
X118189999Y-97402797D01*
X118200500Y-97300009D01*
X118200499Y-96674992D01*
X118194114Y-96612491D01*
X118189999Y-96572203D01*
X118189998Y-96572200D01*
X118169289Y-96509704D01*
X118134814Y-96405666D01*
X118042712Y-96256344D01*
X117918656Y-96132288D01*
X117769334Y-96040186D01*
X117602797Y-95985001D01*
X117602795Y-95985000D01*
X117500016Y-95974500D01*
X117500009Y-95974500D01*
X116830965Y-95974500D01*
X116809719Y-95968261D01*
X116787633Y-95966682D01*
X116776849Y-95958609D01*
X116763926Y-95954815D01*
X116749425Y-95938080D01*
X116731699Y-95924811D01*
X116726991Y-95912190D01*
X116718171Y-95902011D01*
X116715019Y-95880094D01*
X116707281Y-95859347D01*
X116710143Y-95846185D01*
X116708227Y-95832853D01*
X116717425Y-95812711D01*
X116722132Y-95791074D01*
X116735402Y-95773347D01*
X116737252Y-95769297D01*
X116743283Y-95762820D01*
X116748439Y-95757664D01*
X116798729Y-95707374D01*
X116798733Y-95707372D01*
X116885858Y-95620247D01*
X116928650Y-95556204D01*
X116954312Y-95517800D01*
X116987652Y-95437306D01*
X117001463Y-95403966D01*
X117025500Y-95283120D01*
X117025500Y-94274499D01*
X117045185Y-94207460D01*
X117097989Y-94161705D01*
X117149500Y-94150499D01*
X117297871Y-94150499D01*
X117297872Y-94150499D01*
X117357483Y-94144091D01*
X117492331Y-94093796D01*
X117607546Y-94007546D01*
X117693796Y-93892331D01*
X117744091Y-93757483D01*
X117750500Y-93697873D01*
X117750499Y-91902128D01*
X117744091Y-91842517D01*
X117725442Y-91792517D01*
X117693797Y-91707671D01*
X117693793Y-91707664D01*
X117607547Y-91592455D01*
X117607544Y-91592452D01*
X117492335Y-91506206D01*
X117492328Y-91506202D01*
X117357482Y-91455908D01*
X117357483Y-91455908D01*
X117297883Y-91449501D01*
X117297881Y-91449500D01*
X117297873Y-91449500D01*
X117297865Y-91449500D01*
X116285453Y-91449500D01*
X116218414Y-91429815D01*
X116197772Y-91413181D01*
X99159742Y-74375151D01*
X99156357Y-74371766D01*
X99156355Y-74371764D01*
X99069230Y-74284639D01*
X99006485Y-74242714D01*
X99000331Y-74238602D01*
X99000329Y-74238600D01*
X98966782Y-74216184D01*
X98915817Y-74195074D01*
X98880630Y-74180500D01*
X98852949Y-74169034D01*
X98792526Y-74157015D01*
X98786295Y-74155775D01*
X98732107Y-74144997D01*
X98732104Y-74144997D01*
X98732103Y-74144997D01*
X96735177Y-74144997D01*
X96668138Y-74125312D01*
X96622383Y-74072508D01*
X96612439Y-74003350D01*
X96641464Y-73939794D01*
X96687722Y-73906436D01*
X96874076Y-73829247D01*
X97194732Y-73657853D01*
X97497044Y-73455854D01*
X97778101Y-73225197D01*
X98035197Y-72968101D01*
X98265854Y-72687044D01*
X98467853Y-72384732D01*
X98639247Y-72064076D01*
X98778386Y-71728164D01*
X98883930Y-71380233D01*
X98883932Y-71380223D01*
X98883935Y-71380212D01*
X98954862Y-71023630D01*
X98965343Y-70917217D01*
X98990500Y-70661794D01*
X98990500Y-70298206D01*
X98954862Y-69936369D01*
X98935742Y-69840245D01*
X98883935Y-69579787D01*
X98883932Y-69579776D01*
X98883931Y-69579773D01*
X98883930Y-69579767D01*
X98778386Y-69231836D01*
X98639247Y-68895924D01*
X98556583Y-68741271D01*
X98467859Y-68575279D01*
X98467858Y-68575277D01*
X98467853Y-68575268D01*
X98265854Y-68272956D01*
X98035197Y-67991899D01*
X98035196Y-67991898D01*
X98035192Y-67991893D01*
X97778106Y-67734807D01*
X97538435Y-67538114D01*
X97499101Y-67480368D01*
X97497230Y-67410524D01*
X97533418Y-67350756D01*
X97596173Y-67320040D01*
X97617089Y-67318261D01*
X123702908Y-67318255D01*
X123769947Y-67337940D01*
G37*
%TD.AperFunction*%
%TA.AperFunction,Conductor*%
G36*
X112216974Y-109475984D02*
G01*
X112243334Y-109477870D01*
X112252387Y-109483688D01*
X112259427Y-109485220D01*
X112287681Y-109506371D01*
X112401650Y-109620340D01*
X112548484Y-109710908D01*
X112712247Y-109765174D01*
X112813323Y-109775500D01*
X113411676Y-109775499D01*
X113411684Y-109775498D01*
X113411687Y-109775498D01*
X113467030Y-109769844D01*
X113512753Y-109765174D01*
X113676516Y-109710908D01*
X113685402Y-109705426D01*
X113752790Y-109686985D01*
X113819454Y-109707904D01*
X113864226Y-109761544D01*
X113874500Y-109810964D01*
X113874500Y-110226315D01*
X113854815Y-110293354D01*
X113838181Y-110313996D01*
X111521868Y-112630308D01*
X111460545Y-112663793D01*
X111390853Y-112658809D01*
X111338333Y-112621291D01*
X111334571Y-112616707D01*
X111223077Y-112505213D01*
X111223073Y-112505210D01*
X111091970Y-112417609D01*
X111091957Y-112417602D01*
X110946286Y-112357264D01*
X110946274Y-112357261D01*
X110791630Y-112326500D01*
X110791627Y-112326500D01*
X110652143Y-112326500D01*
X110622702Y-112317855D01*
X110592716Y-112311332D01*
X110587700Y-112307577D01*
X110585104Y-112306815D01*
X110564462Y-112290181D01*
X110474931Y-112200650D01*
X110474911Y-112200628D01*
X110383466Y-112109183D01*
X110338058Y-112078843D01*
X110338057Y-112078842D01*
X110332242Y-112074957D01*
X110281019Y-112040730D01*
X110200525Y-112007389D01*
X110167185Y-111993579D01*
X110167181Y-111993578D01*
X110167177Y-111993577D01*
X110076297Y-111975499D01*
X110076288Y-111975499D01*
X110046340Y-111969542D01*
X110046339Y-111969542D01*
X109730495Y-111969542D01*
X109663456Y-111949857D01*
X109642814Y-111933223D01*
X108586818Y-110877227D01*
X108572114Y-110850299D01*
X108555522Y-110824481D01*
X108554630Y-110818280D01*
X108553333Y-110815904D01*
X108550499Y-110789546D01*
X108550499Y-110699499D01*
X108570184Y-110632460D01*
X108622988Y-110586705D01*
X108674494Y-110575499D01*
X109497872Y-110575499D01*
X109557483Y-110569091D01*
X109653396Y-110533318D01*
X109675965Y-110527251D01*
X109686274Y-110525500D01*
X109701309Y-110525500D01*
X109787444Y-110508367D01*
X109822154Y-110501463D01*
X109870211Y-110481557D01*
X109935988Y-110454312D01*
X109988086Y-110419500D01*
X110038435Y-110385858D01*
X110045863Y-110378429D01*
X110054384Y-110372382D01*
X110077937Y-110364270D01*
X110099798Y-110352334D01*
X110118411Y-110350332D01*
X110120446Y-110349632D01*
X110121816Y-110349966D01*
X110126156Y-110349500D01*
X110151048Y-110349500D01*
X110218087Y-110369185D01*
X110238729Y-110385819D01*
X110313181Y-110460271D01*
X110346666Y-110521594D01*
X110349500Y-110547951D01*
X110349500Y-110786668D01*
X110349501Y-110786687D01*
X110359825Y-110887752D01*
X110360641Y-110890213D01*
X110414092Y-111051516D01*
X110504660Y-111198350D01*
X110626650Y-111320340D01*
X110773484Y-111410908D01*
X110937247Y-111465174D01*
X111038323Y-111475500D01*
X111636676Y-111475499D01*
X111636684Y-111475498D01*
X111636687Y-111475498D01*
X111692030Y-111469844D01*
X111737753Y-111465174D01*
X111901516Y-111410908D01*
X112048350Y-111320340D01*
X112170340Y-111198350D01*
X112260908Y-111051516D01*
X112315174Y-110887753D01*
X112325500Y-110786677D01*
X112325499Y-110213324D01*
X112315174Y-110112247D01*
X112260908Y-109948484D01*
X112170340Y-109801650D01*
X112081371Y-109712681D01*
X112047886Y-109651358D01*
X112052870Y-109581666D01*
X112081371Y-109537319D01*
X112112319Y-109506371D01*
X112120264Y-109502032D01*
X112125690Y-109494785D01*
X112150449Y-109485550D01*
X112173642Y-109472886D01*
X112182671Y-109473531D01*
X112191154Y-109470368D01*
X112216974Y-109475984D01*
G37*
%TD.AperFunction*%
%TA.AperFunction,Conductor*%
G36*
X109841365Y-104699066D02*
G01*
X109872558Y-104761586D01*
X109874500Y-104783443D01*
X109874500Y-105424684D01*
X109865061Y-105472136D01*
X109805264Y-105616498D01*
X109805261Y-105616510D01*
X109774500Y-105771153D01*
X109774500Y-105928846D01*
X109805261Y-106083489D01*
X109805264Y-106083501D01*
X109865602Y-106229172D01*
X109865609Y-106229185D01*
X109887424Y-106261833D01*
X109908302Y-106328511D01*
X109889817Y-106395891D01*
X109872003Y-106418405D01*
X109688135Y-106602273D01*
X109626812Y-106635758D01*
X109565349Y-106631362D01*
X109565035Y-106632693D01*
X109557483Y-106630908D01*
X109497883Y-106624501D01*
X109497881Y-106624500D01*
X109497873Y-106624500D01*
X109497865Y-106624500D01*
X108674499Y-106624500D01*
X108607460Y-106604815D01*
X108561705Y-106552011D01*
X108550499Y-106500503D01*
X108550499Y-105955903D01*
X108570184Y-105888865D01*
X108622988Y-105843110D01*
X108627047Y-105841343D01*
X108704172Y-105809397D01*
X108704172Y-105809396D01*
X108704179Y-105809394D01*
X108835289Y-105721789D01*
X108946789Y-105610289D01*
X109034394Y-105479179D01*
X109094737Y-105333497D01*
X109125500Y-105178842D01*
X109125500Y-105021158D01*
X109125500Y-105021155D01*
X109125499Y-105021153D01*
X109094738Y-104866510D01*
X109094737Y-104866503D01*
X109094732Y-104866492D01*
X109092969Y-104860676D01*
X109095677Y-104859854D01*
X109089540Y-104802398D01*
X109120858Y-104739941D01*
X109180972Y-104704330D01*
X109211555Y-104700499D01*
X109536670Y-104700499D01*
X109536676Y-104700499D01*
X109637753Y-104690174D01*
X109711495Y-104665737D01*
X109781323Y-104663335D01*
X109841365Y-104699066D01*
G37*
%TD.AperFunction*%
%TD*%
M02*
