%TF.GenerationSoftware,KiCad,Pcbnew,9.0.4*%
%TF.CreationDate,2026-01-31T11:13:06-06:00*%
%TF.ProjectId,Black Body Breakout Board,426c6163-6b20-4426-9f64-792042726561,rev?*%
%TF.SameCoordinates,Original*%
%TF.FileFunction,Legend,Bot*%
%TF.FilePolarity,Positive*%
%FSLAX46Y46*%
G04 Gerber Fmt 4.6, Leading zero omitted, Abs format (unit mm)*
G04 Created by KiCad (PCBNEW 9.0.4) date 2026-01-31 11:13:06*
%MOMM*%
%LPD*%
G01*
G04 APERTURE LIST*
G04 Aperture macros list*
%AMRoundRect*
0 Rectangle with rounded corners*
0 $1 Rounding radius*
0 $2 $3 $4 $5 $6 $7 $8 $9 X,Y pos of 4 corners*
0 Add a 4 corners polygon primitive as box body*
4,1,4,$2,$3,$4,$5,$6,$7,$8,$9,$2,$3,0*
0 Add four circle primitives for the rounded corners*
1,1,$1+$1,$2,$3*
1,1,$1+$1,$4,$5*
1,1,$1+$1,$6,$7*
1,1,$1+$1,$8,$9*
0 Add four rect primitives between the rounded corners*
20,1,$1+$1,$2,$3,$4,$5,0*
20,1,$1+$1,$4,$5,$6,$7,0*
20,1,$1+$1,$6,$7,$8,$9,0*
20,1,$1+$1,$8,$9,$2,$3,0*%
G04 Aperture macros list end*
%ADD10C,0.150000*%
%ADD11C,0.120000*%
%ADD12C,1.700000*%
%ADD13RoundRect,0.250000X0.600000X-0.850000X0.600000X0.850000X-0.600000X0.850000X-0.600000X-0.850000X0*%
%ADD14O,1.700000X2.200000*%
G04 APERTURE END LIST*
D10*
X128433333Y-66854819D02*
X128433333Y-67569104D01*
X128433333Y-67569104D02*
X128480952Y-67711961D01*
X128480952Y-67711961D02*
X128576190Y-67807200D01*
X128576190Y-67807200D02*
X128719047Y-67854819D01*
X128719047Y-67854819D02*
X128814285Y-67854819D01*
X128004761Y-66950057D02*
X127957142Y-66902438D01*
X127957142Y-66902438D02*
X127861904Y-66854819D01*
X127861904Y-66854819D02*
X127623809Y-66854819D01*
X127623809Y-66854819D02*
X127528571Y-66902438D01*
X127528571Y-66902438D02*
X127480952Y-66950057D01*
X127480952Y-66950057D02*
X127433333Y-67045295D01*
X127433333Y-67045295D02*
X127433333Y-67140533D01*
X127433333Y-67140533D02*
X127480952Y-67283390D01*
X127480952Y-67283390D02*
X128052380Y-67854819D01*
X128052380Y-67854819D02*
X127433333Y-67854819D01*
D11*
%TO.C,J2*%
X121420000Y-66440000D02*
X135080000Y-66440000D01*
X121420000Y-75120000D02*
X121420000Y-66440000D01*
X123100000Y-75120000D02*
X123400000Y-75120000D01*
X123100000Y-75570000D02*
X123100000Y-75120000D01*
X123400000Y-75120000D02*
X123400000Y-75570000D01*
X123400000Y-75570000D02*
X123100000Y-75570000D01*
X125600000Y-75120000D02*
X125900000Y-75120000D01*
X125600000Y-75570000D02*
X125600000Y-75120000D01*
X125900000Y-75120000D02*
X125900000Y-75570000D01*
X125900000Y-75570000D02*
X125600000Y-75570000D01*
X128100000Y-75120000D02*
X128400000Y-75120000D01*
X128100000Y-75570000D02*
X128100000Y-75120000D01*
X128400000Y-75120000D02*
X128400000Y-75570000D01*
X128400000Y-75570000D02*
X128100000Y-75570000D01*
X130600000Y-75120000D02*
X130900000Y-75120000D01*
X130600000Y-75570000D02*
X130600000Y-75120000D01*
X130900000Y-75120000D02*
X130900000Y-75570000D01*
X130900000Y-75570000D02*
X130600000Y-75570000D01*
X133100000Y-75120000D02*
X133400000Y-75120000D01*
X133100000Y-75570000D02*
X133100000Y-75120000D01*
X133400000Y-75120000D02*
X133400000Y-75570000D01*
X133400000Y-75570000D02*
X133100000Y-75570000D01*
X134360000Y-76930000D02*
X134784264Y-76630000D01*
X134784264Y-76630000D02*
X134784264Y-77230000D01*
X134784264Y-77230000D02*
X134360000Y-76930000D01*
X135080000Y-66440000D02*
X135080000Y-75120000D01*
X135080000Y-75120000D02*
X121420000Y-75120000D01*
%TD*%
%LPC*%
D12*
%TO.C,J2*%
X123250000Y-69750000D03*
X133250000Y-69750000D03*
D13*
X133250000Y-76930000D03*
D14*
X130750000Y-76930000D03*
X128250000Y-76930000D03*
X125750000Y-76930000D03*
X123250000Y-76930000D03*
%TD*%
%LPD*%
M02*
