%TF.GenerationSoftware,KiCad,Pcbnew,9.0.4*%
%TF.CreationDate,2026-02-02T14:37:12-06:00*%
%TF.ProjectId,Black Body Breakout Board,426c6163-6b20-4426-9f64-792042726561,rev?*%
%TF.SameCoordinates,Original*%
%TF.FileFunction,Legend,Top*%
%TF.FilePolarity,Positive*%
%FSLAX46Y46*%
G04 Gerber Fmt 4.6, Leading zero omitted, Abs format (unit mm)*
G04 Created by KiCad (PCBNEW 9.0.4) date 2026-02-02 14:37:12*
%MOMM*%
%LPD*%
G01*
G04 APERTURE LIST*
G04 Aperture macros list*
%AMRoundRect*
0 Rectangle with rounded corners*
0 $1 Rounding radius*
0 $2 $3 $4 $5 $6 $7 $8 $9 X,Y pos of 4 corners*
0 Add a 4 corners polygon primitive as box body*
4,1,4,$2,$3,$4,$5,$6,$7,$8,$9,$2,$3,0*
0 Add four circle primitives for the rounded corners*
1,1,$1+$1,$2,$3*
1,1,$1+$1,$4,$5*
1,1,$1+$1,$6,$7*
1,1,$1+$1,$8,$9*
0 Add four rect primitives between the rounded corners*
20,1,$1+$1,$2,$3,$4,$5,0*
20,1,$1+$1,$4,$5,$6,$7,0*
20,1,$1+$1,$6,$7,$8,$9,0*
20,1,$1+$1,$8,$9,$2,$3,0*%
G04 Aperture macros list end*
%ADD10C,0.150000*%
%ADD11C,0.120000*%
%ADD12RoundRect,0.237500X0.237500X-0.250000X0.237500X0.250000X-0.237500X0.250000X-0.237500X-0.250000X0*%
%ADD13RoundRect,0.237500X-0.237500X0.250000X-0.237500X-0.250000X0.237500X-0.250000X0.237500X0.250000X0*%
%ADD14RoundRect,0.237500X-0.250000X-0.237500X0.250000X-0.237500X0.250000X0.237500X-0.250000X0.237500X0*%
%ADD15RoundRect,0.237500X0.237500X-0.300000X0.237500X0.300000X-0.237500X0.300000X-0.237500X-0.300000X0*%
%ADD16RoundRect,0.100000X-0.337500X-0.100000X0.337500X-0.100000X0.337500X0.100000X-0.337500X0.100000X0*%
%ADD17C,1.700000*%
%ADD18RoundRect,0.250000X0.600000X-0.850000X0.600000X0.850000X-0.600000X0.850000X-0.600000X-0.850000X0*%
%ADD19O,1.700000X2.200000*%
G04 APERTURE END LIST*
D10*
X129774819Y-72004166D02*
X129298628Y-72337499D01*
X129774819Y-72575594D02*
X128774819Y-72575594D01*
X128774819Y-72575594D02*
X128774819Y-72194642D01*
X128774819Y-72194642D02*
X128822438Y-72099404D01*
X128822438Y-72099404D02*
X128870057Y-72051785D01*
X128870057Y-72051785D02*
X128965295Y-72004166D01*
X128965295Y-72004166D02*
X129108152Y-72004166D01*
X129108152Y-72004166D02*
X129203390Y-72051785D01*
X129203390Y-72051785D02*
X129251009Y-72099404D01*
X129251009Y-72099404D02*
X129298628Y-72194642D01*
X129298628Y-72194642D02*
X129298628Y-72575594D01*
X128774819Y-71670832D02*
X128774819Y-71051785D01*
X128774819Y-71051785D02*
X129155771Y-71385118D01*
X129155771Y-71385118D02*
X129155771Y-71242261D01*
X129155771Y-71242261D02*
X129203390Y-71147023D01*
X129203390Y-71147023D02*
X129251009Y-71099404D01*
X129251009Y-71099404D02*
X129346247Y-71051785D01*
X129346247Y-71051785D02*
X129584342Y-71051785D01*
X129584342Y-71051785D02*
X129679580Y-71099404D01*
X129679580Y-71099404D02*
X129727200Y-71147023D01*
X129727200Y-71147023D02*
X129774819Y-71242261D01*
X129774819Y-71242261D02*
X129774819Y-71527975D01*
X129774819Y-71527975D02*
X129727200Y-71623213D01*
X129727200Y-71623213D02*
X129679580Y-71670832D01*
X129334819Y-69666666D02*
X128858628Y-69999999D01*
X129334819Y-70238094D02*
X128334819Y-70238094D01*
X128334819Y-70238094D02*
X128334819Y-69857142D01*
X128334819Y-69857142D02*
X128382438Y-69761904D01*
X128382438Y-69761904D02*
X128430057Y-69714285D01*
X128430057Y-69714285D02*
X128525295Y-69666666D01*
X128525295Y-69666666D02*
X128668152Y-69666666D01*
X128668152Y-69666666D02*
X128763390Y-69714285D01*
X128763390Y-69714285D02*
X128811009Y-69761904D01*
X128811009Y-69761904D02*
X128858628Y-69857142D01*
X128858628Y-69857142D02*
X128858628Y-70238094D01*
X128430057Y-69285713D02*
X128382438Y-69238094D01*
X128382438Y-69238094D02*
X128334819Y-69142856D01*
X128334819Y-69142856D02*
X128334819Y-68904761D01*
X128334819Y-68904761D02*
X128382438Y-68809523D01*
X128382438Y-68809523D02*
X128430057Y-68761904D01*
X128430057Y-68761904D02*
X128525295Y-68714285D01*
X128525295Y-68714285D02*
X128620533Y-68714285D01*
X128620533Y-68714285D02*
X128763390Y-68761904D01*
X128763390Y-68761904D02*
X129334819Y-69333332D01*
X129334819Y-69333332D02*
X129334819Y-68714285D01*
X123558333Y-71949819D02*
X123225000Y-71473628D01*
X122986905Y-71949819D02*
X122986905Y-70949819D01*
X122986905Y-70949819D02*
X123367857Y-70949819D01*
X123367857Y-70949819D02*
X123463095Y-70997438D01*
X123463095Y-70997438D02*
X123510714Y-71045057D01*
X123510714Y-71045057D02*
X123558333Y-71140295D01*
X123558333Y-71140295D02*
X123558333Y-71283152D01*
X123558333Y-71283152D02*
X123510714Y-71378390D01*
X123510714Y-71378390D02*
X123463095Y-71426009D01*
X123463095Y-71426009D02*
X123367857Y-71473628D01*
X123367857Y-71473628D02*
X122986905Y-71473628D01*
X124510714Y-71949819D02*
X123939286Y-71949819D01*
X124225000Y-71949819D02*
X124225000Y-70949819D01*
X124225000Y-70949819D02*
X124129762Y-71092676D01*
X124129762Y-71092676D02*
X124034524Y-71187914D01*
X124034524Y-71187914D02*
X123939286Y-71235533D01*
X132679580Y-72966666D02*
X132727200Y-73014285D01*
X132727200Y-73014285D02*
X132774819Y-73157142D01*
X132774819Y-73157142D02*
X132774819Y-73252380D01*
X132774819Y-73252380D02*
X132727200Y-73395237D01*
X132727200Y-73395237D02*
X132631961Y-73490475D01*
X132631961Y-73490475D02*
X132536723Y-73538094D01*
X132536723Y-73538094D02*
X132346247Y-73585713D01*
X132346247Y-73585713D02*
X132203390Y-73585713D01*
X132203390Y-73585713D02*
X132012914Y-73538094D01*
X132012914Y-73538094D02*
X131917676Y-73490475D01*
X131917676Y-73490475D02*
X131822438Y-73395237D01*
X131822438Y-73395237D02*
X131774819Y-73252380D01*
X131774819Y-73252380D02*
X131774819Y-73157142D01*
X131774819Y-73157142D02*
X131822438Y-73014285D01*
X131822438Y-73014285D02*
X131870057Y-72966666D01*
X132774819Y-72014285D02*
X132774819Y-72585713D01*
X132774819Y-72299999D02*
X131774819Y-72299999D01*
X131774819Y-72299999D02*
X131917676Y-72395237D01*
X131917676Y-72395237D02*
X132012914Y-72490475D01*
X132012914Y-72490475D02*
X132060533Y-72585713D01*
X127515476Y-74487295D02*
X127515476Y-75134914D01*
X127515476Y-75134914D02*
X127553571Y-75211104D01*
X127553571Y-75211104D02*
X127591666Y-75249200D01*
X127591666Y-75249200D02*
X127667857Y-75287295D01*
X127667857Y-75287295D02*
X127820238Y-75287295D01*
X127820238Y-75287295D02*
X127896428Y-75249200D01*
X127896428Y-75249200D02*
X127934523Y-75211104D01*
X127934523Y-75211104D02*
X127972619Y-75134914D01*
X127972619Y-75134914D02*
X127972619Y-74487295D01*
X128772618Y-75287295D02*
X128315475Y-75287295D01*
X128544047Y-75287295D02*
X128544047Y-74487295D01*
X128544047Y-74487295D02*
X128467856Y-74601580D01*
X128467856Y-74601580D02*
X128391666Y-74677771D01*
X128391666Y-74677771D02*
X128315475Y-74715866D01*
D11*
%TO.C,R3*%
X130227500Y-72092224D02*
X130227500Y-71582776D01*
X131272500Y-72092224D02*
X131272500Y-71582776D01*
%TO.C,R2*%
X127972500Y-69245276D02*
X127972500Y-69754724D01*
X126927500Y-69245276D02*
X126927500Y-69754724D01*
%TO.C,R1*%
X123470276Y-72402500D02*
X123979724Y-72402500D01*
X123470276Y-73447500D02*
X123979724Y-73447500D01*
%TO.C,C1*%
X133240000Y-72946267D02*
X133240000Y-72653733D01*
X134260000Y-72946267D02*
X134260000Y-72653733D01*
%TO.C,U1*%
X127112500Y-71590000D02*
X129112500Y-71590000D01*
X127112500Y-74210000D02*
X129112500Y-74210000D01*
X126882500Y-71890000D02*
X126602500Y-71890000D01*
X126882500Y-71610000D01*
X126882500Y-71890000D01*
G36*
X126882500Y-71890000D02*
G01*
X126602500Y-71890000D01*
X126882500Y-71610000D01*
X126882500Y-71890000D01*
G37*
%TD*%
%LPC*%
D12*
%TO.C,R3*%
X130750000Y-72750000D03*
X130750000Y-70925000D03*
%TD*%
D13*
%TO.C,R2*%
X127450000Y-68587500D03*
X127450000Y-70412500D03*
%TD*%
D14*
%TO.C,R1*%
X122812500Y-72925000D03*
X124637500Y-72925000D03*
%TD*%
D15*
%TO.C,C1*%
X133750000Y-73662500D03*
X133750000Y-71937500D03*
%TD*%
D16*
%TO.C,U1*%
X127475000Y-72250000D03*
X127475000Y-72900000D03*
X127475000Y-73550000D03*
X128750000Y-73550000D03*
X128750000Y-72900000D03*
X128750000Y-72250000D03*
%TD*%
D17*
%TO.C,J2*%
X123250000Y-69750000D03*
X133250000Y-69750000D03*
D18*
X133250000Y-76930000D03*
D19*
X130750000Y-76930000D03*
X128250000Y-76930000D03*
X125750000Y-76930000D03*
X123250000Y-76930000D03*
%TD*%
%LPD*%
M02*
