%TF.GenerationSoftware,KiCad,Pcbnew,9.0.4*%
%TF.CreationDate,2026-01-31T11:13:06-06:00*%
%TF.ProjectId,Black Body Breakout Board,426c6163-6b20-4426-9f64-792042726561,rev?*%
%TF.SameCoordinates,Original*%
%TF.FileFunction,Legend,Top*%
%TF.FilePolarity,Positive*%
%FSLAX46Y46*%
G04 Gerber Fmt 4.6, Leading zero omitted, Abs format (unit mm)*
G04 Created by KiCad (PCBNEW 9.0.4) date 2026-01-31 11:13:06*
%MOMM*%
%LPD*%
G01*
G04 APERTURE LIST*
G04 Aperture macros list*
%AMRoundRect*
0 Rectangle with rounded corners*
0 $1 Rounding radius*
0 $2 $3 $4 $5 $6 $7 $8 $9 X,Y pos of 4 corners*
0 Add a 4 corners polygon primitive as box body*
4,1,4,$2,$3,$4,$5,$6,$7,$8,$9,$2,$3,0*
0 Add four circle primitives for the rounded corners*
1,1,$1+$1,$2,$3*
1,1,$1+$1,$4,$5*
1,1,$1+$1,$6,$7*
1,1,$1+$1,$8,$9*
0 Add four rect primitives between the rounded corners*
20,1,$1+$1,$2,$3,$4,$5,0*
20,1,$1+$1,$4,$5,$6,$7,0*
20,1,$1+$1,$6,$7,$8,$9,0*
20,1,$1+$1,$8,$9,$2,$3,0*%
G04 Aperture macros list end*
%ADD10C,0.150000*%
%ADD11C,0.125000*%
%ADD12C,0.120000*%
%ADD13RoundRect,0.100000X0.100000X-0.217500X0.100000X0.217500X-0.100000X0.217500X-0.100000X-0.217500X0*%
%ADD14RoundRect,0.250000X-0.450000X0.262500X-0.450000X-0.262500X0.450000X-0.262500X0.450000X0.262500X0*%
%ADD15RoundRect,0.250000X-0.262500X-0.450000X0.262500X-0.450000X0.262500X0.450000X-0.262500X0.450000X0*%
%ADD16RoundRect,0.250000X0.450000X-0.262500X0.450000X0.262500X-0.450000X0.262500X-0.450000X-0.262500X0*%
%ADD17RoundRect,0.100000X-0.337500X-0.100000X0.337500X-0.100000X0.337500X0.100000X-0.337500X0.100000X0*%
%ADD18C,1.700000*%
%ADD19RoundRect,0.250000X0.600000X-0.850000X0.600000X0.850000X-0.600000X0.850000X-0.600000X-0.850000X0*%
%ADD20O,1.700000X2.200000*%
G04 APERTURE END LIST*
D10*
X133149580Y-72926666D02*
X133197200Y-72974285D01*
X133197200Y-72974285D02*
X133244819Y-73117142D01*
X133244819Y-73117142D02*
X133244819Y-73212380D01*
X133244819Y-73212380D02*
X133197200Y-73355237D01*
X133197200Y-73355237D02*
X133101961Y-73450475D01*
X133101961Y-73450475D02*
X133006723Y-73498094D01*
X133006723Y-73498094D02*
X132816247Y-73545713D01*
X132816247Y-73545713D02*
X132673390Y-73545713D01*
X132673390Y-73545713D02*
X132482914Y-73498094D01*
X132482914Y-73498094D02*
X132387676Y-73450475D01*
X132387676Y-73450475D02*
X132292438Y-73355237D01*
X132292438Y-73355237D02*
X132244819Y-73212380D01*
X132244819Y-73212380D02*
X132244819Y-73117142D01*
X132244819Y-73117142D02*
X132292438Y-72974285D01*
X132292438Y-72974285D02*
X132340057Y-72926666D01*
X133244819Y-71974285D02*
X133244819Y-72545713D01*
X133244819Y-72259999D02*
X132244819Y-72259999D01*
X132244819Y-72259999D02*
X132387676Y-72355237D01*
X132387676Y-72355237D02*
X132482914Y-72450475D01*
X132482914Y-72450475D02*
X132530533Y-72545713D01*
X127266667Y-67662295D02*
X127000000Y-67281342D01*
X126809524Y-67662295D02*
X126809524Y-66862295D01*
X126809524Y-66862295D02*
X127114286Y-66862295D01*
X127114286Y-66862295D02*
X127190476Y-66900390D01*
X127190476Y-66900390D02*
X127228571Y-66938485D01*
X127228571Y-66938485D02*
X127266667Y-67014676D01*
X127266667Y-67014676D02*
X127266667Y-67128961D01*
X127266667Y-67128961D02*
X127228571Y-67205152D01*
X127228571Y-67205152D02*
X127190476Y-67243247D01*
X127190476Y-67243247D02*
X127114286Y-67281342D01*
X127114286Y-67281342D02*
X126809524Y-67281342D01*
X127571428Y-66938485D02*
X127609524Y-66900390D01*
X127609524Y-66900390D02*
X127685714Y-66862295D01*
X127685714Y-66862295D02*
X127876190Y-66862295D01*
X127876190Y-66862295D02*
X127952381Y-66900390D01*
X127952381Y-66900390D02*
X127990476Y-66938485D01*
X127990476Y-66938485D02*
X128028571Y-67014676D01*
X128028571Y-67014676D02*
X128028571Y-67090866D01*
X128028571Y-67090866D02*
X127990476Y-67205152D01*
X127990476Y-67205152D02*
X127533333Y-67662295D01*
X127533333Y-67662295D02*
X128028571Y-67662295D01*
D11*
X123599999Y-71815464D02*
X123349999Y-71458321D01*
X123171428Y-71815464D02*
X123171428Y-71065464D01*
X123171428Y-71065464D02*
X123457142Y-71065464D01*
X123457142Y-71065464D02*
X123528571Y-71101178D01*
X123528571Y-71101178D02*
X123564285Y-71136892D01*
X123564285Y-71136892D02*
X123599999Y-71208321D01*
X123599999Y-71208321D02*
X123599999Y-71315464D01*
X123599999Y-71315464D02*
X123564285Y-71386892D01*
X123564285Y-71386892D02*
X123528571Y-71422607D01*
X123528571Y-71422607D02*
X123457142Y-71458321D01*
X123457142Y-71458321D02*
X123171428Y-71458321D01*
X124314285Y-71815464D02*
X123885714Y-71815464D01*
X124099999Y-71815464D02*
X124099999Y-71065464D01*
X124099999Y-71065464D02*
X124028571Y-71172607D01*
X124028571Y-71172607D02*
X123957142Y-71244035D01*
X123957142Y-71244035D02*
X123885714Y-71279750D01*
D10*
X130616667Y-74487295D02*
X130350000Y-74106342D01*
X130159524Y-74487295D02*
X130159524Y-73687295D01*
X130159524Y-73687295D02*
X130464286Y-73687295D01*
X130464286Y-73687295D02*
X130540476Y-73725390D01*
X130540476Y-73725390D02*
X130578571Y-73763485D01*
X130578571Y-73763485D02*
X130616667Y-73839676D01*
X130616667Y-73839676D02*
X130616667Y-73953961D01*
X130616667Y-73953961D02*
X130578571Y-74030152D01*
X130578571Y-74030152D02*
X130540476Y-74068247D01*
X130540476Y-74068247D02*
X130464286Y-74106342D01*
X130464286Y-74106342D02*
X130159524Y-74106342D01*
X130883333Y-73687295D02*
X131378571Y-73687295D01*
X131378571Y-73687295D02*
X131111905Y-73992057D01*
X131111905Y-73992057D02*
X131226190Y-73992057D01*
X131226190Y-73992057D02*
X131302381Y-74030152D01*
X131302381Y-74030152D02*
X131340476Y-74068247D01*
X131340476Y-74068247D02*
X131378571Y-74144438D01*
X131378571Y-74144438D02*
X131378571Y-74334914D01*
X131378571Y-74334914D02*
X131340476Y-74411104D01*
X131340476Y-74411104D02*
X131302381Y-74449200D01*
X131302381Y-74449200D02*
X131226190Y-74487295D01*
X131226190Y-74487295D02*
X130997619Y-74487295D01*
X130997619Y-74487295D02*
X130921428Y-74449200D01*
X130921428Y-74449200D02*
X130883333Y-74411104D01*
X127515476Y-74487295D02*
X127515476Y-75134914D01*
X127515476Y-75134914D02*
X127553571Y-75211104D01*
X127553571Y-75211104D02*
X127591666Y-75249200D01*
X127591666Y-75249200D02*
X127667857Y-75287295D01*
X127667857Y-75287295D02*
X127820238Y-75287295D01*
X127820238Y-75287295D02*
X127896428Y-75249200D01*
X127896428Y-75249200D02*
X127934523Y-75211104D01*
X127934523Y-75211104D02*
X127972619Y-75134914D01*
X127972619Y-75134914D02*
X127972619Y-74487295D01*
X128772618Y-75287295D02*
X128315475Y-75287295D01*
X128544047Y-75287295D02*
X128544047Y-74487295D01*
X128544047Y-74487295D02*
X128467856Y-74601580D01*
X128467856Y-74601580D02*
X128391666Y-74677771D01*
X128391666Y-74677771D02*
X128315475Y-74715866D01*
D12*
%TO.C,R2*%
X126715000Y-69272936D02*
X126715000Y-69727064D01*
X128185000Y-69272936D02*
X128185000Y-69727064D01*
%TO.C,R1*%
X123497936Y-72190000D02*
X123952064Y-72190000D01*
X123497936Y-73660000D02*
X123952064Y-73660000D01*
%TO.C,R3*%
X130015000Y-72064564D02*
X130015000Y-71610436D01*
X131485000Y-72064564D02*
X131485000Y-71610436D01*
%TO.C,U1*%
X127112500Y-71590000D02*
X129112500Y-71590000D01*
X127112500Y-74210000D02*
X129112500Y-74210000D01*
X126882500Y-71890000D02*
X126602500Y-71890000D01*
X126882500Y-71610000D01*
X126882500Y-71890000D01*
G36*
X126882500Y-71890000D02*
G01*
X126602500Y-71890000D01*
X126882500Y-71610000D01*
X126882500Y-71890000D01*
G37*
%TD*%
%LPC*%
D13*
%TO.C,C1*%
X133750000Y-72392500D03*
X133750000Y-73207500D03*
%TD*%
D14*
%TO.C,R2*%
X127450000Y-68587500D03*
X127450000Y-70412500D03*
%TD*%
D15*
%TO.C,R1*%
X122812500Y-72925000D03*
X124637500Y-72925000D03*
%TD*%
D16*
%TO.C,R3*%
X130750000Y-72750000D03*
X130750000Y-70925000D03*
%TD*%
D17*
%TO.C,U1*%
X127475000Y-72250000D03*
X127475000Y-72900000D03*
X127475000Y-73550000D03*
X128750000Y-73550000D03*
X128750000Y-72900000D03*
X128750000Y-72250000D03*
%TD*%
D18*
%TO.C,J2*%
X123250000Y-69750000D03*
X133250000Y-69750000D03*
D19*
X133250000Y-76930000D03*
D20*
X130750000Y-76930000D03*
X128250000Y-76930000D03*
X125750000Y-76930000D03*
X123250000Y-76930000D03*
%TD*%
%LPD*%
M02*
