%TF.GenerationSoftware,KiCad,Pcbnew,9.0.4*%
%TF.CreationDate,2025-10-18T22:12:50-05:00*%
%TF.ProjectId,Black Body,426c6163-6b20-4426-9f64-792e6b696361,rev?*%
%TF.SameCoordinates,Original*%
%TF.FileFunction,Soldermask,Bot*%
%TF.FilePolarity,Negative*%
%FSLAX46Y46*%
G04 Gerber Fmt 4.6, Leading zero omitted, Abs format (unit mm)*
G04 Created by KiCad (PCBNEW 9.0.4) date 2025-10-18 22:12:50*
%MOMM*%
%LPD*%
G01*
G04 APERTURE LIST*
G04 Aperture macros list*
%AMRoundRect*
0 Rectangle with rounded corners*
0 $1 Rounding radius*
0 $2 $3 $4 $5 $6 $7 $8 $9 X,Y pos of 4 corners*
0 Add a 4 corners polygon primitive as box body*
4,1,4,$2,$3,$4,$5,$6,$7,$8,$9,$2,$3,0*
0 Add four circle primitives for the rounded corners*
1,1,$1+$1,$2,$3*
1,1,$1+$1,$4,$5*
1,1,$1+$1,$6,$7*
1,1,$1+$1,$8,$9*
0 Add four rect primitives between the rounded corners*
20,1,$1+$1,$2,$3,$4,$5,0*
20,1,$1+$1,$4,$5,$6,$7,0*
20,1,$1+$1,$6,$7,$8,$9,0*
20,1,$1+$1,$8,$9,$2,$3,0*%
G04 Aperture macros list end*
%ADD10R,1.700000X1.700000*%
%ADD11C,1.700000*%
%ADD12C,2.780000*%
%ADD13RoundRect,0.102000X-0.275000X-0.900000X0.275000X-0.900000X0.275000X0.900000X-0.275000X0.900000X0*%
%ADD14C,3.600000*%
%ADD15C,6.400000*%
%ADD16C,1.905000*%
G04 APERTURE END LIST*
D10*
%TO.C,I2C_SDA*%
X112250000Y-92750000D03*
%TD*%
%TO.C,INT*%
X117000000Y-101750000D03*
%TD*%
%TO.C,I2C_SCL*%
X116400000Y-92800000D03*
%TD*%
%TO.C,J3*%
X88885000Y-114310000D03*
D11*
X88885000Y-111770000D03*
X88885000Y-109230000D03*
X88885000Y-106690000D03*
%TD*%
D12*
%TO.C,F1*%
X81040000Y-98050000D03*
X81040000Y-101450000D03*
X90960000Y-98050000D03*
X90960000Y-101450000D03*
%TD*%
D13*
%TO.C,J1*%
X115450000Y-119100000D03*
X115450000Y-114800000D03*
X114650000Y-119100000D03*
X114650000Y-114800000D03*
X113850000Y-119100000D03*
X113850000Y-114800000D03*
X113050000Y-119100000D03*
X113050000Y-114800000D03*
X112250000Y-119100000D03*
X112250000Y-114800000D03*
X111450003Y-119100000D03*
X111450003Y-114800000D03*
X110650000Y-119100000D03*
X110650000Y-114800000D03*
X109850000Y-119100000D03*
X109850000Y-114800000D03*
X109050000Y-119100000D03*
X109050000Y-114800000D03*
X108250000Y-119100000D03*
X108250000Y-114800000D03*
X107450000Y-119100000D03*
X107450000Y-114800000D03*
X106650000Y-119100000D03*
X106650000Y-114800000D03*
D14*
X95280000Y-116950000D03*
D15*
X95280000Y-116950000D03*
D14*
X126030000Y-116950000D03*
D15*
X126030000Y-116950000D03*
D14*
X126030000Y-70480000D03*
D15*
X126030000Y-70480000D03*
D14*
X95290000Y-70480000D03*
D15*
X95290000Y-70480000D03*
%TD*%
D16*
%TO.C,J4*%
X87750000Y-94000001D03*
X87750000Y-90500000D03*
X87750000Y-86999999D03*
X87750000Y-83499999D03*
X87750000Y-79999998D03*
X87750000Y-76499997D03*
X87750000Y-72999997D03*
X87750000Y-69499996D03*
X81749997Y-94000001D03*
X81749997Y-90500000D03*
X81749997Y-86999999D03*
X81749997Y-83499999D03*
X81749997Y-79999998D03*
X81749997Y-76499997D03*
X81749997Y-72999997D03*
X81749997Y-69499996D03*
%TD*%
M02*
