M48
; DRILL file {KiCad 9.0.4} date 2026-02-02T00:45:39-0600
; FORMAT={-:-/ absolute / inch / decimal}
; #@! TF.CreationDate,2026-02-02T00:45:39-06:00
; #@! TF.GenerationSoftware,Kicad,Pcbnew,9.0.4
; #@! TF.FileFunction,Plated,1,2,PTH
FMAT,2
INCH
; #@! TA.AperFunction,Plated,PTH,ViaDrill
T1C0.0118
; #@! TA.AperFunction,Plated,PTH,ComponentDrill
T2C0.0400
; #@! TA.AperFunction,Plated,PTH,ComponentDrill
T3C0.0472
; #@! TA.AperFunction,Plated,PTH,ComponentDrill
T4C0.0630
; #@! TA.AperFunction,Plated,PTH,ComponentDrill
T5C0.0701
; #@! TA.AperFunction,Plated,PTH,ComponentDrill
T6C0.1260
%
G90
G05
T1
X3.1299Y-4.439
X3.1299Y-4.5177
X3.1299Y-4.5965
X3.1299Y-4.6752
X3.2087Y-4.439
X3.2087Y-4.5177
X3.2087Y-4.5965
X3.2087Y-4.6752
X3.2382Y-2.7756
X3.2382Y-2.8543
X3.3169Y-2.7756
X3.3169Y-2.8543
X3.4055Y-2.7756
X3.4055Y-2.8543
X3.4843Y-2.7756
X3.4843Y-2.8543
X3.937Y-4.6949
X4.0157Y-4.6949
X4.0354Y-4.189
X4.0945Y-4.6949
X4.1368Y-4.1378
X4.1703Y-4.25
X4.1718Y-4.2997
X4.1959Y-4.1378
X4.1959Y-4.4094
X4.2219Y-4.3017
X4.2244Y-4.248
X4.2648Y-4.1378
X4.3194Y-4.4685
X4.3337Y-4.2913
X4.3632Y-4.2057
X4.3824Y-4.4646
X4.3922Y-4.1245
X4.4134Y-4.252
X4.4257Y-3.9168
X4.4461Y-4.0315
X4.5172Y-3.9193
X4.5197Y-4.0315
X4.5404Y-4.4409
X4.6063Y-3.9163
X4.6063Y-4.0315
X4.7189Y-3.9164
X4.811Y-3.9164
X4.8654Y-2.9685
X4.8654Y-3.0472
X4.8654Y-3.126
X4.8654Y-3.2047
X4.9441Y-2.9685
X4.9441Y-3.0472
X4.9441Y-3.126
X4.9441Y-3.2047
X5.0228Y-2.9685
X5.0228Y-3.0472
X5.0228Y-3.126
X5.0228Y-3.2047
T2
X4.3409Y-3.6457
X4.3409Y-3.7457
X4.4409Y-3.6457
X4.4409Y-3.7457
X4.5409Y-3.6457
X4.5409Y-3.7457
X4.6409Y-3.6457
X4.6409Y-3.7457
X4.7409Y-3.6457
X4.7409Y-3.7457
T3
X3.4846Y-4.0354
X3.4846Y-4.1339
X3.4848Y-3.1201
X3.4848Y-3.2185
X3.4848Y-3.3169
X3.4848Y-3.5335
X3.4848Y-3.6319
X3.4848Y-3.7303
X3.4848Y-3.8287
X3.5833Y-3.1201
X3.5833Y-3.2185
X3.5833Y-3.3169
X3.5833Y-3.5335
X3.5833Y-3.6319
X3.5833Y-3.7303
X3.5833Y-3.8287
T4
X3.3465Y-4.3543
X3.4843Y-4.6299
X3.5157Y-4.3543
X4.0079Y-3.8583
X4.0453Y-3.0213
X4.8346Y-4.2677
X4.8819Y-3.4055
T5
X4.0461Y-3.1827
X4.0461Y-3.3165
X4.4366Y-3.1827
X4.4366Y-3.3165
T6
X3.7458Y-4.6043
X3.7462Y-2.7748
X4.9564Y-2.7748
X4.9564Y-4.6043
M30
