%TF.GenerationSoftware,KiCad,Pcbnew,9.0.4*%
%TF.CreationDate,2025-10-18T21:09:29-05:00*%
%TF.ProjectId,Black Body Breakout Board,426c6163-6b20-4426-9f64-792042726561,rev?*%
%TF.SameCoordinates,Original*%
%TF.FileFunction,Copper,L1,Top*%
%TF.FilePolarity,Positive*%
%FSLAX46Y46*%
G04 Gerber Fmt 4.6, Leading zero omitted, Abs format (unit mm)*
G04 Created by KiCad (PCBNEW 9.0.4) date 2025-10-18 21:09:29*
%MOMM*%
%LPD*%
G01*
G04 APERTURE LIST*
G04 Aperture macros list*
%AMRoundRect*
0 Rectangle with rounded corners*
0 $1 Rounding radius*
0 $2 $3 $4 $5 $6 $7 $8 $9 X,Y pos of 4 corners*
0 Add a 4 corners polygon primitive as box body*
4,1,4,$2,$3,$4,$5,$6,$7,$8,$9,$2,$3,0*
0 Add four circle primitives for the rounded corners*
1,1,$1+$1,$2,$3*
1,1,$1+$1,$4,$5*
1,1,$1+$1,$6,$7*
1,1,$1+$1,$8,$9*
0 Add four rect primitives between the rounded corners*
20,1,$1+$1,$2,$3,$4,$5,0*
20,1,$1+$1,$4,$5,$6,$7,0*
20,1,$1+$1,$6,$7,$8,$9,0*
20,1,$1+$1,$8,$9,$2,$3,0*%
G04 Aperture macros list end*
%TA.AperFunction,ComponentPad*%
%ADD10RoundRect,0.250000X0.600000X-0.850000X0.600000X0.850000X-0.600000X0.850000X-0.600000X-0.850000X0*%
%TD*%
%TA.AperFunction,ComponentPad*%
%ADD11O,1.700000X2.200000*%
%TD*%
%TA.AperFunction,SMDPad,CuDef*%
%ADD12RoundRect,0.250000X-0.450000X0.262500X-0.450000X-0.262500X0.450000X-0.262500X0.450000X0.262500X0*%
%TD*%
%TA.AperFunction,SMDPad,CuDef*%
%ADD13RoundRect,0.250000X0.475000X-0.250000X0.475000X0.250000X-0.475000X0.250000X-0.475000X-0.250000X0*%
%TD*%
%TA.AperFunction,SMDPad,CuDef*%
%ADD14RoundRect,0.100000X-0.337500X-0.100000X0.337500X-0.100000X0.337500X0.100000X-0.337500X0.100000X0*%
%TD*%
%TA.AperFunction,SMDPad,CuDef*%
%ADD15RoundRect,0.250000X0.262500X0.450000X-0.262500X0.450000X-0.262500X-0.450000X0.262500X-0.450000X0*%
%TD*%
%TA.AperFunction,ViaPad*%
%ADD16C,0.600000*%
%TD*%
%TA.AperFunction,Conductor*%
%ADD17C,0.200000*%
%TD*%
G04 APERTURE END LIST*
D10*
%TO.P,J2,1,Pin_1*%
%TO.N,GND*%
X133250000Y-76930000D03*
D11*
%TO.P,J2,2,Pin_2*%
%TO.N,+3V3*%
X130750000Y-76930000D03*
%TO.P,J2,3,Pin_3*%
%TO.N,Net-(J2-Pin_3)*%
X128250000Y-76930000D03*
%TO.P,J2,4,Pin_4*%
%TO.N,Net-(J2-Pin_4)*%
X125750000Y-76930000D03*
%TO.P,J2,5,Pin_5*%
%TO.N,Net-(J2-Pin_5)*%
X123250000Y-76930000D03*
%TD*%
D12*
%TO.P,R2,2*%
%TO.N,Net-(J2-Pin_4)*%
X125600000Y-70462500D03*
%TO.P,R2,1*%
%TO.N,+3V3*%
X125600000Y-68637500D03*
%TD*%
D13*
%TO.P,C1,2*%
%TO.N,+3V3*%
X130000000Y-71550000D03*
%TO.P,C1,1*%
%TO.N,GND*%
X130000000Y-73450000D03*
%TD*%
D12*
%TO.P,R1,2*%
%TO.N,Net-(J2-Pin_5)*%
X123000000Y-73912500D03*
%TO.P,R1,1*%
%TO.N,+3V3*%
X123000000Y-72087500D03*
%TD*%
D14*
%TO.P,U1,6,SDA*%
%TO.N,Net-(J2-Pin_3)*%
X127100000Y-72550000D03*
%TO.P,U1,5,VDD*%
%TO.N,+3V3*%
X127100000Y-73200000D03*
%TO.P,U1,4,NC*%
%TO.N,unconnected-(U1-NC-Pad4)*%
X127100000Y-73850000D03*
%TO.P,U1,3,GND*%
%TO.N,GND*%
X125825000Y-73850000D03*
%TO.P,U1,2,INT*%
%TO.N,Net-(J2-Pin_5)*%
X125825000Y-73200000D03*
%TO.P,U1,1,SCL*%
%TO.N,Net-(J2-Pin_4)*%
X125825000Y-72550000D03*
%TD*%
D15*
%TO.P,R3,2*%
%TO.N,Net-(J2-Pin_3)*%
X128087500Y-69500000D03*
%TO.P,R3,1*%
%TO.N,+3V3*%
X129912500Y-69500000D03*
%TD*%
D16*
%TO.N,GND*%
X130025000Y-73475000D03*
%TO.N,+3V3*%
X128250000Y-73250000D03*
X128750000Y-71500000D03*
%TO.N,Net-(J2-Pin_4)*%
X124500000Y-74000000D03*
X125000000Y-72500000D03*
%TO.N,GND*%
X127500000Y-75000000D03*
%TD*%
D17*
%TO.N,Net-(J2-Pin_3)*%
X128851000Y-72450943D02*
X128087500Y-71687443D01*
X127100000Y-71287500D02*
X128237500Y-70150000D01*
X127100000Y-72550000D02*
X127100000Y-71287500D01*
X128087500Y-71687443D02*
X128087500Y-69500000D01*
%TO.N,Net-(J2-Pin_4)*%
X125600000Y-72325000D02*
X125600000Y-70462500D01*
%TO.N,+3V3*%
X128750000Y-71500000D02*
X129950000Y-71500000D01*
X128200000Y-73200000D02*
X128250000Y-73250000D01*
%TO.N,Net-(J2-Pin_4)*%
X125825000Y-72550000D02*
X125600000Y-72325000D01*
%TO.N,GND*%
X126975000Y-75000000D02*
X127500000Y-75000000D01*
%TO.N,+3V3*%
X127100000Y-73200000D02*
X128200000Y-73200000D01*
X129950000Y-71500000D02*
X130000000Y-71550000D01*
%TO.N,GND*%
X125825000Y-73850000D02*
X126975000Y-75000000D01*
%TO.N,Net-(J2-Pin_4)*%
X125000000Y-72500000D02*
X125775000Y-72500000D01*
X125775000Y-72500000D02*
X125825000Y-72550000D01*
%TO.N,Net-(J2-Pin_5)*%
X123450000Y-74362500D02*
X123000000Y-73912500D01*
X123712500Y-73200000D02*
X125825000Y-73200000D01*
X123000000Y-73912500D02*
X123712500Y-73200000D01*
%TO.N,Net-(J2-Pin_4)*%
X125950000Y-77080000D02*
X125950000Y-75450000D01*
X125950000Y-75450000D02*
X124500000Y-74000000D01*
%TO.N,Net-(J2-Pin_5)*%
X123450000Y-77080000D02*
X123450000Y-74362500D01*
%TO.N,GND*%
X133450000Y-77080000D02*
X133130000Y-77080000D01*
X133450000Y-76900000D02*
X133450000Y-77080000D01*
%TO.N,Net-(J2-Pin_3)*%
X128450000Y-77080000D02*
X128851000Y-76679000D01*
X128450000Y-77080000D02*
X127838500Y-76468500D01*
X128851000Y-76679000D02*
X128851000Y-72450943D01*
%TD*%
%TA.AperFunction,Conductor*%
%TO.N,+3V3*%
G36*
X135083987Y-66297801D02*
G01*
X135092777Y-66296511D01*
X135116999Y-66307484D01*
X135142509Y-66314967D01*
X135148327Y-66321677D01*
X135156420Y-66325344D01*
X135170863Y-66347670D01*
X135188279Y-66367757D01*
X135190521Y-66378057D01*
X135194371Y-66384008D01*
X135199499Y-66418928D01*
X135199500Y-66419259D01*
X135199500Y-66465892D01*
X135199642Y-66466424D01*
X135199668Y-66474922D01*
X135199669Y-66474998D01*
X135227770Y-78151394D01*
X135208246Y-78218480D01*
X135155553Y-78264362D01*
X135103759Y-78275692D01*
X134647224Y-78275653D01*
X134580187Y-78255963D01*
X134534436Y-78203155D01*
X134524499Y-78133995D01*
X134532763Y-78106262D01*
X134532542Y-78106189D01*
X134534812Y-78099335D01*
X134534814Y-78099334D01*
X134589999Y-77932797D01*
X134600500Y-77830009D01*
X134600499Y-76029992D01*
X134589999Y-75927203D01*
X134534814Y-75760666D01*
X134442712Y-75611344D01*
X134318656Y-75487288D01*
X134221594Y-75427420D01*
X134169336Y-75395187D01*
X134169331Y-75395185D01*
X134154076Y-75390130D01*
X134002797Y-75340001D01*
X134002795Y-75340000D01*
X133900010Y-75329500D01*
X132599998Y-75329500D01*
X132599981Y-75329501D01*
X132497203Y-75340000D01*
X132497200Y-75340001D01*
X132330668Y-75395185D01*
X132330663Y-75395187D01*
X132181342Y-75487289D01*
X132057289Y-75611342D01*
X131965187Y-75760663D01*
X131965185Y-75760668D01*
X131952083Y-75800208D01*
X131910001Y-75927203D01*
X131910001Y-75927204D01*
X131910000Y-75927204D01*
X131899500Y-76029983D01*
X131899500Y-77830001D01*
X131899501Y-77830018D01*
X131910000Y-77932796D01*
X131910001Y-77932799D01*
X131943508Y-78033914D01*
X131955459Y-78069981D01*
X131967458Y-78106189D01*
X131966189Y-78106609D01*
X131975523Y-78168091D01*
X131946998Y-78231873D01*
X131888519Y-78270108D01*
X131852639Y-78275409D01*
X129364054Y-78275192D01*
X129297016Y-78255502D01*
X129251266Y-78202694D01*
X129241329Y-78133534D01*
X129270359Y-78069981D01*
X129276376Y-78063519D01*
X129280104Y-78059792D01*
X129280106Y-78059788D01*
X129280109Y-78059786D01*
X129405048Y-77887820D01*
X129405047Y-77887820D01*
X129405051Y-77887816D01*
X129501557Y-77698412D01*
X129567246Y-77496243D01*
X129600500Y-77286287D01*
X129600500Y-76573713D01*
X129567246Y-76363757D01*
X129501557Y-76161588D01*
X129500000Y-76158532D01*
X129465015Y-76089868D01*
X129451500Y-76033574D01*
X129451500Y-74574499D01*
X129471185Y-74507460D01*
X129523989Y-74461705D01*
X129575495Y-74450499D01*
X130525008Y-74450499D01*
X130525016Y-74450498D01*
X130525019Y-74450498D01*
X130581302Y-74444748D01*
X130627797Y-74439999D01*
X130794334Y-74384814D01*
X130943656Y-74292712D01*
X131067712Y-74168656D01*
X131159814Y-74019334D01*
X131214999Y-73852797D01*
X131225500Y-73750009D01*
X131225499Y-73149992D01*
X131214999Y-73047203D01*
X131159814Y-72880666D01*
X131067712Y-72731344D01*
X130943656Y-72607288D01*
X130794334Y-72515186D01*
X130627797Y-72460001D01*
X130627795Y-72460000D01*
X130525016Y-72449500D01*
X129567445Y-72449500D01*
X129500406Y-72429815D01*
X129454651Y-72377011D01*
X129447670Y-72357593D01*
X129434986Y-72310256D01*
X129410577Y-72219158D01*
X129369008Y-72147159D01*
X129331520Y-72082227D01*
X129219716Y-71970423D01*
X129215385Y-71966092D01*
X129215374Y-71966082D01*
X128724319Y-71475027D01*
X128690834Y-71413704D01*
X128688000Y-71387346D01*
X128688000Y-70692507D01*
X128707685Y-70625468D01*
X128746903Y-70586968D01*
X128818656Y-70542712D01*
X128942712Y-70418656D01*
X129034814Y-70269334D01*
X129089999Y-70102797D01*
X129100500Y-70000009D01*
X129100499Y-69663389D01*
X132149500Y-69663389D01*
X132149500Y-69836610D01*
X132175380Y-70000016D01*
X132176598Y-70007701D01*
X132230127Y-70172445D01*
X132308768Y-70326788D01*
X132410586Y-70466928D01*
X132533072Y-70589414D01*
X132673212Y-70691232D01*
X132827555Y-70769873D01*
X132992299Y-70823402D01*
X133163389Y-70850500D01*
X133163390Y-70850500D01*
X133336610Y-70850500D01*
X133336611Y-70850500D01*
X133507701Y-70823402D01*
X133672445Y-70769873D01*
X133826788Y-70691232D01*
X133966928Y-70589414D01*
X134089414Y-70466928D01*
X134191232Y-70326788D01*
X134269873Y-70172445D01*
X134323402Y-70007701D01*
X134350500Y-69836611D01*
X134350500Y-69663389D01*
X134323402Y-69492299D01*
X134269873Y-69327555D01*
X134191232Y-69173212D01*
X134089414Y-69033072D01*
X133966928Y-68910586D01*
X133826788Y-68808768D01*
X133672445Y-68730127D01*
X133507701Y-68676598D01*
X133507699Y-68676597D01*
X133507698Y-68676597D01*
X133376271Y-68655781D01*
X133336611Y-68649500D01*
X133163389Y-68649500D01*
X133123728Y-68655781D01*
X132992302Y-68676597D01*
X132827552Y-68730128D01*
X132673211Y-68808768D01*
X132593256Y-68866859D01*
X132533072Y-68910586D01*
X132533070Y-68910588D01*
X132533069Y-68910588D01*
X132410588Y-69033069D01*
X132410588Y-69033070D01*
X132410586Y-69033072D01*
X132366859Y-69093256D01*
X132308768Y-69173211D01*
X132230128Y-69327552D01*
X132176597Y-69492302D01*
X132149500Y-69663389D01*
X129100499Y-69663389D01*
X129100499Y-69492303D01*
X129100499Y-68999998D01*
X129100498Y-68999980D01*
X129089999Y-68897203D01*
X129089998Y-68897200D01*
X129060694Y-68808768D01*
X129034814Y-68730666D01*
X128942712Y-68581344D01*
X128818656Y-68457288D01*
X128669334Y-68365186D01*
X128502797Y-68310001D01*
X128502795Y-68310000D01*
X128400010Y-68299500D01*
X127774998Y-68299500D01*
X127774980Y-68299501D01*
X127672203Y-68310000D01*
X127672200Y-68310001D01*
X127505668Y-68365185D01*
X127505663Y-68365187D01*
X127356342Y-68457289D01*
X127232289Y-68581342D01*
X127140187Y-68730663D01*
X127140185Y-68730668D01*
X127112349Y-68814670D01*
X127085001Y-68897203D01*
X127085001Y-68897204D01*
X127085000Y-68897204D01*
X127074500Y-68999983D01*
X127074500Y-70000001D01*
X127074501Y-70000019D01*
X127085000Y-70102796D01*
X127085001Y-70102799D01*
X127140185Y-70269331D01*
X127143240Y-70275882D01*
X127140955Y-70276947D01*
X127156270Y-70332894D01*
X127135354Y-70399559D01*
X127119973Y-70418291D01*
X127012178Y-70526085D01*
X126950858Y-70559569D01*
X126881166Y-70554585D01*
X126825232Y-70512714D01*
X126800815Y-70447250D01*
X126800499Y-70438403D01*
X126800499Y-70149998D01*
X126800498Y-70149981D01*
X126789999Y-70047203D01*
X126789998Y-70047200D01*
X126774358Y-70000001D01*
X126734814Y-69880666D01*
X126642712Y-69731344D01*
X126518656Y-69607288D01*
X126369334Y-69515186D01*
X126202797Y-69460001D01*
X126202795Y-69460000D01*
X126100010Y-69449500D01*
X125099998Y-69449500D01*
X125099980Y-69449501D01*
X124997203Y-69460000D01*
X124997200Y-69460001D01*
X124830668Y-69515185D01*
X124830663Y-69515187D01*
X124681345Y-69607287D01*
X124560148Y-69728484D01*
X124498825Y-69761968D01*
X124429133Y-69756984D01*
X124373200Y-69715112D01*
X124349995Y-69660201D01*
X124323402Y-69492299D01*
X124269873Y-69327555D01*
X124191232Y-69173212D01*
X124089414Y-69033072D01*
X123966928Y-68910586D01*
X123826788Y-68808768D01*
X123672445Y-68730127D01*
X123507701Y-68676598D01*
X123507699Y-68676597D01*
X123507698Y-68676597D01*
X123376271Y-68655781D01*
X123336611Y-68649500D01*
X123163389Y-68649500D01*
X123123728Y-68655781D01*
X122992302Y-68676597D01*
X122827552Y-68730128D01*
X122673211Y-68808768D01*
X122593256Y-68866859D01*
X122533072Y-68910586D01*
X122533070Y-68910588D01*
X122533069Y-68910588D01*
X122410588Y-69033069D01*
X122410588Y-69033070D01*
X122410586Y-69033072D01*
X122366859Y-69093256D01*
X122308768Y-69173211D01*
X122230128Y-69327552D01*
X122176597Y-69492302D01*
X122149500Y-69663389D01*
X122149500Y-69836610D01*
X122175380Y-70000016D01*
X122176598Y-70007701D01*
X122230127Y-70172445D01*
X122308768Y-70326788D01*
X122410586Y-70466928D01*
X122533072Y-70589414D01*
X122673212Y-70691232D01*
X122827555Y-70769873D01*
X122992299Y-70823402D01*
X123163389Y-70850500D01*
X123163390Y-70850500D01*
X123336610Y-70850500D01*
X123336611Y-70850500D01*
X123507701Y-70823402D01*
X123672445Y-70769873D01*
X123826788Y-70691232D01*
X123966928Y-70589414D01*
X124089414Y-70466928D01*
X124175183Y-70348876D01*
X124230512Y-70306213D01*
X124300125Y-70300234D01*
X124361920Y-70332840D01*
X124396278Y-70393679D01*
X124399500Y-70421764D01*
X124399500Y-70775001D01*
X124399501Y-70775019D01*
X124410000Y-70877796D01*
X124410001Y-70877799D01*
X124465185Y-71044331D01*
X124465186Y-71044334D01*
X124557288Y-71193656D01*
X124681344Y-71317712D01*
X124830666Y-71409814D01*
X124914505Y-71437595D01*
X124934535Y-71451463D01*
X124956703Y-71461587D01*
X124962751Y-71470998D01*
X124971948Y-71477366D01*
X124981302Y-71499864D01*
X124994477Y-71520365D01*
X124996935Y-71537465D01*
X124998772Y-71541882D01*
X124999500Y-71555300D01*
X124999500Y-71582152D01*
X124979815Y-71649191D01*
X124927011Y-71694946D01*
X124899692Y-71703769D01*
X124766508Y-71730261D01*
X124766498Y-71730264D01*
X124620827Y-71790602D01*
X124620814Y-71790609D01*
X124489711Y-71878210D01*
X124489707Y-71878213D01*
X124378213Y-71989707D01*
X124378210Y-71989711D01*
X124290609Y-72120814D01*
X124290602Y-72120827D01*
X124230264Y-72266498D01*
X124230261Y-72266510D01*
X124199500Y-72421153D01*
X124199500Y-72475500D01*
X124179815Y-72542539D01*
X124127011Y-72588294D01*
X124075500Y-72599500D01*
X123791557Y-72599500D01*
X123633443Y-72599500D01*
X123480715Y-72640423D01*
X123480714Y-72640423D01*
X123480712Y-72640424D01*
X123480709Y-72640425D01*
X123430596Y-72669359D01*
X123430595Y-72669360D01*
X123395952Y-72689361D01*
X123343785Y-72719479D01*
X123343782Y-72719481D01*
X123231979Y-72831284D01*
X123231978Y-72831286D01*
X123200081Y-72863183D01*
X123138757Y-72896667D01*
X123112401Y-72899500D01*
X122499998Y-72899500D01*
X122499980Y-72899501D01*
X122397203Y-72910000D01*
X122397200Y-72910001D01*
X122230668Y-72965185D01*
X122230663Y-72965187D01*
X122081342Y-73057289D01*
X121957289Y-73181342D01*
X121865187Y-73330663D01*
X121865186Y-73330666D01*
X121810001Y-73497203D01*
X121810001Y-73497204D01*
X121810000Y-73497204D01*
X121799500Y-73599983D01*
X121799500Y-74225001D01*
X121799501Y-74225019D01*
X121810000Y-74327796D01*
X121810001Y-74327799D01*
X121850660Y-74450498D01*
X121865186Y-74494334D01*
X121957288Y-74643656D01*
X122081344Y-74767712D01*
X122230666Y-74859814D01*
X122397203Y-74914999D01*
X122499991Y-74925500D01*
X122725500Y-74925499D01*
X122792539Y-74945183D01*
X122838294Y-74997987D01*
X122849500Y-75049499D01*
X122849500Y-75300039D01*
X122829815Y-75367078D01*
X122777011Y-75412833D01*
X122763821Y-75417969D01*
X122731586Y-75428443D01*
X122542179Y-75524951D01*
X122370213Y-75649890D01*
X122219890Y-75800213D01*
X122094951Y-75972179D01*
X121998444Y-76161585D01*
X121932753Y-76363760D01*
X121899500Y-76573713D01*
X121899500Y-77286286D01*
X121932753Y-77496239D01*
X121998444Y-77698414D01*
X122094951Y-77887820D01*
X122219890Y-78059786D01*
X122222985Y-78062881D01*
X122256470Y-78124204D01*
X122251486Y-78193896D01*
X122209614Y-78249829D01*
X122144150Y-78274246D01*
X122135293Y-78274562D01*
X121422334Y-78274500D01*
X121355296Y-78254810D01*
X121309546Y-78202002D01*
X121298345Y-78150251D01*
X121322130Y-66423053D01*
X121341951Y-66356054D01*
X121394847Y-66310406D01*
X121446126Y-66299305D01*
X121480457Y-66299304D01*
X121500991Y-66299304D01*
X121501284Y-66299283D01*
X135075466Y-66295302D01*
X135083987Y-66297801D01*
G37*
%TD.AperFunction*%
%TA.AperFunction,Conductor*%
G36*
X128189773Y-72773175D02*
G01*
X128237384Y-72824312D01*
X128250500Y-72879817D01*
X128250500Y-73520182D01*
X128230815Y-73587221D01*
X128178011Y-73632976D01*
X128108853Y-73642920D01*
X128045297Y-73613895D01*
X128011939Y-73567635D01*
X127962036Y-73447160D01*
X127962036Y-73447159D01*
X127865782Y-73321718D01*
X127835360Y-73298374D01*
X127794158Y-73241949D01*
X127790003Y-73172203D01*
X127824214Y-73111282D01*
X127835351Y-73101631D01*
X127865782Y-73078282D01*
X127962036Y-72952841D01*
X128011939Y-72832363D01*
X128055780Y-72777961D01*
X128122074Y-72755896D01*
X128189773Y-72773175D01*
G37*
%TD.AperFunction*%
%TD*%
M02*
