%TF.GenerationSoftware,KiCad,Pcbnew,9.0.4*%
%TF.CreationDate,2025-10-18T22:14:25-05:00*%
%TF.ProjectId,Black Body Breakout Board,426c6163-6b20-4426-9f64-792042726561,rev?*%
%TF.SameCoordinates,Original*%
%TF.FileFunction,Legend,Top*%
%TF.FilePolarity,Positive*%
%FSLAX46Y46*%
G04 Gerber Fmt 4.6, Leading zero omitted, Abs format (unit mm)*
G04 Created by KiCad (PCBNEW 9.0.4) date 2025-10-18 22:14:25*
%MOMM*%
%LPD*%
G01*
G04 APERTURE LIST*
%ADD10C,0.150000*%
%ADD11C,0.120000*%
G04 APERTURE END LIST*
D10*
X125366667Y-67862295D02*
X125100000Y-67481342D01*
X124909524Y-67862295D02*
X124909524Y-67062295D01*
X124909524Y-67062295D02*
X125214286Y-67062295D01*
X125214286Y-67062295D02*
X125290476Y-67100390D01*
X125290476Y-67100390D02*
X125328571Y-67138485D01*
X125328571Y-67138485D02*
X125366667Y-67214676D01*
X125366667Y-67214676D02*
X125366667Y-67328961D01*
X125366667Y-67328961D02*
X125328571Y-67405152D01*
X125328571Y-67405152D02*
X125290476Y-67443247D01*
X125290476Y-67443247D02*
X125214286Y-67481342D01*
X125214286Y-67481342D02*
X124909524Y-67481342D01*
X125671428Y-67138485D02*
X125709524Y-67100390D01*
X125709524Y-67100390D02*
X125785714Y-67062295D01*
X125785714Y-67062295D02*
X125976190Y-67062295D01*
X125976190Y-67062295D02*
X126052381Y-67100390D01*
X126052381Y-67100390D02*
X126090476Y-67138485D01*
X126090476Y-67138485D02*
X126128571Y-67214676D01*
X126128571Y-67214676D02*
X126128571Y-67290866D01*
X126128571Y-67290866D02*
X126090476Y-67405152D01*
X126090476Y-67405152D02*
X125633333Y-67862295D01*
X125633333Y-67862295D02*
X126128571Y-67862295D01*
X124862295Y-73420683D02*
X124481342Y-73687350D01*
X124862295Y-73877826D02*
X124062295Y-73877826D01*
X124062295Y-73877826D02*
X124062295Y-73573064D01*
X124062295Y-73573064D02*
X124100390Y-73496874D01*
X124100390Y-73496874D02*
X124138485Y-73458779D01*
X124138485Y-73458779D02*
X124214676Y-73420683D01*
X124214676Y-73420683D02*
X124328961Y-73420683D01*
X124328961Y-73420683D02*
X124405152Y-73458779D01*
X124405152Y-73458779D02*
X124443247Y-73496874D01*
X124443247Y-73496874D02*
X124481342Y-73573064D01*
X124481342Y-73573064D02*
X124481342Y-73877826D01*
X124862295Y-72658779D02*
X124862295Y-73115922D01*
X124862295Y-72887350D02*
X124062295Y-72887350D01*
X124062295Y-72887350D02*
X124176580Y-72963541D01*
X124176580Y-72963541D02*
X124252771Y-73039731D01*
X124252771Y-73039731D02*
X124290866Y-73115922D01*
X128866667Y-68362295D02*
X128600000Y-67981342D01*
X128409524Y-68362295D02*
X128409524Y-67562295D01*
X128409524Y-67562295D02*
X128714286Y-67562295D01*
X128714286Y-67562295D02*
X128790476Y-67600390D01*
X128790476Y-67600390D02*
X128828571Y-67638485D01*
X128828571Y-67638485D02*
X128866667Y-67714676D01*
X128866667Y-67714676D02*
X128866667Y-67828961D01*
X128866667Y-67828961D02*
X128828571Y-67905152D01*
X128828571Y-67905152D02*
X128790476Y-67943247D01*
X128790476Y-67943247D02*
X128714286Y-67981342D01*
X128714286Y-67981342D02*
X128409524Y-67981342D01*
X129133333Y-67562295D02*
X129628571Y-67562295D01*
X129628571Y-67562295D02*
X129361905Y-67867057D01*
X129361905Y-67867057D02*
X129476190Y-67867057D01*
X129476190Y-67867057D02*
X129552381Y-67905152D01*
X129552381Y-67905152D02*
X129590476Y-67943247D01*
X129590476Y-67943247D02*
X129628571Y-68019438D01*
X129628571Y-68019438D02*
X129628571Y-68209914D01*
X129628571Y-68209914D02*
X129590476Y-68286104D01*
X129590476Y-68286104D02*
X129552381Y-68324200D01*
X129552381Y-68324200D02*
X129476190Y-68362295D01*
X129476190Y-68362295D02*
X129247619Y-68362295D01*
X129247619Y-68362295D02*
X129171428Y-68324200D01*
X129171428Y-68324200D02*
X129133333Y-68286104D01*
X132359580Y-72866666D02*
X132407200Y-72914285D01*
X132407200Y-72914285D02*
X132454819Y-73057142D01*
X132454819Y-73057142D02*
X132454819Y-73152380D01*
X132454819Y-73152380D02*
X132407200Y-73295237D01*
X132407200Y-73295237D02*
X132311961Y-73390475D01*
X132311961Y-73390475D02*
X132216723Y-73438094D01*
X132216723Y-73438094D02*
X132026247Y-73485713D01*
X132026247Y-73485713D02*
X131883390Y-73485713D01*
X131883390Y-73485713D02*
X131692914Y-73438094D01*
X131692914Y-73438094D02*
X131597676Y-73390475D01*
X131597676Y-73390475D02*
X131502438Y-73295237D01*
X131502438Y-73295237D02*
X131454819Y-73152380D01*
X131454819Y-73152380D02*
X131454819Y-73057142D01*
X131454819Y-73057142D02*
X131502438Y-72914285D01*
X131502438Y-72914285D02*
X131550057Y-72866666D01*
X132454819Y-71914285D02*
X132454819Y-72485713D01*
X132454819Y-72199999D02*
X131454819Y-72199999D01*
X131454819Y-72199999D02*
X131597676Y-72295237D01*
X131597676Y-72295237D02*
X131692914Y-72390475D01*
X131692914Y-72390475D02*
X131740533Y-72485713D01*
X125890476Y-74562295D02*
X125890476Y-75209914D01*
X125890476Y-75209914D02*
X125928571Y-75286104D01*
X125928571Y-75286104D02*
X125966666Y-75324200D01*
X125966666Y-75324200D02*
X126042857Y-75362295D01*
X126042857Y-75362295D02*
X126195238Y-75362295D01*
X126195238Y-75362295D02*
X126271428Y-75324200D01*
X126271428Y-75324200D02*
X126309523Y-75286104D01*
X126309523Y-75286104D02*
X126347619Y-75209914D01*
X126347619Y-75209914D02*
X126347619Y-74562295D01*
X127147618Y-75362295D02*
X126690475Y-75362295D01*
X126919047Y-75362295D02*
X126919047Y-74562295D01*
X126919047Y-74562295D02*
X126842856Y-74676580D01*
X126842856Y-74676580D02*
X126766666Y-74752771D01*
X126766666Y-74752771D02*
X126690475Y-74790866D01*
D11*
%TO.C,R2*%
X124865000Y-69322936D02*
X124865000Y-69777064D01*
X126335000Y-69322936D02*
X126335000Y-69777064D01*
%TO.C,R1*%
X122265000Y-72772936D02*
X122265000Y-73227064D01*
X123735000Y-72772936D02*
X123735000Y-73227064D01*
%TO.C,R3*%
X129227064Y-68765000D02*
X128772936Y-68765000D01*
X129227064Y-70235000D02*
X128772936Y-70235000D01*
%TO.C,C1*%
X129265000Y-72761252D02*
X129265000Y-72238748D01*
X130735000Y-72761252D02*
X130735000Y-72238748D01*
%TO.C,U1*%
X125437500Y-71390000D02*
X127437500Y-71390000D01*
X125437500Y-74010000D02*
X127437500Y-74010000D01*
X125207500Y-71690000D02*
X124927500Y-71690000D01*
X125207500Y-71410000D01*
X125207500Y-71690000D01*
G36*
X125207500Y-71690000D02*
G01*
X124927500Y-71690000D01*
X125207500Y-71410000D01*
X125207500Y-71690000D01*
G37*
%TD*%
M02*
