%TF.GenerationSoftware,KiCad,Pcbnew,9.0.4*%
%TF.CreationDate,2025-10-18T21:09:29-05:00*%
%TF.ProjectId,Black Body Breakout Board,426c6163-6b20-4426-9f64-792042726561,rev?*%
%TF.SameCoordinates,Original*%
%TF.FileFunction,Legend,Bot*%
%TF.FilePolarity,Positive*%
%FSLAX46Y46*%
G04 Gerber Fmt 4.6, Leading zero omitted, Abs format (unit mm)*
G04 Created by KiCad (PCBNEW 9.0.4) date 2025-10-18 21:09:29*
%MOMM*%
%LPD*%
G01*
G04 APERTURE LIST*
%ADD10C,0.150000*%
%ADD11C,0.120000*%
G04 APERTURE END LIST*
D10*
X133754819Y-71641666D02*
X134469104Y-71641666D01*
X134469104Y-71641666D02*
X134611961Y-71594047D01*
X134611961Y-71594047D02*
X134707200Y-71498809D01*
X134707200Y-71498809D02*
X134754819Y-71355952D01*
X134754819Y-71355952D02*
X134754819Y-71260714D01*
X133850057Y-72070238D02*
X133802438Y-72117857D01*
X133802438Y-72117857D02*
X133754819Y-72213095D01*
X133754819Y-72213095D02*
X133754819Y-72451190D01*
X133754819Y-72451190D02*
X133802438Y-72546428D01*
X133802438Y-72546428D02*
X133850057Y-72594047D01*
X133850057Y-72594047D02*
X133945295Y-72641666D01*
X133945295Y-72641666D02*
X134040533Y-72641666D01*
X134040533Y-72641666D02*
X134183390Y-72594047D01*
X134183390Y-72594047D02*
X134754819Y-72022619D01*
X134754819Y-72022619D02*
X134754819Y-72641666D01*
D11*
%TO.C,J2*%
X134784264Y-77230000D02*
X134360000Y-76930000D01*
X134360000Y-76930000D02*
X134784264Y-76630000D01*
X134784264Y-76630000D02*
X134784264Y-77230000D01*
X133400000Y-75570000D02*
X133100000Y-75570000D01*
X133100000Y-75570000D02*
X133100000Y-75120000D01*
X130900000Y-75570000D02*
X130600000Y-75570000D01*
X130600000Y-75570000D02*
X130600000Y-75120000D01*
X128400000Y-75570000D02*
X128100000Y-75570000D01*
X128100000Y-75570000D02*
X128100000Y-75120000D01*
X125900000Y-75570000D02*
X125600000Y-75570000D01*
X125600000Y-75570000D02*
X125600000Y-75120000D01*
X123400000Y-75570000D02*
X123100000Y-75570000D01*
X123100000Y-75570000D02*
X123100000Y-75120000D01*
X135080000Y-75120000D02*
X121420000Y-75120000D01*
X133400000Y-75120000D02*
X133400000Y-75570000D01*
X133100000Y-75120000D02*
X133400000Y-75120000D01*
X130900000Y-75120000D02*
X130900000Y-75570000D01*
X130600000Y-75120000D02*
X130900000Y-75120000D01*
X128400000Y-75120000D02*
X128400000Y-75570000D01*
X128100000Y-75120000D02*
X128400000Y-75120000D01*
X125900000Y-75120000D02*
X125900000Y-75570000D01*
X125600000Y-75120000D02*
X125900000Y-75120000D01*
X123400000Y-75120000D02*
X123400000Y-75570000D01*
X123100000Y-75120000D02*
X123400000Y-75120000D01*
X121420000Y-75120000D02*
X121420000Y-66440000D01*
X135080000Y-66440000D02*
X135080000Y-75120000D01*
X121420000Y-66440000D02*
X135080000Y-66440000D01*
%TD*%
M02*
